<svg width="88" height="88" fill="none" xmlns="http://www.w3.org/2000/svg"><circle cx="19" cy="19" r="19" fill="#F2C94C"/><path fill-rule="evenodd" clip-rule="evenodd" d="M45.98 8.254c-1 .35-1.817.954-2.429 1.791-.491.673-.933 1.92-.933 2.634 0 .789-.317.92-2.212.92-1.347 0-1.903.07-2.584.323-1.105.41-2.199 1.454-2.698 2.574l-.382.856-6.502.003c-5.95.003-6.556.028-7.133.289-.806.364-1.745 1.395-1.968 2.16-.124.429-.16 9.792-.127 33.221l.046 32.625.478.674c.262.37.824.887 1.248 1.147l.77.473 27.04.044c20.052.033 27.21-.002 27.703-.135.902-.246 1.903-1.135 2.35-2.09l.372-.79-.004-15.478c-.004-16.613.034-15.845-.8-16.16-.468-.176-1.3.122-1.455.52-.056.146-.102 7.16-.102 15.586v15.322l-.46.457-.461.457H49.084c-28.436 0-27.358.027-27.643-.71-.054-.14-.098-14.71-.098-32.378V20.465l.387-.384c.342-.34.523-.384 1.576-.384h1.189v29.668c.001 19.925.055 29.858.164 30.248.197.703.8 1.445 1.47 1.809.446.242 1.319.272 9.033.313l8.539.046.177.533c.226.678 1.07 1.417 1.903 1.665.99.294 1.844-.004 3.317-1.16l1.24-.973 10.441-.078 10.442-.078.633-.36c.348-.198.81-.615 1.024-.927l.392-.566.043-9.457.043-9.457-.347-.366c-.421-.445-1.068-.473-1.574-.066l-.372.298-.043 9.157c-.041 8.858-.053 9.162-.346 9.318-.201.107-3.181.148-8.779.121l-8.475-.04 1.19-.965c1.004-.814 3.647-4.006 16.938-20.452 8.66-10.717 15.884-19.746 16.05-20.064.201-.383.328-1.014.375-1.87.067-1.21.039-1.36-.428-2.301-.863-1.74-2.321-2.64-4.268-2.64-1.259 0-2.04.244-2.918.91-.271.204-7.58 9.141-16.24 19.86L48.37 71.31l-2.049 4.017-2.048 4.017-8.458.04c-7.534.036-8.485.014-8.707-.207-.225-.223-.25-3.079-.25-29.864V19.697H34.7l.069.936c.054.745.165 1.056.542 1.524.972 1.208.105 1.136 13.668 1.136h12.113l.628-.35c.78-.435 1.366-1.396 1.491-2.448l.096-.798h7.678v18.16l.476.474c.382.379.562.453.906.372.237-.055.554-.246.706-.424.255-.3.275-.986.275-9.453v-9.129l1.222.005c2.134.009 2.088-.127 2.088 6.168v5.099l.387.383c.493.49 1.097.49 1.59 0l.387-.383-.007-5.284c-.008-5.687-.04-5.95-.851-7.007-.233-.302-.77-.724-1.195-.938l-.773-.388h-13.05l-.32-.763c-.421-1.007-1.327-1.98-2.312-2.484-.7-.358-1.05-.42-2.82-.496-2.253-.098-2.47-.203-2.47-1.206 0-1.453-1.24-3.222-2.788-3.976-.68-.332-1.005-.374-3.2-.415-2.045-.037-2.575.002-3.257.242zm5.728 2.468c.709.521 1.1 1.224 1.213 2.18.119 1.006.276 1.37.866 2.001.74.794 1.201.932 3.437 1.03 2.38.103 2.714.246 3.32 1.422.282.548.355.95.355 1.965 0 .886-.066 1.331-.215 1.453-.156.129-3.387.166-11.858.137l-11.645-.04-.044-1.572c-.04-1.42-.01-1.622.315-2.096.715-1.043 1.041-1.17 3.246-1.266 1.643-.072 2.118-.149 2.668-.433.893-.461 1.462-1.343 1.603-2.483.133-1.077.479-1.787 1.074-2.2.688-.478.788-.493 3.065-.458 1.91.029 2.206.07 2.6.36zm-10.937 18.83c-.375.148-.968.907-2.96 3.788-.693 1.002-1.317 1.826-1.386 1.83-.07.003-.725-.522-1.455-1.167-1.439-1.27-1.799-1.392-2.495-.848-.303.236-.416.468-.416.852 0 .473.176.685 1.667 2.021.916.821 1.842 1.537 2.058 1.59.72.18 1.657-.048 2.124-.515.905-.907 4.395-6.05 4.395-6.478 0-.787-.813-1.357-1.532-1.073zm6.782.622c-.703.28-.908 1.336-.365 1.875.308.305.525.313 9.195.313 9.806 0 9.224.06 9.484-.974.086-.345.016-.516-.37-.899l-.477-.473-8.561.01c-4.709.006-8.717.072-8.906.148zm37.079 3.604c.909.558 1.303 2.1.788 3.086-.293.563-3.723 4.809-3.853 4.77-.057-.016-.932-.681-1.945-1.48-1.116-.877-1.794-1.513-1.719-1.611 2.217-2.883 3.885-4.777 4.393-4.993.707-.3 1.621-.21 2.335.228zm-37.444 1.867c-.425.421-.416 1.268.017 1.656.316.285.73.3 9.07.341l8.738.043.48-.477c.39-.386.46-.557.374-.902-.26-1.033.322-.974-9.484-.974-8.67 0-8.887.008-9.195.313zm31.245 6.562c1 .791 1.624 1.389 1.55 1.485-.182.24-24.941 30.944-25.058 31.075-.11.122-3.712-2.669-3.78-2.927-.022-.086 5.62-7.165 12.54-15.731C74.311 42.95 76.301 40.56 76.51 40.709c.137.095 1.001.77 1.922 1.498zm-37.824 4.486c-.108.043-1.09 1.342-2.181 2.887-1.742 2.464-2.016 2.784-2.238 2.606a77.75 77.75 0 01-1.364-1.178c-1.233-1.083-1.86-1.253-2.452-.666-.523.519-.412 1.208.304 1.883 2.539 2.396 3.374 2.864 4.47 2.505.696-.227.797-.346 3.16-3.71 2.188-3.116 2.34-3.512 1.58-4.107-.398-.31-.857-.39-1.279-.22zm6.58.522c-.683.677-.228 1.763.818 1.953.286.052 4.268.074 8.847.048l8.327-.047.38-.439c.466-.537.48-.88.054-1.416l-.327-.412h-8.892c-8.683 0-8.9.007-9.208.313zm.029 5.165c-.5.463-.466 1.284.07 1.703.398.31.603.324 4.8.324 2.922 0 4.513-.06 4.774-.177.8-.361.87-1.601.115-2.002-.2-.107-1.957-.166-4.863-.166-4.362 0-4.566.013-4.896.318zm-6.609 11.198c-.108.044-1.09 1.343-2.181 2.888-1.742 2.464-2.016 2.783-2.238 2.606a77.134 77.134 0 01-1.364-1.179c-1.233-1.082-1.86-1.252-2.452-.665-.577.572-.419 1.215.513 2.087 2.68 2.507 3.496 2.855 4.798 2.04.191-.118 1.308-1.583 2.482-3.254 2.337-3.323 2.489-3.703 1.72-4.302-.397-.31-.856-.39-1.278-.22zM51.453 75.21c.861.692 1.562 1.308 1.558 1.368-.016.224-6.29 5.113-6.56 5.113-.156 0-.308-.132-.34-.292-.062-.321 3.42-7.447 3.64-7.447.074 0 .84.566 1.702 1.258z" fill="#000"/></svg>