<svg width="95" height="84" fill="none" xmlns="http://www.w3.org/2000/svg"><circle cx="19" cy="19" r="19" fill="#F2C94C"/><path fill-rule="evenodd" clip-rule="evenodd" d="M41.42 4.16c-1.142.223-2.837 1.133-3.913 2.098-1.382 1.24-2.379 1.677-3.814 1.673-1.419-.005-3.232-.565-4.706-1.454-1.803-1.087-2.737-1.456-3.702-1.464-1.145-.01-1.99.524-2.512 1.586-1.107 2.255.247 6.648 3.944 12.798a79.23 79.23 0 002.085 3.285l.862 1.251-.985.102c-2.653.275-4.472 2.38-4.287 4.964.092 1.274.541 2.213 1.484 3.1l.698.656-1.454 1.655c-2.18 2.483-3.11 3.775-3.11 4.323 0 1.006 1.399 1.63 2.15.96.168-.15.916-1.027 1.662-1.947a63.04 63.04 0 012.619-3.008l1.263-1.333 14.185-.044 14.186-.042.782-.36c2.386-1.096 3.457-3.842 2.398-6.146-.766-1.667-2.128-2.616-3.968-2.763l-.963-.078.972-1.427c.534-.785 1.5-2.308 2.145-3.383 4.668-7.77 5.458-12.777 2.212-14.016-.913-.349-1.768-.197-3.201.57-3.348 1.79-4.618 2.242-6.244 2.223-1.31-.015-2.416-.512-3.75-1.687-2.172-1.912-4.472-2.595-7.038-2.093zm3.603 2.929c.394.169 1.204.742 1.8 1.273 3.035 2.707 6.67 2.99 10.704.832 3.203-1.712 3.275-1.734 3.502-1.107.22.611-.32 2.643-1.266 4.762-1.047 2.346-2.514 4.892-4.786 8.308l-1.9 2.854h-3.373V20.56c0-3.495-.057-3.9-.612-4.326-.428-.328-1.242-.238-1.663.184l-.385.384v7.209h-7.963l-.047-3.611-.047-3.612-.44-.377c-.538-.463-1.183-.483-1.73-.053l-.412.324v7.329h-3.432l-1.113-1.603c-2.791-4.022-5.603-9.068-6.386-11.458-.41-1.255-.576-2.38-.433-2.948.09-.355.146-.38.577-.256.263.075.809.327 1.213.56.403.232 1.086.623 1.516.868 1 .57 2.936 1.191 4.332 1.389 2.214.314 4.515-.444 6.35-2.091 1.57-1.409 2.665-1.86 4.26-1.757.56.036 1.34.204 1.734.374zm13.216 20.05c.233.216.523.623.643.906.445 1.043-.362 2.4-1.555 2.615-.277.05-6.91.07-14.742.045-13.685-.044-14.255-.057-14.676-.343-1.214-.822-1.164-2.616.094-3.386.49-.3.836-.306 15.156-.267l14.656.04.424.39zm2.39 10.385c-1.317.358-2.395 1.455-2.784 2.834-.128.453-.163 6.16-.13 20.726l.047 20.1.338.626c.4.738 1.166 1.492 1.93 1.899.524.278 1.24.291 16.351.291 15.112 0 15.827-.013 16.35-.291.765-.407 1.532-1.161 1.93-1.899l.339-.626V40.201l-.343-.64c-.4-.747-1.276-1.56-2.07-1.921-.503-.229-2.115-.258-15.893-.285-11.999-.024-15.493.013-16.066.169zm-18.457 1.49c-.304.246-.383.487-.447 1.369-.077 1.053-.086 1.07-.548 1.119-1.783.187-4.286 1.27-5.812 2.517-1.072.875-2.23 2.499-2.632 3.69-1.588 4.71 1.944 9.57 7.818 10.755l1.095.221.041 5.97c.033 4.82.002 5.97-.162 5.97-.5 0-2.077-.507-2.96-.953-1.253-.633-2.663-1.98-3.076-2.937-.176-.41-.392-1.197-.48-1.75-.185-1.161-.531-1.555-1.367-1.555-1.198 0-1.58 1.073-1.072 3.02.379 1.454.986 2.458 2.253 3.724.97.97 1.465 1.322 2.677 1.902 1.406.673 3.127 1.209 3.883 1.209.315 0 .342.076.342.987 0 .776.068 1.06.317 1.328.426.457.975.573 1.505.32.578-.278.832-.82.835-1.778l.003-.786 1.218-.252c3.49-.721 6.469-2.971 7.563-5.713.306-.766.364-1.198.368-2.721l.004-1.81-.662-1.336c-1.06-2.14-3.098-3.852-5.64-4.74-.623-.218-1.502-.449-1.953-.514l-.82-.118-.041-5.981c-.048-6.913-.253-6.271 1.786-5.587 2.78.934 4.438 2.695 4.764 5.065.178 1.302.653 1.82 1.537 1.68.918-.148 1.155-.591 1.072-2.011-.167-2.887-2.567-5.727-5.989-7.085-.602-.24-1.563-.51-2.135-.6l-1.04-.166-.064-1.006c-.055-.862-.126-1.059-.495-1.376-.52-.447-1.186-.475-1.686-.07zm49.869 1.47l.377.439v39.581l-.457.458-.457.457H61.258l-.457-.457-.457-.458V60.871c0-12.61.055-19.779.155-20.041.335-.881-.136-.858 16.17-.82l14.994.035.378.439zm-26.227 3.901c-.456.23-.82.569-1.052.978-.343.606-.353.737-.313 4.158l.04 3.532.422.552c.856 1.122.35 1.077 11.685 1.03 9.99-.042 10.174-.048 10.599-.365.238-.178.577-.517.755-.755.304-.408.322-.639.322-4.135 0-3.66-.004-3.71-.376-4.23-.206-.29-.664-.658-1.017-.818-.603-.274-1.224-.292-10.504-.295l-9.863-.003-.698.352zm-47.46.157c-.531.481-1.733 3.587-2.376 6.14-.769 3.053-1.068 5.961-.955 9.307.306 9.126 3.346 15.502 9.265 19.437 2.754 1.831 5.8 3.043 9.512 3.785 3.22.644 4.933.786 9.411.782 4.516-.004 6.405-.183 9.613-.911 1.319-.3 1.703-.452 1.995-.79.494-.576.459-1.113-.113-1.684-.54-.54-.344-.545-3.594.073-5.633 1.07-12.965.92-18.138-.373-6.061-1.515-10.467-4.81-12.903-9.65-2.65-5.266-3.18-13.711-1.269-20.277.223-.767.722-2.166 1.108-3.108.459-1.12.667-1.828.6-2.046-.18-.6-.711-1.037-1.256-1.037-.312 0-.664.138-.9.352zm23.37 5.514c0 6.769.216 6.126-1.836 5.478-1.414-.446-2.965-1.454-3.734-2.427-2.462-3.11-.769-7.035 3.693-8.561.56-.191 1.21-.35 1.447-.352l.43-.004v5.866zm43.967-.704v2.66H67.07v-5.32h18.62v2.66zm-20.895 9.77a1.31 1.31 0 00.608 2.204c.207.052 1.412.072 2.678.044 2.202-.05 2.317-.068 2.602-.42.426-.528.388-1.356-.085-1.829-.376-.375-.437-.384-2.902-.384-2.464 0-2.525.009-2.901.384zm9.412-.033c-.595.536-.606 1.343-.025 1.924.374.373.447.384 2.749.384 2.376 0 2.835-.087 3.238-.612.329-.428.239-1.242-.183-1.663-.376-.376-.438-.385-2.886-.385-2.374 0-2.522.018-2.893.352zm9.28.106c-.276.275-.457.622-.457.872s.181.597.457.872l.457.458h4.899l.457-.458c.276-.275.457-.622.457-.872s-.181-.597-.457-.872l-.457-.458h-4.899l-.457.458zm-37.338.023c2.063.69 3.704 2.032 4.414 3.613.379.843.421 1.098.359 2.147-.042.708-.184 1.411-.351 1.737-.97 1.893-3.075 3.314-5.679 3.834l-.508.102V58.894h.396c.217 0 .833.146 1.369.325zm18.646 5.222a1.244 1.244 0 00-.384.945c0 .388.119.681.384.946.376.376.437.384 2.901.384 2.465 0 2.526-.008 2.902-.384.265-.265.384-.558.384-.946 0-.387-.119-.68-.384-.945-.376-.376-.437-.384-2.902-.384-2.464 0-2.525.008-2.901.384zm9.387 0c-.58.58-.57 1.388.025 1.923.37.334.52.352 2.864.352 2.464 0 2.475-.002 2.886-.412.449-.448.546-1.2.212-1.635-.403-.525-.862-.612-3.238-.612-2.302 0-2.375.01-2.749.384zm9.305.073c-.276.276-.457.622-.457.872s.181.597.457.873l.457.457h4.899l.457-.457c.276-.276.457-.622.457-.873 0-.25-.181-.596-.457-.872l-.457-.457h-4.899l-.457.457zm-18.372 5.05c-.803.46-.955 1.452-.32 2.087.376.375.437.383 2.901.383 2.465 0 2.526-.008 2.902-.383.633-.633.507-1.654-.253-2.047-.556-.287-4.742-.32-5.23-.04zm9.342-.025c-.428.172-.795.964-.694 1.496.04.21.25.52.467.69.354.279.64.31 2.882.31 2.435 0 2.498-.009 2.874-.385.538-.538.51-1.234-.074-1.817l-.457-.458-2.32.01c-1.276.006-2.48.075-2.678.154zm9.129.188c-.613.54-.674 1.206-.165 1.81l.419.498 2.528-.006c2.64-.005 2.848-.052 3.208-.727.293-.551.212-.981-.276-1.47l-.457-.457h-2.429c-2.295 0-2.45.02-2.828.352zm-18.694 5.372c-.622.523-.663 1.305-.097 1.87.375.376.439.384 2.873.384 2.282 0 2.524-.027 2.902-.324.299-.235.412-.469.412-.848 0-1.306-.409-1.487-3.344-1.487-2.208 0-2.276.01-2.746.405zm9.495-.166c-.713.396-.83 1.426-.234 2.068.312.337.432.352 2.887.352 2.511 0 2.57-.008 2.946-.384.497-.497.5-1.184.007-1.758l-.378-.439-2.4-.039c-1.911-.03-2.487.01-2.828.2zm9.425-.037c-.827.419-.97 1.499-.282 2.14.314.291.546.317 2.893.317 2.333 0 2.579-.027 2.861-.309.684-.683.532-1.722-.313-2.15-.534-.27-4.625-.268-5.159.002z" fill="#000"/></svg>