<svg width="81" height="84" fill="none" xmlns="http://www.w3.org/2000/svg"><circle cx="22" cy="19" r="19" fill="#F2C94C"/><path fill-rule="evenodd" clip-rule="evenodd" d="M38.624 4.048c-.13.032-.772.143-1.425.247-5.679.908-10.99 4.83-13.661 10.086-1.405 2.764-1.93 5.012-1.938 8.291-.006 2.55.17 3.734.878 5.891 1.543 4.706 5.06 8.723 9.627 10.994 1.343.668 3.42 1.36 5.015 1.672 1.636.32 5.526.278 7.207-.08 6.708-1.422 12.166-6.245 14.245-12.586.698-2.127.884-3.348.884-5.812 0-2.464-.186-3.685-.884-5.813-2.048-6.246-7.375-11.032-13.928-12.512-1.228-.277-5.357-.536-6.02-.378zm5.624 3.507c5.855 1.437 10.379 5.994 11.746 11.832.433 1.846.397 5.16-.075 7.03-1.126 4.465-4.204 8.257-8.375 10.322-6.05 2.993-13.378 1.804-18.194-2.952-5.313-5.246-6.164-13.354-2.055-19.578 2.368-3.588 6.14-6.048 10.54-6.874 1.6-.3 4.732-.192 6.413.22zm-6.97 4.541c-.745.34-1.41 1.001-1.67 1.659-.103.258-.224 1.261-.27 2.23l-.084 1.76h-1.71c-1.876 0-2.375.122-3.058.753-.902.831-1.042 1.403-1.046 4.259-.003 2.378.025 2.643.353 3.276.714 1.38 1.869 1.88 4.338 1.88h1.167v1.153c0 2.438.507 3.58 1.904 4.284.64.323.913.352 3.323.352 2.411 0 2.683-.029 3.324-.352 1.397-.705 1.904-1.846 1.904-4.284v-1.152h1.167c2.469 0 3.624-.501 4.338-1.881.327-.633.356-.901.356-3.282 0-2.381-.029-2.65-.356-3.283a4.272 4.272 0 00-.965-1.167c-.594-.467-.654-.48-2.574-.53l-1.966-.052V16.5c0-2.507-.495-3.639-1.904-4.35-.641-.323-.91-.351-3.318-.348-2.211.003-2.718.048-3.253.293zm5.176 5.218c.09 3.445.1 3.456 3.576 3.533l2.416.054v3.884h-2.513c-2.471 0-2.52.006-2.91.392-.495.488-.593 1.062-.595 3.48l-.002 1.916h-3.802l-.001-1.916c-.002-2.418-.1-2.992-.595-3.48-.39-.386-.44-.392-2.91-.392h-2.513V20.9l2.416-.054c3.475-.078 3.486-.088 3.575-3.533l.062-2.386h3.734l.062 2.386zm-40.39 16.87c-.727.217-1.724 1.25-1.928 1.998-.117.429-.156 7.582-.127 23.202l.042 22.582.376.597c.206.329.665.787 1.018 1.017.632.413.683.42 3.279.42 2.595 0 2.647-.007 3.28-.42.352-.23.81-.688 1.017-1.017.363-.576.378-.721.426-4.234l.05-3.638h62.056l.05 3.65.05 3.649.426.634c.233.348.697.8 1.03 1.005.572.351.742.371 3.218.371 2.475 0 2.646-.02 3.218-.371.333-.204.796-.657 1.03-1.006L81 81.99V48.62l-.425-.634c-.234-.349-.697-.802-1.03-1.006-.572-.351-.743-.371-3.218-.371-2.476 0-2.646.02-3.219.371-.332.204-.796.657-1.03 1.005l-.424.634-.05 3.65-.05 3.649h-3.109l-.067-1.382c-.108-2.22-1.002-3.64-2.815-4.469-.716-.327-.815-.329-15.058-.329H36.17l-.9.437c-1.713.83-2.521 2.173-2.633 4.374l-.07 1.369h-4V54.47c0-1.203-.061-1.56-.358-2.108-.56-1.036-1.252-1.715-2.228-2.188l-.9-.437h-7.366c-4.052 0-7.56.053-7.796.119l-.43.118-.045-6.935-.046-6.936-.425-.634c-.234-.349-.697-.801-1.03-1.006-.558-.343-.785-.373-2.98-.403-1.307-.017-2.611.038-2.898.124zm4.244 24.863v21.902H3.14V37.144h3.168v21.903zm71.603 6.258v15.644h-3.168V49.66h3.168v15.645zm-53.302-12.33c.771.348 1.065 1.328.641 2.138-.414.79-.554.805-7.797.805h-6.741l-.539-.532c-.73-.722-.73-1.344 0-2.065l.539-.532h6.74c4.89 0 6.856.051 7.157.187zm39.762 0c.842.38.867.572.867 6.69v5.64H35.773l.005-5.672c.007-6.062.023-6.198.805-6.626.526-.288 27.15-.318 27.788-.031zm-31.766 9.2v3.13H28.81c-4.1 0-4.46.06-4.85.804-.425.81-.13 1.79.64 2.138.316.142 5.984.186 23.695.186h23.28v3.129h-62.1v-3.129h.943c1.133 0 1.697-.227 2-.805.275-.525.285-.928.036-1.467-.268-.583-.914-.856-2.02-.856h-.959v-6.258h23.13v3.129zm38.97 0v3.13h-3.169v-6.258h3.168v3.129zm-54.16 3.348c-1.374.752-.8 2.91.774 2.91.803 0 1.584-.764 1.584-1.549 0-1.174-1.314-1.933-2.359-1.361z" fill="#000"/></svg>