<svg width="83" height="84" fill="none" xmlns="http://www.w3.org/2000/svg"><circle cx="19" cy="19" r="19" fill="#F2C94C"/><path fill-rule="evenodd" clip-rule="evenodd" d="M39.091 4.1c-5.588.527-8.247 1.046-12.78 2.494-1.694.54-2.302.806-2.54 1.11-.306.388-.314.625-.314 9.358 0 5.187-.06 8.96-.14 8.96-.078 0-1.713-1.044-3.635-2.32-1.922-1.276-3.648-2.368-3.835-2.428-.506-.16-1.4.277-1.682.823-.204.394-.245 1.154-.245 4.542v4.07h-3.372c-2.013 0-3.492.064-3.672.16-.812.434-.773-.84-.773 25.526v24.452h-.946c-.52 0-1.14.1-1.377.223-1.04.538-1.04 2.141 0 2.679.65.335 77.79.335 78.44 0 1.04-.538 1.04-2.141 0-2.68-.237-.122-.857-.222-1.377-.222h-.946V56.395c0-26.366.039-25.092-.773-25.526-.18-.096-1.659-.16-3.672-.16H72.08v-4.07c0-3.388-.041-4.148-.245-4.542-.281-.543-1.176-.983-1.678-.824-.184.059-1.902 1.151-3.816 2.428s-3.552 2.321-3.64 2.321c-.105 0-.158-2.999-.158-8.972V8.077l-.352-.385c-.706-.772-6.578-2.325-11.608-3.07-3.615-.536-8.833-.773-11.492-.522zm6.958 3.186c3.878.289 7.645.951 11.608 2.043l1.76.484v3.028c0 1.666-.058 3.029-.127 3.029-.07 0-1.072-.244-2.228-.541-5.051-1.3-9.401-1.856-14.531-1.856-5.45-.001-10.223.672-14.83 2.09-.547.169-1.021.306-1.055.306-.034 0-.062-1.367-.062-3.038V9.79l1.29-.408C33.58 7.578 40 6.837 46.049 7.286zm1.329 9.539c2.676.226 5.877.788 8.845 1.553 1.37.353 2.648.68 2.841.725.35.083.352.097.352 3.17v3.089l-1.68-.451c-5.234-1.404-9.974-2.034-15.251-2.026-5.565.008-9.869.642-15.55 2.29l-.351.103v-6.064l1.29-.415c6-1.93 12.387-2.576 19.504-1.974zM20.366 27.92l3.092 2.055-.04 25.397-.04 25.397-3.165.042-3.166.043V53.36c0-15.122.05-27.494.113-27.494s1.505.925 3.206 2.054zm48.587 25.44v27.494l-3.166-.043-3.166-.042-.04-25.396-.039-25.397 3.088-2.054c1.699-1.13 3.141-2.055 3.206-2.055.064 0 .117 12.371.117 27.493zm-19.7-26.953c2.413.336 5.916 1.054 8.209 1.68l1.876.512.042 3.103c.04 2.916.026 3.097-.234 2.995-.757-.295-5.556-1.368-7.625-1.704-3.638-.59-6.534-.776-10.53-.674-4.571.117-7.776.57-11.906 1.686-.989.268-1.956.522-2.15.565l-.351.08v-6.078l1.726-.507a54.08 54.08 0 019.374-1.875c2.008-.22 9.435-.082 11.57.217zM13.92 57.34v23.507H9.23V33.832h4.69V57.34zm62.85 0v23.507h-4.69V33.832h4.69V57.34zM48.941 35.78c3.251.436 6.53 1.122 9.42 1.971l1.055.31v6.116l-.352-.1c-3.119-.887-7.518-1.761-10.827-2.15-2.242-.265-9.19-.268-11.334-.006-3.252.398-6.903 1.151-9.58 1.976l-.746.23.043-3.063.042-3.064.86-.296c2.479-.852 6.695-1.718 10.162-2.088 2.472-.264 8.747-.173 11.257.164zm-.39 9.371a61.165 61.165 0 019.732 1.985l1.133.33v3.023c0 1.663-.057 3.023-.126 3.023-.07 0-1.072-.242-2.228-.539-5.368-1.376-9.124-1.856-14.531-1.855-3.99 0-6.062.17-9.38.768-1.254.226-5.7 1.324-6.294 1.553-.254.099-.273-.103-.273-2.943v-3.05l1.212-.392c3.343-1.081 6.918-1.78 10.904-2.13 2.139-.189 7.383-.068 9.85.227zm-3.402 9.141c4.242.236 7.711.809 12.43 2.055l1.837.485v24.014H53.16l.04-8.63.04-8.63 1.126-.045c1.035-.042 1.157-.084 1.524-.52.553-.657.533-1.389-.057-2.048l-.456-.51-11.778-.047c-6.477-.026-12.07-.005-12.428.046-1.365.196-1.921 1.538-1.061 2.56.367.435.49.477 1.524.519l1.126.045.04 8.63.04 8.63h-6.256V68.831c0-11.31.016-12.022.274-12.096.15-.044.977-.293 1.837-.555 3.852-1.17 7.865-1.779 13.289-2.016.258-.011 1.682.047 3.165.13zm-3.712 17.885v8.67h-5.472V63.508h5.472v8.67zm8.599 0v8.67h-5.473V63.508h5.472v8.67z" fill="#000"/></svg>