<svg width="71" height="92" fill="none" xmlns="http://www.w3.org/2000/svg"><circle cx="19" cy="19" r="19" fill="#F2C94C"/><path fill-rule="evenodd" clip-rule="evenodd" d="M24.584 12.309c-3.276.857-5.915 3.526-6.677 6.753-.183.775-.23 2.281-.233 7.31l-.002 6.334-.71.697c-.944.924-1.225 1.865-1.14 3.812.054 1.214.129 1.542.496 2.168.572.976 1.376 1.486 2.678 1.702.578.096 1.07.25 1.093.344.804 3.224 1.868 5.475 3.718 7.868.713.922.82 1.282.385 1.287-.345.003-2.037.937-2.89 1.594-1.051.81-2.438 2.552-3.03 3.807-.247.523-.574 1.531-.727 2.241-.156.725-.378 1.345-.506 1.414-.125.069-2.268.734-4.763 1.48-2.494.745-4.89 1.516-5.324 1.712-1.45.657-2.632 1.973-3.106 3.46-.29.912-1.657 8.763-1.657 9.522 0 .379.114.612.413.847.529.416.878.409 1.387-.028.38-.327.462-.66 1.18-4.804.424-2.45.842-4.657.93-4.907.255-.733.907-1.476 1.612-1.837.55-.28 9.016-2.937 9.374-2.941.065 0 .118.526.118 1.17 0 1.012-.038 1.172-.274 1.172-.65 0-2.175.914-2.961 1.772-1.338 1.463-1.405 1.761-1.956 8.743-.538 6.83-.533 6.926.48 7.938.655.655 1.43.917 2.71.919 1.06 0 1.591-.21 1.827-.727.257-.564.216-.807-.21-1.232-.327-.327-.531-.384-1.378-.384-1.71 0-1.624.504-1.087-6.346.514-6.537.55-6.706 1.653-7.674.73-.64 1.5-.869 2.68-.794 1.4.09 2.358.694 2.928 1.847.405.82.444 1.12.868 6.61.376 4.884.411 5.798.231 6.055-.174.248-.401.302-1.27.302-.905 0-1.109.053-1.4.362-.438.466-.442 1.215-.01 1.606.271.244.572.297 1.682.297 1.18 0 1.44-.052 2.057-.414 1.007-.592 1.405-1.372 1.405-2.754 0-1.494-.745-10.869-.938-11.796-.413-1.988-1.974-3.665-3.954-4.248l-.66-.194-.044-1.495-.045-1.495 1.374-.42 2.043-.622.668-.202.243.572c1.855 4.358 5.452 13.492 8.838 22.444 1.74 4.596 2.08 5.233 2.797 5.233.718 0 1.058-.637 2.797-5.233 3.387-8.952 6.983-18.086 8.838-22.444l.243-.572.669.202c.367.111 1.285.39 2.04.621l1.37.42-.041 3.443-.042 3.445-.86.316c-4.201 1.543-5.322 6.95-2.072 9.987 1.88 1.756 4.38 2.167 6.669 1.097a5.964 5.964 0 001.709-9.682c-.787-.79-2.17-1.593-2.749-1.596-.251-.001-.273-.255-.273-3.126 0-1.718.052-3.124.117-3.123.358.004 8.824 2.66 9.374 2.941.69.353 1.322 1.06 1.6 1.79.165.434 3.765 21.205 3.765 21.723 0 .151-.172.447-.384.657l-.383.384H3.114l-.384-.383c-.211-.211-.384-.51-.384-.665 0-.154.252-1.721.558-3.483.66-3.797.686-4.344.216-4.725-.555-.448-1.226-.362-1.679.218C1.25 80.844 0 87.712 0 88.517c0 1.302 1.195 2.903 2.442 3.273.937.279 65.179.279 66.116 0 1.243-.368 2.443-1.971 2.442-3.264 0-.677-3.591-21.447-3.844-22.235-.478-1.49-1.659-2.803-3.108-3.46-.434-.196-2.83-.967-5.324-1.713-2.495-.746-4.648-1.414-4.785-1.486-.156-.082-.311-.506-.416-1.134-.3-1.817-1.226-3.633-2.706-5.313-.719-.815-2.5-2.05-3.513-2.434-.377-.143-.727-.301-.777-.352-.05-.05.352-.68.895-1.4 1.508-2.001 2.67-4.373 3.245-6.62l.28-1.094 1.064-.195c1.316-.24 2.107-.746 2.671-1.708.367-.626.443-.954.496-2.168.085-1.947-.196-2.888-1.14-3.812l-.71-.697v-2.31c0-2.103-.028-2.34-.313-2.624-.42-.42-1.268-.413-1.656.016-.264.29-.304.632-.347 2.943l-.05 2.615-.81.27c-.447.149-.895.305-.998.348-.14.058-.197-1.2-.234-5.206-.043-4.653-.082-5.355-.326-5.895-.434-.962-1.255-1.855-2.168-2.36-.825-.456-.884-.465-3.512-.516-3.034-.058-3.604.043-4.703.839-1.13.818-1.927 1.159-2.71 1.159-.785 0-1.582-.341-2.712-1.16-1.099-.795-1.669-.896-4.703-.838-2.627.05-2.687.06-3.512.516-.913.505-1.733 1.398-2.168 2.36-.244.54-.283 1.242-.326 5.895-.036 4.006-.093 5.264-.234 5.206a28.21 28.21 0 00-1.007-.351l-.821-.274v-6.597c0-5.98.027-6.684.289-7.526.754-2.419 2.817-4.245 5.334-4.722 1.112-.21 18.606-.21 19.718 0 1.815.344 3.468 1.42 4.45 2.898.862 1.297 1.047 1.967 1.159 4.187.092 1.854.128 2.031.466 2.304.475.385 1.187.377 1.582-.017.276-.275.312-.519.31-2.07-.004-3.145-.783-5.171-2.715-7.07-1.294-1.27-2.561-1.991-4.257-2.425-1.141-.291-1.744-.308-10.918-.3-9.043.008-9.789.03-10.852.308zm7.404 10.781c2.64 1.667 4.384 1.667 7.024 0l1.245-.786h2.277c2.693 0 3.153.155 3.718 1.256.346.675.352.774.352 6.568 0 5.69.01 5.895.32 6.288.311.396 1.316.8 1.58.637.073-.045.133.845.133 1.978 0 1.94-.032 2.155-.553 3.72a16.744 16.744 0 01-4.396 6.902c-4.838 4.58-11.538 4.58-16.376 0a16.745 16.745 0 01-4.396-6.903c-.52-1.565-.553-1.778-.553-3.727 0-1.806.031-2.055.244-1.974.346.133 1.234-.273 1.535-.703.224-.32.255-1.06.255-6.232 0-5.78.005-5.88.351-6.555.565-1.1 1.025-1.255 3.718-1.255h2.277l1.245.786zM19.822 35.733c.305.01.274 2.955-.032 3.073-.399.152-1.28-.242-1.47-.656-.178-.391-.254-2.44-.097-2.597.046-.045.38-.025.743.046.364.07.749.13.856.134zm33.037.946c0 1.343-.205 1.813-.89 2.039-.906.298-.986.177-.986-1.477v-1.477l.82-.14c.452-.078.874-.114.939-.081.064.032.117.544.117 1.136zm-26.3 17.876c-.046 2.026-.085 2.299-.39 2.695-.185.242-.431.413-.547.379-.8-.233-1.736-.04-5.63 1.165-.238.073-.242.019-.044-.636.573-1.904 2.072-3.808 3.755-4.77.759-.434 2.348-1.051 2.777-1.08.071-.004.106 1.007.078 2.247zm18.804-2.003c2.813.833 4.826 2.83 5.698 5.652.188.609.184.663-.053.59-3.464-1.072-4.108-1.231-5.03-1.245-1-.015-1.021-.024-1.29-.562-.219-.438-.273-.96-.274-2.617 0-1.138.023-2.07.05-2.07.028 0 .432.113.9.252zM30.33 54.419c3.548 1.47 7.49 1.3 11.525-.497.125-.056.196.424.238 1.61.055 1.55.102 1.766.565 2.614.277.51.487.936.465.95-.02.013-1.711 1.267-3.756 2.785-2.045 1.519-3.785 2.761-3.867 2.761-.082 0-1.822-1.242-3.867-2.76a1761.928 1761.928 0 00-3.756-2.786c-.021-.014.188-.44.466-.95.462-.848.509-1.064.564-2.614.042-1.186.113-1.666.238-1.61.098.043.631.267 1.185.497zm2.64 11.365c.154.123-.273.366-1.721.978-1.06.448-1.967.77-2.018.715-.05-.056-.568-1.288-1.15-2.74a472.98 472.98 0 00-1.28-3.164c-.2-.476.076-.308 2.871 1.76a519.2 519.2 0 013.297 2.45zm11.229-4.21c-.121.289-.697 1.713-1.279 3.164-.583 1.45-1.1 2.683-1.15 2.739-.051.055-.962-.268-2.025-.717l-1.932-.817 3.261-2.435a279.62 279.62 0 013.303-2.447c.023-.007-.057.224-.178.513zm-7.436 6.447c.724.311 1.343.589 1.375.617.031.027-.215.368-.548.756l-.604.706h-2.972l-.62-.725c-.343-.4-.554-.75-.47-.781a98.77 98.77 0 002.51-1.126c.006-.007.604.241 1.329.553zm-5.283 2.69l.839.99-.21 1.119a30.06 30.06 0 01-.254 1.257c-.025.077-.416-.819-.87-1.99-1.075-2.777-.96-3.096.495-1.377zm9.26-.91c.055.087-.272 1.116-.726 2.287-.453 1.17-.844 2.066-.869 1.99a28.017 28.017 0 01-.253-1.256l-.21-1.115.866-1.033c.884-1.053 1.02-1.153 1.193-.874zm13.852 1.341c1.914 1.285 2.232 3.992.658 5.61-1.44 1.482-3.572 1.568-5.119.207-1.968-1.73-1.477-4.956.93-6.096.964-.458 2.629-.326 3.53.28zM36.58 73.275c.09.451.342 1.804.561 3.007l.398 2.188-.978 2.616c-.538 1.44-1.015 2.617-1.06 2.617-.046 0-.524-1.177-1.062-2.617l-.978-2.616.398-2.188c.219-1.203.472-2.556.561-3.007l.164-.82h1.832l.164.82z" fill="#000"/></svg>