<svg width="99" height="84" fill="none" xmlns="http://www.w3.org/2000/svg"><circle cx="19" cy="19" r="19" fill="#F2C94C"/><path fill-rule="evenodd" clip-rule="evenodd" d="M52.333 5.333v1.334h-2.666v2.666h2.666V12H55V9.333h2.667V6.667H55V4h-2.667v1.333zm13.711 4.378c-5.181 5.181-5.71 5.761-5.71 6.257 0 .358.14.688.408.956.396.395.487.409 2.75.409 1.288 0 2.341.04 2.341.088 0 .194-1.09 2.229-1.852 3.459a27.066 27.066 0 01-3.543 4.578l-1.147 1.208H22.485l-.41.409-.408.409v48.514h-.925c-.759 0-.997.073-1.333.409-.386.385-.409.516-.409 2.272 0 1.025.091 2.172.203 2.549.27.915 1.65 2.296 2.566 2.567.53.156 9.032.202 37.262.202 41.249 0 37.541.127 38.852-1.331.928-1.031 1.117-1.708 1.117-3.987 0-1.756-.023-1.887-.41-2.272-.335-.336-.573-.41-1.333-.41h-.924V27.484l-.409-.409-.409-.41H84.841c-5.871 0-10.674-.044-10.674-.1 0-.054.219-.86.487-1.79.581-2.018 1.112-4.48 1.264-5.859.191-1.748-.218-1.583 3.934-1.583h3.663l.41-.41a1.33 1.33 0 00.408-.955c0-.496-.53-1.076-5.71-6.257C73.314 4.403 72.87 4 72.332 4c-.537 0-.981.403-6.289 5.71zM55 8v1.333h-2.667V6.667H55V8zm21.083 3l3.664 3.666h-2.614c-3.453 0-3.394-.043-3.72 2.75-1.54 13.162-9.3 24.285-21.017 30.13-4.22 2.104-7.773 3.149-13.146 3.864-1.1.147-2.206.307-2.458.357l-.459.091V37.206l1.792.084c3.408.162 7.538-.448 11.125-1.641 8.055-2.68 14.613-8.357 18.397-15.927 1.628-3.257 1.796-3.961 1.11-4.647-.38-.38-.525-.409-2.123-.409h-1.715L68.584 11c2.016-2.017 3.703-3.667 3.75-3.667.048 0 1.735 1.65 3.75 3.667zm12.25-.334V12H91V9.333h-2.667v1.333zM47 16v1.333h2.667v-2.667H47V16zm46.667 0v1.333H91v2.666h2.667v2.667h2.666v-2.667H99v-2.666h-2.667v-2.667h-2.666V16zm2.666 2.666V20h-2.666v-2.666h2.666v1.333zm-40.5 10.732c0 .122-2.403 1.557-3.662 2.186-4.736 2.37-10.495 3.456-15.56 2.937-1.88-.193-2.278-.126-2.73.463-.154.2-.205 2.517-.209 9.564l-.005 9.299.409.409c.225.225.558.409.74.409.713 0 7.849-1.034 9.267-1.342 7.479-1.627 14.708-5.593 20.171-11.067a41.042 41.042 0 007.706-10.715l1.105-2.209h20.602v46.666H91v-43.18l-.41-.41-.408-.409H75v2.667h13.333v41.332H29.667V34.666h2.666v-2.667h-2.257c-2.175 0-2.273.015-2.667.41l-.409.408v43.18h-2.667V29.333h15.75c8.663 0 15.75.03 15.75.066zm-18.166 10.6v1.334h2.666v-2.667h-2.666V40zm32.409.41l-.41.409v31.18h-5.333V51.484l-.409-.409-.409-.409h-9.03l-.41.41-.408.408v20.515h-5.334V58.15l-.409-.41-.409-.409h-9.03l-.41.41-.408.409v13.848h-5.334v2.666h53.334v-2.666h-5.334V40.817l-.409-.41-.409-.408h-9.03l-.41.409zm7.59 16.923v14.667h-5.333V42.665h5.334v14.666zM49.084 43.614c-2.108 1.27-4.785 2.257-7.562 2.786l-1.188.227v-2.628h-2.666v2.257c0 2.175.015 2.273.409 2.667.491.491.94.511 3.371.15 1.95-.29 4.024-.852 5.886-1.597 1.274-.51 4.084-2.04 4.255-2.319.101-.163-1.186-2.163-1.386-2.152-.065.003-.569.277-1.119.609zm12.584 19.05v9.334h-5.334V53.332h5.334v9.333zm-16 3.334v6h-5.334v-12h5.334v6zm50.666 13.59c0 .76-.073.998-.409 1.334l-.409.409h-73.03l-.41-.41c-.335-.335-.408-.574-.408-1.333v-.924h74.666v.924z" fill="#000"/></svg>