<svg width="72" height="92" fill="none" xmlns="http://www.w3.org/2000/svg"><circle cx="19" cy="19" r="19" fill="#F2C94C"/><path fill-rule="evenodd" clip-rule="evenodd" d="M37.239 12.271c-13.257 1.78-22.882 11.476-25.78 25.973-.258 1.285-.316 3.154-.382 12.184L11 61.094l.458.451c.602.593 1.43.598 2.024.013l.446-.438v-9.613c0-5.652.079-10.235.19-11.125.896-7.095 3.911-13.356 8.686-18.037 2.346-2.3 3.99-3.484 6.646-4.782 4.082-1.995 8.522-2.88 13.321-2.654 7.116.334 12.586 2.666 17.428 7.43 3.363 3.306 5.629 6.981 7.225 11.715 1.538 4.56 1.651 5.8 1.651 18.078V62.37l.446.438c.594.584 1.422.58 2.023-.011l.456-.45-.067-11.203c-.058-9.865-.105-11.406-.393-12.9-2.24-11.634-9.457-20.805-19.154-24.345-4.694-1.713-10.146-2.299-15.148-1.627zm.634 7.063c-3.554.4-7.367 1.86-10.068 3.852-2.701 1.994-5.536 5.22-6.706 7.632-1.122 2.314-1.224 2.937-1.317 8.06l-.084 4.652-.91.318c-1.917.67-3.198 2.484-3.366 4.766-.264 3.571 1.59 7.211 4.778 9.378.99.672 1.044.75 1.352 1.95 1.06 4.114 3.668 8.675 6.762 11.824l1.621 1.65-.294 1.716c-1.432 8.344-7.185 13.434-15.765 13.947-1.772.106-2.07.171-2.435.53-.57.562-.547 1.384.056 1.978.466.458.498.463 2.404.355 9.485-.54 15.949-5.642 18.185-14.357.294-1.145.56-2.109.593-2.14.032-.032.754.263 1.605.656 2.44 1.126 4.298 1.509 7.308 1.507 2.96-.002 4.634-.358 7.153-1.52 1.695-.781 1.72-.774 1.918.525.184 1.214 1.073 3.758 1.827 5.234 3.193 6.247 8.795 9.65 16.612 10.095 1.906.108 1.938.103 2.404-.355.603-.594.626-1.416.056-1.978-.364-.359-.663-.424-2.435-.53-8.549-.51-14.351-5.62-15.753-13.87l-.305-1.794 1.621-1.65c1.872-1.905 3.429-4.1 4.762-6.716.941-1.846 2.186-5.19 2.186-5.873 0-.242.383-.632 1.15-1.172 2.214-1.555 3.809-3.72 4.49-6.098.143-.5.255-1.68.254-2.679-.001-1.49-.072-1.94-.429-2.72-.535-1.168-1.705-2.245-2.889-2.66l-.91-.317-.083-4.652c-.094-5.216-.191-5.778-1.423-8.252-1.308-2.626-4.322-5.76-7.417-7.715-4.762-3.007-10.51-4.253-16.508-3.577zm6.224 2.854c.718.108 1.564.352 1.881.543.696.417 1.329 1.628 1.329 2.54 0 .838-.564 1.94-1.23 2.408-.471.33-.63.344-1.955.176-1.783-.227-5.285-.083-7.337.302-4.514.846-9.06 2.996-12.702 6.007-1.432 1.183-1.503 1.122-.91-.768 1.024-3.262 4.88-7.39 8.73-9.349 3.38-1.718 8.22-2.456 12.194-1.859zm7.31 2.34c2.529 1.24 5.669 3.985 7.168 6.268.77 1.174 1.364 2.605 1.546 3.727l.12.74-1.238-1.035c-2.516-2.1-6.116-4.148-8.794-5.001-.549-.175-1.027-.342-1.062-.372-.035-.03.169-.521.454-1.092.434-.87.517-1.262.517-2.422 0-.761.028-1.384.061-1.384.034 0 .586.257 1.228.571zm-5.461 6.478c4.831.999 9.164 3.332 12.73 6.856l1.692 1.672v2.935c0 2.878.008 2.943.445 3.373.314.309.645.438 1.122.438 1.1 0 2.162.612 2.498 1.44 1.08 2.66-.881 6.697-4.066 8.369-1.249.655-1.36.814-1.515 2.177-.27 2.37-2.284 6.725-4.383 9.478-6.357 8.339-16.227 9.454-23.543 2.66-3.195-2.967-6.38-8.674-6.775-12.138-.154-1.349-.287-1.551-1.376-2.095-1.221-.61-2.854-2.155-3.488-3.301-.982-1.775-1.264-3.804-.717-5.15.337-.828 1.398-1.44 2.498-1.44.477 0 .808-.13 1.122-.438.437-.43.445-.495.445-3.375V39.53l1.525-1.512c4.192-4.155 8.9-6.476 14.893-7.345 1.143-.165 5.5.045 6.893.333zm-16.88 8.661c-1.617.337-2.834.768-3.172 1.125-.466.493-.452 1.213.036 1.823.354.444.47.48 1.224.387a25.534 25.534 0 002.012-.374c1.407-.321 3.336-.355 4.19-.074.34.112.877.394 1.195.626.757.553 1.58.546 2.151-.017.97-.955.283-2.115-1.822-3.074-.955-.435-1.333-.5-3.084-.535-1.097-.022-2.326.03-2.73.113zm20.188.021c-.974.226-2.124.827-2.81 1.468-.727.68-.777 1.383-.143 2.007.572.563 1.394.57 2.151.017a5.22 5.22 0 011.195-.626c.854-.281 2.783-.247 4.19.074a25.92 25.92 0 002.012.374c.753.094.87.057 1.224-.387.488-.61.502-1.33.036-1.823-.914-.966-5.606-1.626-7.855-1.104zm-23.27 9.174c-.725.713-.603 1.389.437 2.413 2.764 2.72 6.945 2.805 9.671.195 1.246-1.192 1.354-1.71.526-2.525-.707-.695-1.102-.659-2.104.195-1.254 1.07-1.844 1.322-3.08 1.322-1.269-.001-2.206-.415-3.165-1.398-.778-.797-1.608-.87-2.286-.202zm20.43.024c-.9.745-.782 1.36.497 2.584 2.568 2.459 6.327 2.549 9.242.221 1.333-1.064 1.64-2.068.867-2.83-.678-.667-1.508-.594-2.286.203-.959.983-1.896 1.397-3.164 1.398-1.237 0-1.827-.253-3.081-1.322-.986-.84-1.32-.88-2.075-.254zm-30.451 12.44c-.181.217-1.31 6.881-1.31 7.734 0 .645.546.84 1.458.524.42-.146.904-.266 1.075-.266.198 0 .66.581 1.278 1.609 1.964 3.267 5.974 7.678 6.98 7.678.542 0 1.545-.866 1.545-1.335 0-.482-.477-1.231-1.045-1.643-.812-.588-3.231-3.502-4.541-5.47-.642-.963-1.137-1.776-1.1-1.806.035-.03.432-.173.881-.317 1.407-.45 1.292-.718-1.734-4.029-2.567-2.809-3.061-3.188-3.487-2.679zm47.59 2.68c-3.026 3.31-3.14 3.578-1.734 4.028.45.144.846.286.882.316.036.03-.46.844-1.1 1.807-1.282 1.925-3.5 4.602-4.65 5.614-.406.357-.792.86-.858 1.118-.226.89.845 1.885 1.782 1.654 1.016-.251 5.067-4.923 6.8-7.84.89-1.5.983-1.547 2.217-1.12.912.318 1.458.122 1.458-.523 0-.853-1.129-7.517-1.31-7.734-.425-.51-.92-.13-3.487 2.68zm-17.698.02c-1.594 1.065-2.67 1.404-4.444 1.402-1.693-.003-2.612-.288-4.184-1.296-1.334-.856-2.058-.922-2.606-.237-.207.26-.376.675-.376.924 0 .995 2.607 2.73 4.898 3.261 3.018.7 6.84-.215 8.879-2.125.853-.799.946-1.385.328-2.067-.699-.77-1.175-.743-2.495.138zm-34.384 6.98l-.446.44v15.39l.446.439c.28.276.652.438 1.005.438.354 0 .726-.162 1.006-.438l.446-.439V71.445l-.446-.438c-.28-.277-.652-.439-1.005-.439-.354 0-.726.162-1.006.439zm58.05 0l-.446.44v15.39l.446.439c.28.276.652.438 1.006.438.353 0 .725-.162 1.005-.438l.446-.439V71.445l-.445-.438c-.281-.277-.653-.439-1.006-.439-.354 0-.726.162-1.006.439z" fill="#000"/></svg>