<svg width="74" height="92" fill="none" xmlns="http://www.w3.org/2000/svg"><circle cx="19" cy="19" r="19" fill="#F2C94C"/><path fill-rule="evenodd" clip-rule="evenodd" d="M42.265 12.253c-1.17.387-1.737.77-4.398 2.975-2.542 2.106-2.949 2.4-3.639 2.634-.28.095-2.037.32-3.906.5-1.869.182-3.75.442-4.18.58-2.005.643-3.573 2.209-4.192 4.186-.134.43-.392 2.31-.573 4.18-.18 1.868-.406 3.626-.5 3.906-.235.691-.528 1.095-2.662 3.672-1.014 1.224-2.047 2.545-2.294 2.935-1.08 1.704-1.224 4.064-.358 5.908.275.585 1.327 2.032 2.689 3.696 1.23 1.504 2.362 3.016 2.514 3.36.187.424.382 1.728.606 4.062.367 3.82.548 4.645 1.264 5.772 1.296 2.04 2.776 2.797 6.123 3.133 1.201.12 2.2.24 2.218.266.019.026-1.9 4.653-4.262 10.282-2.681 6.388-4.298 10.433-4.301 10.762-.007.65.768 1.425 1.427 1.426.235 0 2.069-.462 4.075-1.027 2.006-.564 3.735-.993 3.842-.952.106.04.993 1.54 1.97 3.331.976 1.791 1.975 3.459 2.22 3.706.387.391.527.438 1.085.363.352-.047.768-.214.924-.37.156-.158 2.327-5.173 4.825-11.145 3.652-8.735 4.623-10.92 4.964-11.172.232-.172 1.514-1.216 2.847-2.32 2.348-1.943 3.492-2.676 4.02-2.573.174.034 1.517 3.065 4.276 9.659 2.212 5.285 4.003 9.629 3.98 9.653-.025.024-1.301-.318-2.838-.76-4.687-1.35-4.745-1.328-6.935 2.727-.816 1.51-1.527 2.749-1.579 2.75-.052.003-.962-2.076-2.023-4.618-1.195-2.864-2.05-4.706-2.245-4.843-.758-.531-1.81-.034-1.81.856 0 .248 1.023 2.903 2.273 5.898 2.38 5.705 2.723 6.305 3.597 6.305.927 0 1.187-.323 3.19-3.971 1.065-1.94 2.026-3.529 2.136-3.529.11 0 1.817.457 3.793 1.016 1.976.559 3.811 1.016 4.08 1.016.66 0 1.4-.738 1.4-1.397 0-.28-1.81-4.804-4.296-10.742-2.363-5.642-4.271-10.284-4.24-10.315.032-.032.998-.157 2.148-.278 2.935-.31 4.149-.796 5.408-2.162 1.302-1.412 1.542-2.21 1.985-6.604.272-2.7.443-3.78.68-4.296.173-.38 1.28-1.851 2.458-3.269 2.931-3.526 3.486-4.798 3.163-7.255-.194-1.477-.701-2.331-3.163-5.323-1.273-1.547-2.416-3.056-2.541-3.355-.126-.297-.396-2.211-.602-4.253-.375-3.725-.54-4.471-1.24-5.595-.794-1.274-2.188-2.337-3.588-2.735-.43-.122-2.328-.37-4.218-.553-2.304-.223-3.644-.422-4.063-.606-.344-.15-1.668-1.133-2.944-2.184-3.832-3.16-4.352-3.447-6.431-3.55-.946-.048-1.471.01-2.16.237zm3.613 2.5c.349.178 1.676 1.184 2.95 2.235 2.84 2.346 3.599 2.865 4.623 3.17.44.13 2.315.379 4.167.553 3.677.345 4.43.536 5.337 1.355 1.049.949 1.198 1.466 1.617 5.617.502 4.984.414 4.776 3.688 8.726 1.14 1.375 2.2 2.782 2.357 3.125.326.717.376 2.024.111 2.91-.099.33-.714 1.26-1.367 2.067l-2.459 3.033c-1.749 2.155-1.879 2.548-2.325 7.042-.318 3.2-.413 3.748-.778 4.493-.838 1.713-1.632 2.03-6.247 2.488-4.44.441-4.842.575-6.993 2.32l-3.033 2.46c-1.578 1.277-2.193 1.547-3.523 1.547-1.2 0-1.815-.36-4.813-2.82-1.418-1.164-2.777-2.241-3.02-2.393-.892-.562-1.827-.754-5.485-1.125-4.143-.421-4.659-.57-5.604-1.616-.82-.907-1.01-1.66-1.355-5.336-.174-1.853-.423-3.728-.554-4.168-.304-1.024-.824-1.782-3.17-4.623-2.068-2.506-2.487-3.179-2.63-4.223-.192-1.398.21-2.19 2.568-5.063 1.18-1.44 2.31-2.848 2.508-3.129.682-.965.925-2.037 1.267-5.582.183-1.891.44-3.772.572-4.18.318-.984 1.382-2.046 2.363-2.362.409-.131 2.289-.388 4.178-.571 3.536-.342 4.612-.586 5.585-1.265.281-.196 1.665-1.307 3.076-2.468 2.846-2.342 3.58-2.728 4.954-2.61.44.038 1.086.215 1.435.393zm-3.78 7.965c-1.254.192-1.707 1.081-1.005 1.973l.341.434 1.483-.098c7.896-.518 14.903 4.54 16.919 12.214.451 1.717.556 4.693.23 6.557-1.22 6.99-6.67 12.298-13.68 13.323-1.68.245-4.547.103-6.118-.304-8.877-2.301-14.144-11.388-11.63-20.064 1.295-4.468 4.285-8.055 8.476-10.167 1.204-.607 1.473-1.34.755-2.059-.49-.49-.988-.484-2.005.025-4.987 2.496-8.645 7.29-9.891 12.963-.382 1.736-.38 5.456.001 7.254 1.38 6.492 6.082 11.845 12.2 13.89 3.758 1.255 8.12 1.284 11.726.079 5.717-1.912 10.074-6.335 11.913-12.094 1.292-4.045 1.045-8.909-.65-12.83-2.338-5.408-7.288-9.49-13.067-10.776-1.463-.325-4.801-.503-5.998-.32zm7.873 10.188c-.514.232-1.933 1.544-5.268 4.87l-4.564 4.552-1.612-1.568c-1.313-1.277-1.767-1.62-2.446-1.845-1.783-.593-3.751.282-4.461 1.982-.311.744-.312 2.155 0 2.898.291.7 5.787 6.293 6.71 6.83.91.529 1.772.624 2.846.315.884-.254 1.038-.394 7.042-6.38 4.15-4.139 6.241-6.334 6.458-6.78.425-.878.425-2.299.002-3.13-.903-1.77-2.962-2.532-4.707-1.744zm2.273 2.403c.252.252.383.56.383.899 0 .47-.528 1.043-6.003 6.517-5.36 5.36-6.056 6.002-6.496 6.002-.431 0-.863-.37-3.45-2.954-3.025-3.022-3.172-3.23-2.86-4.044.142-.371.954-.744 1.356-.623.19.057 1.264 1.01 2.388 2.117 1.798 1.772 2.107 2.014 2.566 2.014.477 0 .972-.448 5.7-5.156 5.608-5.584 5.606-5.582 6.415-4.772zM34.545 64.51c.277.117 1.769 1.253 3.316 2.526 3.004 2.471 3.837 2.964 5.361 3.173.532.073 1.003.168 1.047.212.086.086-7.203 17.62-7.413 17.834-.069.07-.771-1.055-1.56-2.5-.79-1.445-1.669-2.849-1.954-3.118-.866-.821-1.32-.805-4.771.168-1.672.472-3.066.83-3.099.799-.032-.033 1.754-4.39 3.969-9.682 4.345-10.382 4.057-9.852 5.104-9.412z" fill="#000"/></svg>