<svg width="99" height="88" fill="none" xmlns="http://www.w3.org/2000/svg"><circle cx="19" cy="19" r="19" fill="#F2C94C"/><path fill-rule="evenodd" clip-rule="evenodd" d="M25 16.226c-2.834.692-5.223 3.17-5.817 6.033-.244 1.177-.244 58.297 0 59.475.61 2.945 3.117 5.467 6.044 6.082 1.173.245 66.373.245 67.545 0 2.928-.615 5.434-3.137 6.045-6.082.244-1.178.244-58.297 0-59.475-.61-2.946-3.117-5.468-6.044-6.082-1.266-.266-66.677-.218-67.772.05zm68.061 3.33c1.04.484 1.797 1.222 2.29 2.234l.436.893v58.626l-.329.716c-.48 1.045-1.214 1.807-2.22 2.304l-.887.438H25.65l-.888-.438c-1.006-.497-1.74-1.259-2.22-2.304l-.33-.716-.047-28.841c-.034-20.533.002-29.074.124-29.647.339-1.59 1.453-2.837 3.022-3.384.767-.268 2.452-.28 33.923-.247l33.117.035.71.331zm-65.754 4.21c-.825.46-.787-.593-.793 21.912-.006 22.776-.052 21.592.85 22.005.593.272 62.679.272 63.273 0 .9-.413.855.766.855-21.974 0-22.74.045-21.56-.855-21.974-.307-.14-3.498-.188-12.673-.188-13.314 0-12.909-.026-13.31.86-.365.807-.102 1.686.617 2.06.361.188 2.26.224 11.763.224h11.333v21.061h-2.256c-2.762 0-2.726-.023-3.78 2.426-.407.946-.76 1.653-.784 1.572l-1.451-4.548c-1.549-4.846-1.692-5.108-2.794-5.108-.32 0-.726.102-.904.228-.177.125-1.08 1.504-2.007 3.065l-1.684 2.837H70.55c-2.02 0-2.184.023-2.548.354-.228.207-.789 1.317-1.354 2.68-.531 1.28-.999 2.293-1.039 2.253-.04-.04-1.184-4.932-2.54-10.87-2.228-9.747-2.508-10.837-2.878-11.21-.319-.32-.554-.409-1.05-.395-1.192.031-1.15-.069-3.783 9.098l-2.392 8.326-3.07.078c-3.69.095-3.51-.006-4.16 2.335-.244.886-.474 1.64-.508 1.674-.035.035-1.077-2.957-2.317-6.648-1.516-4.517-2.365-6.826-2.597-7.06-.522-.528-1.117-.618-1.755-.267-.501.276-.715.681-2.69 5.094l-2.145 4.794-2.045.044-2.045.043V26.691H40.95c8.442 0 11.422-.048 11.728-.188.448-.205.855-.864.855-1.384 0-.52-.407-1.178-.855-1.384-.628-.287-24.853-.258-25.371.032zm30.93 0c-1.355.756-.788 2.925.763 2.925.791 0 1.562-.768 1.562-1.556 0-1.18-1.296-1.943-2.326-1.368zm3.176 25.637c1.26 5.532 2.39 10.212 2.511 10.399.12.186.469.422.773.523.468.155.644.14 1.138-.104.567-.279.64-.42 2.375-4.57L70 51.367l1.803-.008c2.62-.013 2.668-.04 3.972-2.178l1.094-1.793.43 1.322c.235.727.939 2.913 1.563 4.858 1.278 3.984 1.433 4.244 2.533 4.244.97 0 1.189-.312 2.743-3.901l1.304-3.015h2.925v13.831H29.633V51.682h2.803c2.685 0 2.82-.015 3.2-.354.33-.292 1.744-3.22 3.17-6.561l.235-.549 2.481 7.386c2.693 8.017 2.73 8.094 3.829 8.094.703 0 1.095-.217 1.363-.752.117-.235.62-1.961 1.118-3.836l.905-3.41 2.934-.048c2.69-.045 2.97-.076 3.374-.378.398-.298.603-.892 2.15-6.248.94-3.256 1.759-5.866 1.818-5.8.06.064 1.14 4.644 2.4 10.177zm10.162 22.062a5.29 5.29 0 00-3.354 2.771c-.309.64-.38 1.036-.384 2.122-.005 1.225.039 1.419.525 2.327.592 1.103 1.082 1.579 2.259 2.194.68.356.993.417 2.125.417 1.133 0 1.446-.06 2.126-.417 1.177-.615 1.667-1.091 2.258-2.194.486-.907.53-1.103.528-2.327-.003-1.135-.066-1.456-.418-2.138-.609-1.18-1.086-1.68-2.142-2.245-1.007-.54-2.559-.765-3.523-.51zm13.746 0a5.291 5.291 0 00-3.354 2.771c-.308.64-.38 1.036-.384 2.122-.004 1.225.04 1.419.526 2.327.59 1.103 1.081 1.579 2.258 2.194.68.356.993.417 2.126.417 1.132 0 1.445-.06 2.125-.417 1.178-.615 1.668-1.091 2.259-2.194.486-.907.53-1.103.527-2.327-.003-1.135-.066-1.456-.418-2.138-.609-1.18-1.086-1.68-2.142-2.245-1.007-.54-2.558-.765-3.523-.51zM74.06 75.092c.41.413.483.604.483 1.266 0 .671-.071.852-.51 1.294-.44.442-.62.514-1.287.514-.667 0-.846-.072-1.285-.514-.438-.44-.511-.624-.511-1.284 0-.808.398-1.447 1.093-1.754.584-.258 1.5-.04 2.017.478zm13.746 0c.41.413.483.604.483 1.266 0 .671-.07.852-.51 1.294-.44.442-.62.514-1.286.514-.667 0-.846-.072-1.286-.514-.438-.44-.51-.624-.51-1.284 0-.808.398-1.447 1.093-1.754.584-.258 1.5-.04 2.016.478zm-60.5-.086c-1.046.584-1.012 2.246.057 2.736.642.294 9.797.262 10.37-.036 1.04-.541 1.04-2.154 0-2.696-.606-.315-9.862-.319-10.426-.004zm19.326.231c-.44.395-.512.562-.497 1.137.014.548.11.758.515 1.121l.497.447 5.08-.045 5.082-.046.377-.44a1.53 1.53 0 00.377-1.053c0-.42-.119-.75-.377-1.052l-.377-.44-5.081-.046-5.081-.046-.515.463z" fill="#000"/></svg>