<svg width="80" height="91" fill="none" xmlns="http://www.w3.org/2000/svg"><path fill-rule="evenodd" clip-rule="evenodd" d="M39.916.433L39.48.87v15.424l.443.416c.576.542 1.382.542 1.958 0l.443-.416V.87l-.436-.436c-.578-.577-1.395-.577-1.972 0zM28.717 7.901l-.436.437v7.955l.443.416c.576.542 1.382.542 1.958 0l.443-.416V8.338l-.436-.437c-.275-.275-.64-.436-.986-.436s-.71.16-.986.436zm22.398 0l-.436.437.005 3.964c.006 4.258.036 4.408.94 4.753.548.207.938.103 1.499-.402.392-.353.4-.438.4-4.338V8.338l-.437-.437c-.275-.275-.64-.436-.985-.436-.347 0-.711.16-.986.436zM37.347 20.174c-6.79 1.152-12.762 5.585-15.807 11.734-1.562 3.153-2.213 5.977-2.215 9.607-.004 5.76 1.974 10.76 5.88 14.87 7.326 7.705 18.896 8.965 27.873 3.035.685-.452 2.056-1.625 3.047-2.607 3.269-3.237 5.255-7.014 6.129-11.653.281-1.494.28-5.811-.002-7.264C60.68 29.79 55.285 23.525 47.69 20.98c-3.024-1.014-7.2-1.34-10.342-.806zm6.677 2.948c3.997.713 7.457 2.568 10.312 5.53 2.263 2.35 3.79 5.074 4.649 8.292.404 1.516.46 2.073.46 4.571 0 2.517-.055 3.05-.473 4.62-2.386 8.958-10.577 14.72-19.814 13.94-9.81-.83-17.382-9.554-16.868-19.436.445-8.562 6.494-15.599 14.968-17.41 1.472-.315 5.264-.374 6.766-.107zm-3.922 4.463c-.625.341-.8.727-.8 1.76v1.009l-.787.3c-2.288.875-4.013 3.41-4.013 5.899 0 1.897 1.242 4.202 2.803 5.2 1.174.753 1.705.932 3.3 1.118 1.579.183 2.193.445 2.838 1.212 1.867 2.22.348 5.523-2.541 5.523-1.786 0-3.067-1.155-3.364-3.033-.262-1.663-1.492-2.273-2.516-1.248-.601.6-.644 1.055-.247 2.599.489 1.902 2.157 3.744 3.95 4.362.556.192.577.234.577 1.172 0 1.177.175 1.542.882 1.835.434.18.646.18 1.08 0 .698-.29.882-.658.882-1.77 0-.705.07-.928.311-1.008 3.477-1.146 5.432-4.429 4.591-7.71-.7-2.736-2.674-4.44-5.566-4.806-1.728-.22-1.956-.29-2.688-.84-2.189-1.64-1.379-5.176 1.352-5.902 1.953-.52 4.116 1.135 4.13 3.16.004.745.827 1.631 1.514 1.631.646 0 1.511-.887 1.511-1.55 0-.976-.55-2.635-1.176-3.552-.763-1.117-1.579-1.764-2.898-2.3l-.992-.401-.048-.855c-.06-1.049-.302-1.555-.869-1.813-.533-.243-.76-.242-1.216.008zM1.11 61.314c-.206.206-.413.556-.46.778-.191.891-.784 26.504-.624 26.926.314.826.881.904 7.545 1.04l6.221.127.418-.45c.275-.296.457-.766.533-1.378l.116-.928 2.045-1.061c3.035-1.575 2.368-1.651 13.872 1.595 5.234 1.478 10.188 2.785 11.007 2.904 1.619.237 4.603.147 6.228-.188 2.954-.61 4.082-1.152 9.025-4.34C75.231 74.603 79.087 72.09 79.52 71.687c.66-.614.64-1.344-.064-2.407-.7-1.059-1.76-1.929-3.103-2.547-1.377-.634-3.828-.79-5.204-.333-.495.164-3.602 1.578-6.907 3.143-5.332 2.525-6.029 2.811-6.186 2.543-1.335-2.267-3.793-3.985-6.472-4.523-.449-.09-3.667-.248-7.151-.35-7.304-.214-7.887-.31-10.807-1.776-3.667-1.84-6.295-2.425-10.204-2.27-2.585.103-4.155.444-6.648 1.445l-1.519.61.105-1.254c.135-1.61-.136-2.335-.972-2.596-.33-.104-3.34-.241-6.75-.31-6.097-.12-6.157-.118-6.527.252zm11.259 2.919c.012.023-.116 4.843-.286 10.71-.17 5.868-.315 11.022-.322 11.453l-.013.784-4.39-.123c-2.415-.067-4.407-.14-4.427-.161-.028-.03.594-22.59.63-22.872.01-.074 8.766.133 8.808.209zm16.055 2.37c.985.246 2.64.882 4.089 1.57 3.408 1.621 3.808 1.706 8.921 1.9 9.61.364 9.945.391 11.052.904 1.363.631 2.515 1.737 3.164 3.035.855 1.712 1.006 1.625-2.617 1.493a742.08 742.08 0 00-8.31-.23c-5.006-.11-5.168-.103-5.596.248-.601.493-.626 1.709-.043 2.18.528.428 1.35.482 11.14.724l8.169.203.514-.575c.473-.53.51-.668.453-1.716L59.3 75.2l6.171-2.926c3.394-1.61 6.52-3.004 6.946-3.1.427-.096 1.09-.125 1.473-.066.834.13 2.433.897 2.353 1.13-.062.182-24.208 15.842-25.24 16.37-.36.183-1.36.548-2.222.812-1.43.436-1.828.478-4.502.48l-2.933.003-9.51-2.72c-11.918-3.41-12.312-3.456-15.58-1.84-.716.355-1.332.61-1.367.568-.087-.101.341-15.087.433-15.174.314-.297 2.654-1.433 3.654-1.773 3.069-1.044 6.232-1.165 9.45-.36z" fill="#000"/></svg>