<svg width="48" height="48" fill="none" xmlns="http://www.w3.org/2000/svg"><path fill-rule="evenodd" clip-rule="evenodd" d="M13.401.14c-1.673.229-3.536.814-4.994 1.567-.847.437-1.1.71-1.1 1.189 0 .44.199.716.613.852.31.103.398.077 1.523-.454 1.241-.587 2.57-1.026 3.77-1.246 1.14-.208 3.77-.16 4.94.09 2.756.59 4.849 1.735 6.876 3.763 2.027 2.026 3.169 4.112 3.764 6.876.297 1.376.297 4.003 0 5.379-1.163 5.398-5.244 9.48-10.64 10.64-1.386.298-4.012.299-5.379.002-1.89-.41-3.736-1.22-5.214-2.282-.422-.304-.874-.581-1.003-.615-.147-.04-.72.063-1.544.277-.721.186-1.326.324-1.344.306-.019-.018.205-.564.496-1.213.377-.84.512-1.24.466-1.39-.034-.117-.264-.528-.51-.915a14.511 14.511 0 01-1.987-4.81c-.297-1.376-.297-4.003 0-5.38.264-1.222.67-2.37 1.247-3.519.252-.502.458-.978.458-1.06 0-.291-.3-.717-.592-.839-.686-.287-1.071.042-1.756 1.499C.22 11.567-.255 14.549.13 17.437c.294 2.21 1.093 4.471 2.18 6.174l.323.504-.804 1.765c-.909 2-.965 2.282-.529 2.719.167.166.373.274.525.274.138 0 1.168-.237 2.289-.527l2.037-.527.461.329c1.326.945 3.188 1.804 4.93 2.272 1.652.444 3.984.626 5.535.432l.535-.067.027 4.552c.027 4.483.031 4.559.24 5.067a4.078 4.078 0 002.272 2.272l.516.212 7.082.026 7.082.027 3.02 2.471c1.661 1.36 3.087 2.498 3.168 2.529.408.156.968-.066 1.145-.456.077-.168.112-.927.112-2.388v-2.141l1.336-.042c1.085-.034 1.433-.08 1.852-.246 1.044-.414 1.834-1.202 2.272-2.264l.212-.516V19.92l-.212-.515a4.078 4.078 0 00-2.272-2.272l-.516-.213-7.031-.026-7.031-.026.032-1.005c.105-3.217-.953-6.69-2.849-9.349C24.746 1.853 19.026-.633 13.401.14zM4.796 4.356c-.874.38-.581 1.734.375 1.734.806 0 1.232-.973.67-1.534-.135-.136-.3-.247-.367-.247a.897.897 0 01-.245-.043c-.068-.024-.263.017-.433.09zM14.995 8.13c-.493.246-.551.532-.557 2.76l-.006 1.94-1.873.028-1.873.03-.257.257c-.384.384-.364.932.046 1.299l.304.271h1.78c2.049 0 1.899-.097 1.587 1.027a8.971 8.971 0 01-3.756 5.099c-.867.565-1.094.878-.976 1.35.132.528.729.868 1.207.686 1.399-.532 3.782-2.967 4.615-4.715l.167-.35.368.678c.785 1.45 2.22 3.021 3.537 3.873.895.579 1.116.647 1.53.475.465-.195.681-.63.542-1.095-.087-.29-.232-.43-.865-.842-1.401-.91-2.506-2.123-3.201-3.514-.363-.726-.819-2.086-.819-2.442v-.23h2.152c1.347 0 2.235-.038 2.375-.101.123-.056.294-.221.38-.367.243-.413.196-.728-.163-1.088l-.319-.319h-4.612v-2.11c0-2.335-.03-2.469-.583-2.662-.367-.128-.343-.13-.73.064zm30.144 10.946c.333.206.528.42.719.784l.262.502-.002 9.528c-.002 9.041-.011 9.548-.174 9.904-.22.477-.612.87-1.09 1.089-.318.146-.626.172-2.034.174-1.083.001-1.745.041-1.906.114-.449.205-.513.483-.513 2.227 0 .88-.023 1.599-.052 1.599-.028 0-1.073-.837-2.32-1.86-1.248-1.023-2.36-1.909-2.473-1.969-.15-.08-2.087-.109-7.325-.109h-7.12l-.502-.262a1.816 1.816 0 01-.785-.719l-.282-.457-.026-4.605-.026-4.604.823-.264c3.164-1.015 6.097-3.26 8.04-6.151.91-1.358 1.852-3.517 2.155-4.947l.065-.307 7.054.025 7.055.026.457.282zM32.317 23.6c-.2.124-.44.576-1.078 2.03-.452 1.03-1.16 2.634-1.572 3.565l-.75 1.694-.39.029c-.557.04-.876.377-.876.926 0 .316.055.468.236.648l.235.236-.526 1.19c-.289.654-.562 1.311-.607 1.459-.104.346.09.831.422 1.048.285.187.824.137 1.086-.1.092-.083.495-.907.896-1.832l.73-1.682h5.369l.73 1.682c.401.925.804 1.749.896 1.832.262.237.801.287 1.086.1.331-.217.526-.702.422-1.048-.045-.148-.318-.805-.607-1.46l-.526-1.19.235-.235c.18-.18.236-.332.236-.648 0-.549-.319-.886-.875-.926l-.39-.029-.75-1.694c-.413-.931-1.121-2.537-1.573-3.567-.668-1.52-.874-1.903-1.093-2.032-.34-.2-.638-.2-.966.004zm1.406 5.203c.478 1.096.868 2.024.867 2.063 0 .039-.803.07-1.783.07-.98 0-1.781-.031-1.782-.07-.002-.113 1.73-4.054 1.782-4.054.026 0 .438.896.916 1.991z" fill="#000"/></svg>