<svg width="48" height="48" fill="none" xmlns="http://www.w3.org/2000/svg"><path fill-rule="evenodd" clip-rule="evenodd" d="M.422.12A1.18 1.18 0 00.12.373C.031.49.005 4.732.003 19.517L0 38.512l.194.246.194.247 9.11.024 9.111.024.026 1.898.025 1.899h-1.478c-1.631 0-1.938.055-2.575.46-1.16.735-1.351 2.514-.38 3.52.193.199.541.45.773.558.418.195.492.196 9 .196 8.511 0 8.581-.002 9-.196 1.788-.833 1.886-3.266.169-4.216-.489-.27-.524-.275-2.163-.308l-1.666-.033.025-1.889.026-1.89 9.11-.023 9.111-.024.194-.247.194-.246-.003-18.995C47.995 4.733 47.969.489 47.88.373a1.17 1.17 0 00-.32-.258C47.269-.041.695-.037.423.119zM46.5 10.224v8.718h-3.147c-2 0-3.213.036-3.329.098-.1.053-.406.432-.68.84l-.497.744-2.793-6.982c-2.904-7.263-2.948-7.356-3.478-7.356a.727.727 0 00-.401.164c-.108.094-1.188 2.553-2.51 5.719-1.276 3.055-2.348 5.555-2.38 5.555-.033 0-.641-1.403-1.352-3.118-.716-1.729-1.376-3.19-1.482-3.28a.746.746 0 00-.875-.033c-.117.083-1.174 2.509-2.857 6.56-1.47 3.536-2.694 6.43-2.72 6.431-.027.001-.298-.958-.603-2.13-.79-3.042-.82-3.108-1.367-3.115-.467-.006-.619.22-1.087 1.614-.259.771-.465 1.257-.487 1.149l-1.327-6.79c-1.234-6.32-1.3-6.613-1.542-6.82-.139-.12-.332-.218-.43-.218-.463 0-.612.313-2.634 5.53-1.089 2.811-2.019 5.184-2.067 5.274-.08.15-.298.164-2.52.164H1.5V1.505h45v8.72zm-11.156 5.578c1.459 3.66 2.738 6.751 2.842 6.867.271.3.714.28 1.019-.047.131-.142.541-.712.91-1.267l.672-1.01 2.88.026 2.88.024.024 5.883.024 5.883H1.5V20.35l2.836-.003c2.284-.003 2.87-.029 3.01-.135.13-.098 2.528-6.058 3.468-8.618.036-.098.084-.16.105-.137.023.022.636 3.088 1.362 6.815.727 3.726 1.346 6.837 1.376 6.914.082.214.562.425.82.36.366-.092.474-.29.954-1.75.25-.759.48-1.35.514-1.312.033.038.3.997.594 2.131.294 1.135.557 2.138.583 2.23.134.462.73.676 1.12.403.125-.088 1.145-2.424 2.946-6.75 1.516-3.64 2.78-6.617 2.81-6.617.029 0 .642 1.418 1.362 3.15.805 1.937 1.382 3.202 1.496 3.282.255.179.647.164.877-.034.111-.095 1.168-2.499 2.515-5.718 1.277-3.054 2.35-5.522 2.383-5.484.033.038 1.254 3.065 2.713 6.726zm11.188 18.773c.034.503.061 1.389.061 1.969V37.6H1.5v-3.938h44.972l.06.914zM27.916 40.95l.025 1.899h-7.879v-1.86c0-1.022.03-1.888.064-1.923.035-.035 1.796-.052 3.914-.039l3.85.025.026 1.898zm4.681 3.54c.11.077.25.286.308.465.133.401-.07.904-.43 1.068-.333.152-16.617.152-16.95 0-.352-.16-.566-.673-.436-1.047.231-.668-.42-.623 8.914-.625 7.319-.002 8.419.016 8.594.139z" fill="#000"/></svg>