<svg width="34" height="46" fill="none" xmlns="http://www.w3.org/2000/svg"><path fill-rule="evenodd" clip-rule="evenodd" d="M.194.247L0 .494v44.387l.194.247.195.247H33.36l.195-.247.194-.247V.494l-.194-.247L33.36 0H.39L.194.247zm32.243 22.44v21.375H1.313V1.314h31.126v21.375zM13.965 8.19c-.147.073-.611.868-1.462 2.498l-1.246 2.391-2.824.047-2.824.047-.179.221c-.231.286-.228.62.008.857.18.18.313.188 3.322.188h3.134l.178-.227c.098-.125.575-.989 1.06-1.92.484-.93.906-1.662.938-1.625.032.038.533 1.777 1.115 3.865.58 2.088 1.112 3.933 1.18 4.098.133.324.446.465.79.356.146-.046.615-.898 1.81-3.29.887-1.774 1.635-3.226 1.662-3.226.027 0 .28.345.563.766.283.422.613.886.733 1.032l.22.264h3.033c3.028 0 3.033 0 3.179-.208.186-.265.186-.537 0-.802-.145-.207-.162-.209-2.845-.209h-2.7l-.917-1.35c-.526-.775-1.014-1.394-1.146-1.454-.512-.233-.622-.078-2.192 3.086l-1.465 2.953-.194-.656c-.107-.361-.6-2.133-1.095-3.938-.495-1.805-.937-3.37-.983-3.48-.114-.273-.572-.426-.853-.284zm-9.551 15.4c-.256.324-.246.554.035.835l.23.23h24.392l.23-.23c.281-.281.291-.51.036-.835l-.194-.247H4.607l-.194.247zm.035 6.452c-.127.126-.23.318-.23.426 0 .108.103.3.23.426l.23.23h24.392l.23-.23c.127-.127.23-.318.23-.426 0-.108-.103-.3-.23-.426l-.23-.23H4.679l-.23.23zm0 6.468c-.289.29-.294.615-.013.879l.217.204h24.49l.194-.247c.255-.325.245-.555-.036-.836l-.23-.23H4.679l-.23.23z" fill="#000"/></svg>