<svg width="44" height="48" fill="none" xmlns="http://www.w3.org/2000/svg"><path fill-rule="evenodd" clip-rule="evenodd" d="M19.968.088C14.128.74 9.215 5.11 7.89 10.828c-.319 1.374-.39 2.49-.39 6.059 0 3.782.03 4.036.591 4.774.168.222.52.53.783.684l.478.281.04.89c.047 1.06.245 1.576.826 2.157.551.551 1.104.774 2.044.826l.778.042.242.48c.324.642.713 1.212 1.265 1.859l.458.535L14.21 31l-.794 1.585-2.7.91c-3.55 1.193-4.603 1.761-6.328 3.413C2.055 39.143.636 41.92.14 45.22c-.077.516-.14 1.2-.141 1.522 0 .514.033.622.273.89l.274.307 20.958.024 20.959.024.3-.268c.26-.233.305-.342.34-.827.022-.307-.028-1.025-.112-1.595-.492-3.357-1.9-6.133-4.257-8.389-1.725-1.652-2.779-2.22-6.327-3.414l-2.701-.909L28.913 31l-.794-1.585.457-.535a10.321 10.321 0 002.305-4.848c.087-.464.177-.934.2-1.045.04-.19.104-.203 1.238-.237.966-.029 1.28-.074 1.632-.234.555-.253 1.167-.864 1.425-1.423.193-.416.203-.587.232-3.904.018-2.104-.011-3.875-.075-4.5-.333-3.292-1.655-6.115-3.967-8.473A13.988 13.988 0 0019.968.088zm3.888 2.008c2.53.528 4.513 1.589 6.29 3.367 1.96 1.96 3.129 4.322 3.494 7.062l.078.586h-1.806l-.12-.955C31.261 7.9 28.144 4.61 23.95 3.878c-1.09-.19-3.684-.19-4.775 0-4.195.732-7.311 4.021-7.842 8.278l-.12.955h-.91c-.816 0-.907-.017-.878-.165.018-.09.081-.501.141-.913.227-1.56.886-3.223 1.88-4.745.687-1.05 2.25-2.638 3.252-3.303 1.445-.958 3.322-1.711 4.802-1.927.387-.057.809-.121.938-.144.489-.085 2.703.032 3.42.182zm-.123 3.65c1.386.27 2.372.727 3.464 1.604 1.685 1.353 2.657 3.329 2.776 5.647l.055 1.058-.413-.06c-1.114-.16-2.768-.535-3.516-.798-1.827-.64-3.816-1.797-5.1-2.965-.859-.782-1.013-.871-1.497-.871-.948 0-2.619.41-3.511.862a9.17 9.17 0 00-2.203 1.582l-.602.603.062-.448c.16-1.167.847-2.629 1.74-3.702 1.043-1.253 2.75-2.224 4.465-2.54.77-.142 3.504-.125 4.28.027zm-3.978 5.888c2.498 2.22 5.553 3.6 9.153 4.14.508.076.946.16.973.187.072.071-.14 2.77-.353 4.498-.507 4.122-.932 5.43-2.312 7.133-.896 1.104-2.405 2.086-3.78 2.46-.847.23-2.901.23-3.75 0-1.477-.402-3.034-1.467-4-2.738-.275-.36-.5-.687-.5-.726 0-.04.412-.07.915-.068l.914.003.281.486c.348.6.93 1.053 1.606 1.25.796.231 3.202.157 3.799-.117.557-.256 1.168-.867 1.423-1.424.277-.605.277-1.672 0-2.278-.255-.556-.866-1.168-1.423-1.423-.597-.274-3.003-.348-3.799-.117a2.748 2.748 0 00-1.606 1.25l-.28.486-1.384.003c-.76.001-1.383-.029-1.383-.067 0-.04-.061-.366-.137-.727-.332-1.596-.747-5.073-.855-7.176l-.06-1.168.747-.987c.41-.543 1.028-1.245 1.372-1.56 1.023-.937 2.461-1.57 3.876-1.707.062-.006.316.168.563.387zm-8.471 3.797c.028.245.078.952.11 1.57.031.619.117 1.674.19 2.344.073.67.133 1.297.133 1.392.001.158-.074.17-.888.14-.825-.03-.907-.05-1.148-.292l-.26-.26-.027-2.67-.028-2.67h1.866l.052.446zm22.446 2.225l-.027 2.67-.26.26c-.241.24-.324.261-1.149.292-.813.03-.888.017-.887-.141 0-.095.06-.722.134-1.392.073-.67.158-1.746.19-2.39.03-.645.078-1.352.106-1.571l.049-.398h1.872l-.028 2.67zm-21.688 5.322c.026.116.092.477.148.802.056.326.127.66.159.742.09.234-.531.074-.815-.21-.192-.191-.238-.343-.269-.888l-.037-.657h.384c.322 0 .391.034.43.21zm10.149 1.968c.386.387.364.932-.055 1.306l-.312.279-1.254-.03c-1.2-.03-1.265-.041-1.494-.27-.343-.344-.398-.817-.135-1.152.31-.393.49-.435 1.799-.412 1.164.021 1.2.028 1.45.28zm5.237 7.21l.617 1.231-.25.708a36.657 36.657 0 01-1.468 3.424l-.375.745-1.585-1.582-1.584-1.583.402-.424 1.98-2.088c.867-.915 1.592-1.664 1.611-1.664.02 0 .312.555.652 1.232zm-8.745 4.549c-.803.842-1.478 1.53-1.5 1.53-.08 0-1.229-2.506-1.67-3.643l-.45-1.159.552-1.116.552-1.116 1.988 1.987 1.988 1.986-1.46 1.53zm2.987-4.61h1.373l-.761.797c-.419.438-.784.807-.812.82-.028.014-.452-.378-.94-.869-.85-.853-.875-.89-.562-.82.18.04.946.072 1.702.072zm-7.697 3.703c.987 2.478 2.327 4.945 4.073 7.5a74.853 74.853 0 011.347 2.04l.483.773H1.906l.084-.633c.492-3.744 2.837-7.225 6.025-8.946.715-.386 5.118-1.964 5.37-1.924.066.01.33.546.588 1.19zm18.033-.47c1.224.412 2.571.928 2.993 1.147 3.226 1.678 5.637 5.215 6.135 9.003l.083.633H23.248l.483-.774c.265-.425.871-1.343 1.347-2.039 1.709-2.501 2.943-4.749 3.913-7.125.283-.696.54-1.34.572-1.43.03-.09.092-.164.136-.164.044 0 1.082.337 2.307.75zm-8.78 2.93c.94.94 1.71 1.748 1.71 1.795 0 .046-.453.758-1.007 1.58-.554.823-1.293 1.945-1.643 2.494-.349.55-.675 1-.724 1-.05 0-.375-.45-.725-1a141.134 141.134 0 00-1.652-2.509c-.56-.83-.997-1.562-.972-1.626.055-.142 3.165-3.444 3.244-3.444.031 0 .826.77 1.768 1.71zm8.31-1.056c-.295.12-.6.554-.6.857 0 .376.432.826.855.893.286.046.388.01.654-.228.264-.235.316-.347.316-.676 0-.326-.053-.44-.304-.666-.308-.275-.562-.325-.921-.18zm3.292 1.778a.905.905 0 00-.559.85c0 .328.08.442.894 1.281.508.523 1.07 1.217 1.3 1.606.457.768.787 1.006 1.27.916.357-.067.584-.292.699-.69.154-.541-.663-1.894-1.876-3.105-.893-.892-1.232-1.06-1.728-.858z" fill="#000"/></svg>