<svg width="38" height="46" fill="none" xmlns="http://www.w3.org/2000/svg"><path fill-rule="evenodd" clip-rule="evenodd" d="M17.642.204C16.556.492 15.957.812 15.22 1.5c-.502.468-.627.539-.95.539-.52 0-1.695.315-2.29.614-1.912.96-3.085 2.974-3.077 5.279a9.976 9.976 0 001.115 4.534l.363.71-.32.31c-.479.465-.703 1.008-.76 1.848-.099 1.437.45 2.513 1.52 2.983.207.09.386.17.397.175.012.006.13.384.262.84.476 1.642 1.176 2.874 2.223 3.912l.632.627-.14.826c-.17.996-.5 1.985-.698 2.089-.079.041-1.093.357-2.253.702-2.118.629-2.438.782-2.438 1.169 0 .134-.162.176-1.008.265-3.636.383-6.456 2.747-7.539 6.32-.2.661-.21.86-.242 5.205-.034 4.46-.032 4.52.159 4.71l.193.194h36.938l.192-.193c.191-.19.193-.251.16-4.711-.034-4.346-.043-4.544-.243-5.205-1.106-3.65-4.113-6.096-7.82-6.36-.765-.055-.821-.073-.821-.265a.544.544 0 00-.164-.352c-.133-.118-1.389-.524-4.448-1.438-.189-.057-.5-.844-.69-1.748-.23-1.098-.22-1.134.56-1.95 1.048-1.097 1.897-2.71 2.22-4.22.085-.394.129-.448.441-.542.499-.15 1.018-.617 1.305-1.174.205-.398.256-.641.289-1.387.025-.577-.003-1.035-.079-1.265-.178-.549-.631-1.151-.995-1.325-.218-.104-.31-.203-.277-.299.026-.08.194-.566.372-1.082 1.02-2.947.9-5.844-.327-7.884-1.33-2.21-4.357-3.833-7.348-3.938-.977-.035-1.239-.01-1.992.19zm3.4 1.279c2.954.773 4.842 2.367 5.44 4.591.325 1.21.264 2.93-.16 4.523l-.195.731-.367-.754c-.43-.886-1.253-1.817-1.93-2.186-.748-.407-1.419-.539-2.407-.474-2.031.134-4.033-.48-5.726-1.753-.413-.31-.84-.588-.95-.617-.287-.074-.69.163-1.392.819-1.267 1.186-2.027 2.621-2.332 4.41l-.118.688-.206-.611c-.474-1.406-.622-3.184-.35-4.205.517-1.942 1.848-3.052 3.989-3.325l.984-.125.577-.567c.946-.93 1.979-1.323 3.507-1.333a6.036 6.036 0 011.637.188zm-5.933 5.9c1.59 1.211 4.248 1.984 6.323 1.838.745-.052.932-.033 1.4.142.679.254 1.322.879 1.723 1.674.324.64.657 1.818.657 2.32 0 .33.14.677.32.797.056.038.263.07.46.07.732.004 1.002.382 1.002 1.408 0 1.014-.277 1.417-1.13 1.642-.27.072-.53.168-.576.214-.046.047-.162.46-.257.92-.732 3.523-3.017 5.56-6.249 5.566-1.658.004-3.066-.572-4.218-1.724-1.077-1.076-1.75-2.4-2.015-3.965-.118-.69-.286-.964-.593-.967-.108-.001-.377-.084-.598-.184-.508-.231-.765-.742-.768-1.528-.004-.957.309-1.38 1.02-1.38.505 0 .602-.246.582-1.476-.03-1.795.337-3.19 1.166-4.438.342-.514 1.087-1.305 1.229-1.305.015 0 .25.17.522.376zm1.678 17.623c1.43.4 3.058.347 4.511-.147.814-.277.82-.277.822-.016.003.357.365 1.674.603 2.195l.226.493-.315 2.076c-.174 1.142-.342 2.102-.374 2.134-.247.247-6.683.256-6.929.01-.027-.027-.192-.975-.366-2.107-.294-1.91-.306-2.082-.175-2.387.24-.558.569-1.615.677-2.178l.102-.538.264.136c.144.075.574.223.954.33zm-3.22 3.962c.126.921.352 2.424 1.233 8.22.364 2.393.651 4.362.638 4.374-.032.031-4.423-7.083-4.456-7.22-.014-.061.228-.4.54-.753.31-.352.566-.717.566-.81 0-.092-.388-.95-.861-1.906s-.843-1.751-.82-1.767c.056-.041 2.83-.887 2.953-.9.056-.006.146.327.206.762zm12.231-.293c.76.226 1.383.443 1.383.482 0 .039-.383.836-.85 1.77-.585 1.17-.835 1.764-.8 1.905.029.112.302.488.608.834l.555.63-2.26 3.649c-1.243 2.007-2.268 3.64-2.278 3.629-.022-.024 1.91-12.864 1.982-13.175.027-.12.101-.199.164-.176.063.023.736.226 1.496.452zm-15.795 2.661c.322.646.585 1.22.585 1.275 0 .056-.257.382-.57.724-.481.525-.565.667-.535.905.02.163 1.273 2.281 2.96 5.006 1.61 2.598 2.926 4.74 2.926 4.758 0 .02-3.164.035-7.031.035H1.306v-3.782c0-3.49.015-3.84.19-4.524.486-1.9 1.672-3.51 3.288-4.467.324-.191.603-.335.62-.318.016.017-.062.237-.174.49-.343.773-.547 1.722-.61 2.827-.034.58-.094 1.055-.135 1.055-.04 0-.33.236-.642.526-.393.364-.66.717-.867 1.148-.567 1.18-.447 2.81.291 3.972.349.548.572.612 1.232.352.661-.26.839-.428.839-.795 0-.434-.274-.648-.75-.584-.442.06-.488.004-.65-.78-.217-1.058.263-2.126 1.208-2.69 1.224-.73 2.801-.163 3.432 1.235.299.663.328 1.024.088 1.07a.616.616 0 00-.516.624c0 .401.244.6.854.696.529.084.811.025 1.006-.209.15-.18.158-1.501.012-2.05-.431-1.62-1.877-2.862-3.455-2.965l-.693-.045.058-.76c.112-1.472.553-2.6 1.333-3.41l.474-.491h1.68l.584 1.172zm19.908-.774c.605.82 1.133 2.43 1.261 3.84l.062.685-.345.125c-.761.275-1.387 1.125-1.51 2.05-.19 1.435 1.064 2.84 2.537 2.84 1.478 0 2.718-1.394 2.536-2.85a2.647 2.647 0 00-1.565-2.065l-.332-.138-.113-.932c-.12-.996-.418-2.192-.745-2.992-.13-.321-.163-.493-.092-.493.27 0 1.535.725 2.111 1.209 1.231 1.034 2.085 2.381 2.466 3.892.171.68.187 1.056.187 4.524v3.782H22.197l.215-.352 2.96-4.798c1.805-2.922 2.747-4.532 2.747-4.697 0-.173-.174-.448-.563-.888-.31-.35-.562-.672-.562-.716 0-.043.263-.607.584-1.252l.584-1.172h1.456l.293.398zm-7.844 2.836c-.024.103-.38 2.444-.793 5.203-.412 2.759-.771 5.11-.798 5.227-.048.209-.064.21-1.687.21-.902 0-1.64-.01-1.642-.023 0-.013-.37-2.449-.82-5.414l-.82-5.39h3.302c3.254 0 3.301.002 3.258.187zm10.52 3.095c.125.082.31.284.41.45.49.8-.123 1.845-1.081 1.845-.992 0-1.593-1.076-1.053-1.884.41-.613 1.147-.79 1.723-.411z" fill="#000"/></svg>