<svg width="47" height="47" fill="none" xmlns="http://www.w3.org/2000/svg"><path fill-rule="evenodd" clip-rule="evenodd" d="M12.932.185c-.19.19-.192.258-.162 5.04.034 5.51 0 5.245.898 7.002.356.697.595 1.008 1.373 1.786.778.779 1.09 1.018 1.786 1.374 1.744.89 1.538.862 6.684.898l4.528.03-.614 1.157c-.337.637-.613 1.248-.613 1.359 0 .11.11.311.243.445.24.24.258.243 1.243.187 2.318-.133 4.395-.983 5.989-2.452l.715-.659 4.178-.047 4.179-.047.542-.253c.755-.354 1.594-1.182 1.968-1.94.283-.575.302-.678.302-1.606 0-.953-.013-1.017-.345-1.69-.304-.613-.556-.906-2.071-2.407-1.486-1.471-1.815-1.75-2.373-2.014-.815-.384-.043-.36-12.686-.384l-9.976-.018-.264-1.014C17.92 2.879 17.173 1.96 15.065.763c-1.454-.826-1.793-.918-2.133-.578zm1.954 2.153c.762.44 1.404 1.089 1.748 1.769.135.265.375 1.035.535 1.711.182.77.356 1.294.466 1.405.17.17.474.176 8.276.176h8.099l.06.322c.194 1.034 1.328 2.464 2.376 2.995.938.475 1.388.524 4.87.525l3.21.002.153.53c.328 1.126-.197 2.268-1.32 2.876-.362.196-.494.204-3.774.231-1.869.015-3.397-.006-3.395-.047.003-.041.129-.307.282-.59.352-.655.361-1.045.03-1.306-.238-.187-.354-.194-3.26-.194-2.54 0-3.045.022-3.216.142-.112.078-.427.563-.7 1.077l-.499.936h-4.374c-4.637.001-5.184-.04-6.249-.46-1.54-.61-2.972-2.039-3.586-3.581-.395-.992-.456-1.703-.46-5.403-.001-1.921.015-3.492.036-3.492.021 0 .333.169.692.376zM.936 6.152c-.529.2-.654.9-.221 1.24.242.191.334.195 4.973.195h4.726l.23-.23c.28-.28.3-.694.051-1.002l-.18-.222-4.718-.017c-2.596-.01-4.783.007-4.86.036zm39.551 1.393c.413.122.654.303 1.517 1.137.565.545 1.027 1.028 1.027 1.073 0 .115-4.14.1-4.863-.017a4.223 4.223 0 01-1.03-.319c-.704-.359-1.42-1.166-1.565-1.762l-.063-.258h2.243c1.756 0 2.35.032 2.734.146zM18.152 8.812c-.188.149-.247.278-.247.548 0 .537.228.687 1.12.738 1.3.075 1.787-.135 1.787-.77 0-.236-.066-.374-.247-.516-.214-.168-.378-.194-1.206-.194-.829 0-.993.026-1.207.194zm4.015.036c-.306.306-.301.702.012.996.207.195.35.232 1.008.259.939.04 1.352-.06 1.59-.38.213-.284.167-.63-.124-.92-.162-.162-.314-.185-1.22-.185-.975 0-1.05.013-1.266.23zm4.156-.102c-.378.287-.393.88-.032 1.18.18.15 1.46.248 1.973.151.686-.128.933-.77.474-1.229-.216-.216-.29-.23-1.242-.227-.682.002-1.065.043-1.173.125zm4 .102c-.45.45-.195 1.104.48 1.23.583.11 1.797-.003 2-.186.355-.322.32-.85-.077-1.154-.095-.073-.513-.115-1.16-.117-.952-.003-1.027.01-1.243.227zm-26.45.256c-.112.055-.257.226-.321.382-.141.34.015.699.388.887.363.184 6.193.168 6.553-.017.45-.233.52-.764.151-1.133l-.23-.23-3.168.006c-2.015.004-3.243.042-3.373.105zM.672 12.116c-.26.276-.267.75-.016 1.002.182.182.312.187 5.015.187 4.703 0 4.833-.005 5.016-.187a.706.706 0 00-.06-1.025c-.242-.19-.333-.194-5-.194H.877l-.204.217zm34.108 2.118c0 .155-.707.981-1.384 1.617a7.616 7.616 0 01-2.766 1.679c-.771.263-1.756.48-1.756.388 0-.043.656-1.283 1.125-2.128.085-.155.316-.587.511-.961l.356-.68h1.957c1.114 0 1.958.037 1.958.085zm-17.86 5.152c-.615.28-.943.743-1.27 1.795l-.29.937-2.454.003c-2.888.003-3.577.076-4.44.467-.589.267-.899.55-4.135 3.776C1.157 29.53.803 29.913.51 30.508c-.178.361-.366.884-.417 1.162-.13.697-.121 6.524.01 7.154.386 1.857 1.886 3.205 3.87 3.475l.812.11.1.376c.527 1.956 2.343 3.333 4.396 3.333 2.02 0 3.718-1.247 4.313-3.169l.165-.534h19.168l.165.534a4.45 4.45 0 002.98 2.983c.713.22 1.81.244 2.52.055 1.495-.398 2.808-1.714 3.214-3.223.097-.36.134-.396.408-.398.532-.003 1.567-.265 2.103-.534 1.07-.536 2.012-1.786 2.266-3.008.134-.642.134-3.145 0-3.788-.27-1.298-1.194-2.481-2.37-3.034-.43-.203-1.6-.547-3.292-.969-1.444-.36-2.794-.725-3-.81-.27-.11-1.375-1.148-3.937-3.695-2.052-2.038-3.742-3.642-3.985-3.78-.901-.511-1.23-.558-4.351-.62l-2.9-.057-.177-.563c-.469-1.483-.684-1.825-1.334-2.12-.324-.148-.632-.172-2.16-.172-1.523 0-1.835.024-2.157.17zm3.702 1.325c.164.087.634 1.275.541 1.368-.023.023-.993.031-2.155.017l-2.113-.025.174-.563c.266-.863.327-.89 1.978-.89.771 0 1.48.042 1.575.093zm8.393 3.18c.356.173 1.321 1.073 4.031 3.764 2.976 2.954 3.656 3.583 4.13 3.82.365.182 1.54.527 3.282.962 1.492.374 2.895.763 3.117.865.887.407 1.612 1.492 1.612 2.413v.372h-.793c-.436 0-.897.047-1.025.105-.33.15-.487.568-.344.914.156.376.455.48 1.37.48h.792v.466c0 1.442-1.177 2.673-2.671 2.792l-.597.048-.11-.408a4.658 4.658 0 00-3-3.18c-.676-.227-1.867-.27-2.533-.091-1.53.412-2.862 1.738-3.271 3.259l-.107.396h-19.11l-.107-.396c-.392-1.457-1.547-2.68-2.99-3.166-.683-.23-1.871-.273-2.54-.093-1.536.413-2.861 1.737-3.274 3.271l-.11.408-.597-.048c-1.111-.089-2.105-.814-2.477-1.809-.182-.488-.194-.711-.194-3.826 0-2.811.023-3.377.154-3.77.136-.41.528-.84 3.539-3.867 1.862-1.873 3.512-3.473 3.667-3.555.741-.394.629-.39 10.359-.37l9.328.018.469.226zm-18.985 1.72c-.486.149-5.59 5.229-5.733 5.708-.202.671.115 1.381.73 1.638.259.108 2.577.13 13.994.13 9.441 0 13.767-.031 13.949-.1.393-.149.77-.551.873-.93.184-.686.098-.8-2.787-3.673-2.25-2.24-2.76-2.704-3.072-2.788-.517-.14-17.49-.125-17.954.016zm2.626 3.679v2.297H5.86l2.296-2.297 2.295-2.297h2.204v2.297zm6.468 0v2.297h-5.062v-4.594h5.062v2.297zm10.782 0l2.295 2.297H20.624v-4.594h6.986l2.296 2.297zm-12.97 5.828c-.034.034-.062.456-.062.937v.875h-1.781v1.875h1.781V36.93h1.875v1.882l.914-.027.914-.027.027-.914.027-.914h1.774v1.875h1.876V36.93h1.774l.027.914.027.914.914.027.914.027V36.93h1.875v1.875h1.781V36.93h-1.774l-.027-.914-.027-.914-.914-.027-.914-.026v1.881h-1.875v-1.875H24.28v1.875h-1.875v-1.875h-1.78v1.875h-1.876v-1.875h-.875c-.481 0-.903.028-.937.063zm-6.42 3.664c.614.272 1.214.859 1.532 1.496.228.458.27.66.275 1.295.004.664-.031.823-.302 1.374-.547 1.112-1.505 1.71-2.745 1.713-.613.002-.791-.04-1.332-.305-.682-.336-1.15-.81-1.49-1.506-.293-.604-.302-1.834-.017-2.461a3.311 3.311 0 011.936-1.735c.543-.177 1.595-.114 2.143.129zm28.125 0c.613.272 1.246.887 1.552 1.51.222.453.26.643.258 1.326-.002.725-.03.85-.32 1.386-.587 1.088-1.519 1.654-2.725 1.654-1.234 0-2.194-.599-2.74-1.71-.271-.55-.307-.712-.304-1.375.003-.632.045-.834.265-1.268.144-.283.353-.615.465-.736.315-.342.988-.778 1.413-.918.535-.175 1.591-.11 2.136.13zM8.343 39.86c-.644.344-.971.875-1.012 1.645-.041.776.2 1.298.805 1.735.325.236.515.298.999.33.516.032.662.002 1.07-.22.67-.365.98-.86 1.024-1.638.029-.506-.004-.681-.19-1.032-.345-.644-.876-.97-1.645-1.012-.525-.028-.699.004-1.051.192zm28.125 0a2.421 2.421 0 00-.703.625c-.254.36-.281.47-.281 1.126 0 .642.03.77.261 1.104.148.213.468.49.735.635.408.221.556.252 1.063.22.687-.044 1.128-.293 1.526-.863.368-.527.41-1.435.094-2.027-.344-.644-.875-.97-1.644-1.012-.525-.028-.699.004-1.051.192zM9.656 41.243c.192.192.237.436.115.619-.082.122-.437.318-.578.318-.168 0-.475-.363-.475-.562 0-.103.084-.272.188-.375.103-.103.271-.188.375-.188.103 0 .271.085.375.188zm28.125 0c.103.103.187.272.187.375 0 .199-.307.562-.475.562-.14 0-.496-.196-.578-.318-.196-.293.117-.807.49-.807.104 0 .272.085.376.188z" fill="#000"/></svg>