<svg width="25" height="25" fill="none" xmlns="http://www.w3.org/2000/svg"><path fill-rule="evenodd" clip-rule="evenodd" d="M13.413 14.84a.952.952 0 11-1.904-.001.952.952 0 011.904.002zm-4.69.652a.953.953 0 00-.953.951.953.953 0 001.904 0 .953.953 0 00-.952-.951zm.534-3.74a.953.953 0 000 1.904.953.953 0 000-1.905zm1.068-4.274a.953.953 0 000 1.904.953.953 0 000-1.904zM23.84 14.46l-1.928-3.508-.732-.887.009-.037c.475-2.44-.046-4.696-1.512-6.525-1.71-2.137-4.53-3.413-7.739-3.499L11.59 0C9.793 0 8.052.408 6.554 1.18 2.428 3.303.586 6.412 1.078 10.42c.283 2.312 1.285 4.696 2.979 7.085.442.626.7 1.624.761 2.97.043.928-.008 1.967-.151 3.084l-.061.447c-.03.202-.058.37-.08.496l-.05.264L5.662 25l.106-.611c.03-.19.063-.418.096-.675.152-1.188.205-2.297.16-3.296-.076-1.6-.397-2.782-.983-3.61-1.554-2.194-2.51-4.454-2.766-6.535-.429-3.502 1.15-6.126 4.831-8.021 1.329-.683 2.88-1.045 4.484-1.045 2.938 0 5.515 1.08 7.07 2.963 1.288 1.56 1.753 3.498 1.349 5.605l-.134.604 1.042 1.244 1.379 2.523-1.417 1.127.07 2.211-.677.968.121.477a8.016 8.016 0 01.17 1.29c.018.719-.136.968-.232 1-.83.29-1.826.438-2.956.438-.246 0-.483-.008-.706-.021l-.457-.035-.914-.126-.165 3.379 1.205.059.103-2.084.934.032c1.266 0 2.395-.17 3.353-.502.732-.256 1.074-.966 1.04-2.174a7.735 7.735 0 00-.128-1.165l-.066-.328.477-.682.11-.34-.057-1.831 1.737-1.38zm-10.845-4.31a.953.953 0 000 1.904.953.953 0 000-1.904zm3.622 3.088a.953.953 0 00-.951-.952.953.953 0 000 1.905.953.953 0 00.951-.953z" fill="#000"/></svg>