<svg width="25" height="25" fill="none" xmlns="http://www.w3.org/2000/svg"><path fill-rule="evenodd" clip-rule="evenodd" d="M20.6 8.152h-3.532l4.964-5.061c.212-.223.614-.228.824.003a.564.564 0 01-.008.816l-3.059 3.1h3.614l-5.275 5.276a.746.746 0 01-.4.175l-.013.002h-.01a.58.58 0 01-.57-.578.538.538 0 01.162-.417L20.6 8.152zm-1.291 4.861a3.21 3.21 0 00-1.265.29l-.815.432a7.891 7.891 0 01-3.142 1.106 7.99 7.99 0 01-3.228-1.233l-.208-.11a7.46 7.46 0 00-.545-.274 3.183 3.183 0 00-1.245-.287h-.014c-.506 0-.998.18-1.391.511a2.488 2.488 0 00-.643 2.533 4.95 4.95 0 001.558 2.248c1.641 1.55 1.893 1.788 1.893 6.148a.578.578 0 00.592.58.59.59 0 00.403-.163.586.586 0 00.176-.417c0-4.684-.422-5.262-2.213-6.96a4.119 4.119 0 01-1.237-1.72 1.38 1.38 0 01.31-1.377.897.897 0 01.62-.228c.282.015.552.083.797.198.237.128.467.273.69.436a8.591 8.591 0 003.684 1.301 8.3 8.3 0 003.672-1.324l.222-.111c.167-.1.34-.189.52-.267.258-.118.531-.18.816-.187a.886.886 0 01.597.201c.35.372.466.904.307 1.384a4.052 4.052 0 01-1.231 1.73c-1.857 1.769-2.25 2.305-2.25 6.97 0 .32.259.577.576.577h.007a.61.61 0 00.602-.547c0-4.393.29-4.662 1.886-6.141a5.022 5.022 0 001.567-2.26 2.54 2.54 0 00-.682-2.533 2.065 2.065 0 00-1.386-.506zm-10.16-2.412a8.108 8.108 0 012.898 1.92l.689.597a2.9 2.9 0 001.598.64h.017c.318-.018.624-.099.915-.247a2.466 2.466 0 001.24-2.308 5.064 5.064 0 00-.965-2.56l-.032-.05c-1.218-1.916-1.375-2.162-.345-6.384.054-.255-.084-.576-.513-.678l-.02-.005-.02.001a.603.603 0 00-.566.515c-1.125 4.58-.895 5.134.526 7.32.425.569.696 1.241.781 1.937.03.5-.216.978-.623 1.24-.131.06-.27.092-.404.094a1.745 1.745 0 01-1.003-.421 6.077 6.077 0 01-.813-.619 8.499 8.499 0 00-3.117-2.08 4.679 4.679 0 00-.995-.11 11.75 11.75 0 00-2.895.504c-.15.026-.3.063-.414.106-.125.01-.252.01-.386 0h-.455c-.368.039-.72-.12-.936-.39a1.388 1.388 0 01-.006-1.377 4.23 4.23 0 011.627-1.374C7.218 5.691 7.683 5.322 8.796.686c.053-.25-.083-.556-.507-.677L8.259 0l-.031.005a.625.625 0 00-.49.437C6.685 4.687 6.34 4.877 4.428 5.928a5.492 5.492 0 00-2.067 1.759 2.55 2.55 0 00.043 2.684 2.138 2.138 0 001.872.78c.207.023.417.023.641-.002l.884-.214a10.855 10.855 0 012.631-.332c.239-.023.48-.024.717-.002z" fill="#000"/></svg>