<svg width="25" height="25" fill="none" xmlns="http://www.w3.org/2000/svg"><g clip-path="url(#clip0_11_66)"><path fill-rule="evenodd" clip-rule="evenodd" d="M17.157 23.976l-.133.091.16.78-.529-.41-.24.01-.346.593-.107-.693-.08-.062-.778.163.468-.614-.083-.144-.594-.347.625-.095.125-.081.039-.058-.015-.096-.17-.654.52.392.241-.01.347-.593.094.624.091.132.79-.165-.476.653.08.143.594.347-.623.094zm7.124-5.813a5.802 5.802 0 01-3.444 2.346 10.36 10.36 0 01-2.289.386c-.286.096-.54.141-.796.143-.267 0-.525-.05-.771-.15-.612-.238-1.113-.748-1.489-1.519l-.074-.149-.14.09a8.853 8.853 0 00-2.223 2.08.603.603 0 01-.466.239.82.82 0 01-.122-.012l-.12.006a.604.604 0 01-.4-.24 8.912 8.912 0 00-2.184-2.057l-.14-.094-.073.152c-.38.77-.879 1.282-1.486 1.52a2.32 2.32 0 01-1.536.006l.007-.02c-.804-.037-1.6-.168-2.363-.387a5.81 5.81 0 01-3.454-2.36c-1.028-1.62-.953-3.803.23-6.48.887-1.534 2.263-2.596 3.265-3.37a10.6 10.6 0 00.971-.799c.182-.386.618-1.868 1.893-8.017A.605.605 0 017.666-1c.283.047.417.14.505.274a.598.598 0 01.084.453C7.347 4.055 6.768 6.554 6.43 7.59l-.049.145c-.096.272-.158.374-.195.427a8.32 8.32 0 01-1.238 1.08c-.979.754-2.18 1.683-2.923 2.934-1.004 2.281-1.103 4.07-.304 5.331a4.454 4.454 0 002.273 1.672l.295.094-.113-.29a2.112 2.112 0 01-.135-1.007c.046-.426.314-.805.7-.99.313-.163.717-.245 1.204-.245 1.045 0 2.363.386 3.616 1.058a9.998 9.998 0 012.838 2.24l.11.126.11-.125a9.957 9.957 0 012.822-2.228c1.255-.672 2.573-1.057 3.617-1.057.486 0 .89.081 1.198.245.392.186.66.565.705.99.038.341-.008.69-.133 1.006l-.115.29.297-.094a4.461 4.461 0 002.268-1.666c.802-1.259.703-3.047-.29-5.32-.753-1.266-1.953-2.195-2.92-2.943A9 9 0 0118.87 8.24c-.198-.27-.451-.934-1.21-4.307l-.139-.622c-.218-.978-.472-2.153-.772-3.57a.608.608 0 01.187-.573.607.607 0 01.59-.124.601.601 0 01.4.447c1.315 6.267 1.739 7.657 1.86 7.962.338.34.66.604.996.85 1.014.785 2.385 1.84 3.24 3.315 1.215 2.733 1.292 4.915.258 6.545zm-15.722.49l-.136-.062a7.685 7.685 0 00-1.894-.587 2.245 2.245 0 00-1.175.047l-.099.03-.004.104c-.01.273.106.538.346.787.443.459 1.218.754 1.29.754.211.097.3.109.39.109.125 0 .246-.024.36-.067.325-.134.62-.473.859-.98l.063-.135zm11.192-.457l-.003-.105-.102-.031a2.27 2.27 0 00-1.182-.046 7.863 7.863 0 00-1.843.559l-.135.062.063.135c.237.512.532.851.852.982a1.034 1.034 0 00.62.036l.136-.06c.073-.026 1.625-.604 1.594-1.532zM12 9.315l.02.172v.065l-.202.279.388-.102.145.008.07.446.19-.324.232-.016.292.227-.07-.295-.187-.237.593-.095-.31-.178-.028-.173v-.07l.21-.28-.395.104-.145-.007-.07-.447-.185.317-.17.022h-.067l-.294-.228.067.292.205.24-.608.096.319.184zM9.759 23.881l-.594-.346-.078-.14.464-.67-.799.164-.08-.061-.104-.696-.347.597-.24.009-.52-.393.17.657-.026.147-.062.075-.69.106.596.345.08.145-.438.61.632-.165.149.023.075.062.105.69.345-.592.242-.01.523.393-.16-.764.063-.08.694-.105zM7.086 13.278l-.022-.17v-.068l.204-.278-.39.103-.144-.008-.07-.446-.184.317-.17.022h-.07l-.29-.226.072.297.173.237-.583.091.317.185.023.172v.066l-.205.28.39-.103.143.008.071.444.184-.316.171-.022h.067l.289.224-.073-.3-.16-.234.573-.091-.317-.184zm13.122.651l.015.232-.207.277.393-.102.143.008.07.443.177-.305.171-.032h.074l.292.228-.071-.3-.175-.235.582-.093-.308-.177-.03-.174v-.072l.202-.277-.387.102-.145-.008-.07-.447-.19.326-.232.015-.29-.225.073.297.171.236-.585.092.327.191z" fill="#000"/></g><defs><clipPath id="clip0_11_66"><path fill="#fff" d="M0 0h25v25H0z"/></clipPath></defs></svg>