<svg width="25" height="25" fill="none" xmlns="http://www.w3.org/2000/svg"><g clip-path="url(#clip0_11_47)"><path fill-rule="evenodd" clip-rule="evenodd" d="M20.992 21.485a.492.492 0 01-.553.232l-.108-.042a5.408 5.408 0 00-5.132-.159 5.286 5.286 0 012.215 1.194 6.342 6.342 0 002.294 1.328.495.495 0 01.31.627.5.5 0 01-.618.313 7.354 7.354 0 01-2.651-1.534 4.287 4.287 0 00-2.885-1.11h-.053a7.785 7.785 0 01-7 .054 6.19 6.19 0 00-5.13-.173.501.501 0 01-.645-.272.495.495 0 01.265-.642 7.187 7.187 0 015.948.202c.189.092.376.175.557.245a5.16 5.16 0 003.23-2.251 4.144 4.144 0 012.758-1.823.504.504 0 01.573.402v.001a.491.491 0 01-.405.571 3.155 3.155 0 00-2.095 1.387 6.168 6.168 0 01-2.347 2.133 6.73 6.73 0 004.524-1.12 6.42 6.42 0 016.764-.24.498.498 0 01.184.677zm2.354-19.339c0 .138-.055.27-.153.364l-7.8 7.8c.009 1.046-.536 5.629-10.316 8.767l-2.673.75h-.02a.504.504 0 01-.232-.059l-.044-.027a.517.517 0 01-.142-.14l-.042-.068a.473.473 0 01-.053-.217l.01-.06a.566.566 0 01.1-.255v-.005l.04-.043L20.831.145a.528.528 0 01.727 0l1.638 1.638c.096.096.15.229.15.363zM13.23 9.198L4.128 18.3c4.107-1.241 7.053-2.856 8.76-4.8 1.316-1.5 1.467-2.744 1.475-3.17L13.23 9.199zm6.834-6.834l-6.107 6.108.911.91 6.108-6.107-.912-.911zm1.128-1.13l-.401.404.912.912.401-.404-.912-.912z" fill="#000"/></g><defs><clipPath id="clip0_11_47"><path fill="#fff" d="M0 0h25v25H0z"/></clipPath></defs></svg>