<svg width="25" height="25" fill="none" xmlns="http://www.w3.org/2000/svg"><path fill-rule="evenodd" clip-rule="evenodd" d="M10.516 13.434v-.008c-.078-.986-.14-1.78.072-2.361.398.207.898.447 1.313.63.325.145.611.26.849.343l.044.016c.234.083.42.148.663.148h3c1.023 0 1.856-.857 1.856-1.91 0-1.054-.833-1.912-1.856-1.912h-2.696c-.715-.364-1.377-.926-2.018-1.47l-.343-.289c-.796-.666-1.664-1.317-2.742-1.318h-.026c-1.481 0-2.423 1.139-2.673 2.202-.485 2.07-.466 3.827-.444 6.051l.006.592-1.467 4.587-1.705 2.988c-.6.989-.41 2.224.446 2.873.353.268.764.398 1.174.398.625 0 1.246-.3 1.656-.874l2.168-3.381a.626.626 0 00.066-.142l.781-2.46.93 1.65-.195 3.1-.004.049c0 .609.237 1.17.65 1.537.365.324.842.491 1.367.493a2.06 2.06 0 001.363-.514c.411-.368.647-.921.647-1.516l.138-4.2a.588.588 0 00-.08-.325l-2.94-4.977zm.25 10.15c-.174-.152-.252-.351-.253-.635l.209-3.26a.6.6 0 00-.076-.334l-1.657-2.94a.542.542 0 00-.553-.29.566.566 0 00-.482.401L6.8 20.16l-2.083 3.25-.028.04c-.296.41-.831.496-1.217.204-.39-.298-.455-.823-.151-1.32l1.737-3.042a.525.525 0 00.052-.118l1.515-4.728c.02-.06.03-.123.03-.188l-.006-.63c-.022-2.26-.039-3.893.42-5.846.153-.651.696-1.305 1.567-1.305h.018c.636 0 1.27.421 2.028 1.055.132.11.266.226.404.344.65.56 1.388 1.194 2.274 1.622a.55.55 0 00.244.057h2.853a.72.72 0 01.717.738.72.72 0 01-.717.736h-2.98l-.019-.004a2.997 2.997 0 01-.34-.096 11.6 11.6 0 01-.767-.31 23.806 23.806 0 01-1.713-.847.566.566 0 00-.707.144c-.784.975-.676 2.28-.572 3.543l.015.179c.007.09.034.18.08.257l2.939 4.977-.135 4.06c0 .283-.078.48-.255.638a.957.957 0 01-.623.226.906.906 0 01-.615-.21zm-.612-18.44c1.377 0 2.498-1.154 2.498-2.573 0-1.418-1.12-2.571-2.498-2.571-1.377 0-2.498 1.153-2.498 2.571 0 1.419 1.12 2.573 2.498 2.573zM8.796 2.57c0-.77.609-1.397 1.358-1.397.75 0 1.36.626 1.36 1.397s-.61 1.4-1.36 1.4c-.75 0-1.358-.629-1.358-1.4zm12.91 11.613c-.116-.91-.788-1.833-1.848-1.833h-2.57c-.486 0-.953.21-1.284.578-.287.318-.483.743-.565 1.228l-1.715 10.146a.578.578 0 00.18.552.602.602 0 00.594.108.564.564 0 00.35-.454l1.26-7.458h4.814l.94 7.43a.555.555 0 00.56.513c.027 0 .053-.003.08-.006a.567.567 0 00.492-.657l-1.288-10.147zm-.933 1.695h-4.467l.256-1.517c.043-.254.145-.486.277-.633a.55.55 0 01.448-.204h2.57c.387 0 .655.303.72.81l.196 1.544z" fill="#000"/></svg>