<svg width="25" height="25" fill="none" xmlns="http://www.w3.org/2000/svg"><path fill-rule="evenodd" clip-rule="evenodd" d="M6.81 19.987a.595.595 0 01-.213-.712l.056-.107 3.297-4.724a.599.599 0 011.048.564l-.057.107-3.296 4.725a.6.6 0 01-.835.147zm14.914 1.894l-.09.08-4.176 2.93a.605.605 0 01-.744-.044l-.08-.09-4.622-6.63a.613.613 0 01-.063-.114l-4.694 6.731a.602.602 0 01-.712.214l-.108-.057-4.178-2.909a.595.595 0 01-.214-.712l.057-.108 6.19-8.861a.576.576 0 01-.428-.153l-.08-.09-.731-1.044a5.865 5.865 0 01-.716-5.347l.129-.328 1.233-2.857C8.5.98 10.165 0 11.94 0c1.865 0 3.535.989 4.256 2.519l.19.413.395.908.631 1.506a5.865 5.865 0 01-.389 5.379l-.193.295-1.284 1.838a.61.61 0 01.51.14l.08.089 5.632 8.051a.6.6 0 01-.043.743zm-6.56-8.094a.604.604 0 01-.1-.239l-2.536 3.636a.599.599 0 01.375.154l.081.092 4.277 6.136 3.182-2.232-5.28-7.547zM8.936 2.754l.998 1.433a3.136 3.136 0 012.024-.762c.72 0 1.429.267 2.012.754l.416-.595a.595.595 0 01.833-.148.64.64 0 01.138.132 20.071 20.071 0 00-.243-.533c-.518-1.099-1.794-1.837-3.175-1.837-1.209 0-2.35.593-3.003 1.556zM3.433 21.352l3.18 2.215 9.232-13.23a4.674 4.674 0 00.575-4.243l-.775-1.861c-.066-.152-.124-.288-.179-.412a.59.59 0 01-.033.328l-.057.107L3.433 21.352zm5.32-9.983c.035.05.062.106.08.164l2.587-3.704a.595.595 0 01-.485-.147l-.08-.09-2.508-3.588-.78 1.814a4.673 4.673 0 00.3 4.267l.168.256.718 1.028zm3.074-4.477a.596.596 0 01.094.22l1.359-1.945a1.924 1.924 0 00-2.654.007l1.2 1.718z" fill="#000"/></svg>