<svg width="25" height="25" fill="none" xmlns="http://www.w3.org/2000/svg"><path fill-rule="evenodd" clip-rule="evenodd" d="M15.238 2.352c0-.324.263-.587.587-.587a5.004 5.004 0 014.998 5 .587.587 0 01-1.173 0 3.83 3.83 0 00-3.825-3.827.587.587 0 01-.587-.586zm.731 6.618V7.792h1.178a.587.587 0 000-1.173H15.97V5.44a.587.587 0 00-1.172 0v1.178h-1.179a.587.587 0 000 1.173h1.179V8.97a.587.587 0 001.172 0zm6.618-2.206c0 1.941-.67 3.18-1.445 4.614-.126.234-.254.474-.385.723-.434.834-.738 3.788-.819 4.856a9.796 9.796 0 01-3.314 7.318.23.23 0 01-.028.03c-.223.194-.443.37-.709.566a.577.577 0 01-.242.106 1.47 1.47 0 01-1.73-1.446v-6.617c0-.893-.728-1.622-1.621-1.622s-1.619.729-1.619 1.621v6.618a1.47 1.47 0 01-1.733 1.446.562.562 0 01-.242-.108c-.28-.207-.501-.383-.693-.552a.377.377 0 01-.048-.048 9.841 9.841 0 01-3.312-7.355c-.08-1.051-.384-3.987-.816-4.813a43.26 43.26 0 00-.378-.708C2.669 9.941 2 8.703 2 6.764A6.772 6.772 0 018.764 0c1.25 0 2.47.345 3.532 1l.016-.01A6.746 6.746 0 0115.825 0c3.729 0 6.762 3.035 6.762 6.764zm-7.5 10.15v6.617c0 .146.103.267.242.29a7.69 7.69 0 00.443-.355.309.309 0 01.044-.043 8.66 8.66 0 002.953-6.51c.01-.175.29-4.093.946-5.354.107-.204.213-.4.316-.592l.079-.146c.73-1.348 1.306-2.412 1.306-4.057a5.598 5.598 0 00-5.591-5.59 5.57 5.57 0 00-3.021.894 5.573 5.573 0 00-2.57 4.696.587.587 0 01-1.175 0c0-1.9.804-3.707 2.213-4.99a5.57 5.57 0 00-2.508-.6 5.598 5.598 0 00-5.591 5.59c0 1.644.576 2.709 1.305 4.057l.074.139c.105.194.212.393.32.598.629 1.21.916 4.896.946 5.312a8.714 8.714 0 002.958 6.556.662.662 0 01.053.053c.118.1.26.215.43.343a.293.293 0 00.242-.291v-6.617a2.796 2.796 0 012.793-2.794 2.796 2.796 0 012.792 2.793z" fill="#000"/></svg>