<svg width="25" height="25" fill="none" xmlns="http://www.w3.org/2000/svg"><path fill-rule="evenodd" clip-rule="evenodd" d="M15.171 17.975a.66.66 0 01-.529.267.642.642 0 01-.387-.129.646.646 0 01-.193-.226l-.56-1.12a.665.665 0 01.1-.567l.001-.001a.65.65 0 01.914-.137.66.66 0 01.195.227l.558 1.116a.658.658 0 01-.099.57zm-1.083-2.26a.65.65 0 00.325-.478l.005-.125-.059-1.12a.653.653 0 00-1.298-.06l-.007.126.06 1.122a.656.656 0 00.653.62c.11 0 .22-.028.32-.086zm-.6-2.698l1.177.422a.635.635 0 00.298.03.656.656 0 00.565-.732.664.664 0 00-.32-.48l-1.187-.424-.186-.034-.102.006a.65.65 0 00-.564.732.657.657 0 00.32.48zm2.692.639l.127.008 1.123-.046a.655.655 0 00.545-.97.664.664 0 00-.6-.336l-1.125.046a.651.651 0 00-.287.082.647.647 0 00-.254.888.65.65 0 00.47.328zm.136 6.066a.64.64 0 00.28.109.668.668 0 00.639-.302.662.662 0 00-.077.386.657.657 0 00.312.486l1.168.44a.65.65 0 00.875-.688.651.651 0 00-.312-.482l-1.179-.447-.184-.035-.104.003a.659.659 0 00-.479.303.669.669 0 00.075-.23.665.665 0 00-.185-.544l-1.034-.71a.663.663 0 00-.28-.103v-.002a.655.655 0 00-.732.566.666.666 0 00.186.543l1.03.707zm7.526-5.264l-1.93-3.508-.73-.887.006-.036c.478-2.44-.045-4.696-1.508-6.525C17.968 1.366 15.148.091 11.938.004L11.59 0C9.793 0 8.052.408 6.554 1.179 2.428 3.303.586 6.412 1.078 10.419c.28 2.28 1.31 4.731 2.979 7.086.442.626.7 1.625.761 2.97.043.928-.008 1.967-.15 3.085l-.062.446c-.03.202-.057.368-.08.495l-.05.263L5.662 25l.106-.611c.031-.192.063-.418.096-.675.152-1.188.205-2.297.16-3.296-.075-1.6-.397-2.782-.983-3.61-1.554-2.194-2.51-4.454-2.766-6.536-.43-3.502 1.15-6.125 4.83-8.02 1.329-.684 2.88-1.046 4.485-1.046 2.937 0 5.515 1.08 7.07 2.964 1.289 1.56 1.754 3.498 1.35 5.604l-.135.605 1.043 1.244 1.378 2.522-1.418 1.127.07 2.211-.677.97.121.476c.02.087.04.19.06.307.065.353.102.684.11.983.02.72-.143.97-.232 1-.827.29-1.822.436-2.954.436-.248 0-.485-.007-.706-.019l-.458-.035-.914-.125-.164 3.379 1.203.058.104-2.084.935.033c1.266 0 2.395-.17 3.353-.502.733-.255 1.073-.966 1.039-2.173a7.603 7.603 0 00-.127-1.166l-.066-.33.477-.68.11-.34-.058-1.833 1.738-1.38zm-5.012-.923l1.185-.394a.656.656 0 00.246-1.084.675.675 0 00-.53-.183l-1.205.397a.657.657 0 00-.44.622.65.65 0 00.744.642z" fill="#000"/></svg>