<svg width="25" height="25" fill="none" xmlns="http://www.w3.org/2000/svg"><g clip-path="url(#clip0_11_43)"><path fill-rule="evenodd" clip-rule="evenodd" d="M20.746 7.712c.142.533-.225 2.14-1.002 2.82-.455.398-1.01.473-1.555.205l-.075-.036c.245.461.5 1.018.764 1.66 1.182 2.894-.103 5-3.207 10.091-.992 1.628-2.182 2.484-3.535 2.544-.05.003-.101.004-.152.004-.91 0-1.853-.362-2.802-1.077a8.867 8.867 0 01-1.608-1.593 14.7 14.7 0 01-1.005-1.225l-.114-.152.177-.07c.273-.107.538-.214.796-.322l.105-.042.067.089c.389.514.688.847.798.968l.053.061c.077.1 1.793 2.315 3.639 2.243.957-.044 1.841-.72 2.63-2.009 3.11-5.1 4.05-6.822 3.124-9.087a17.294 17.294 0 00-.744-1.61l-.05-.096.764-.763.02-.048c.008.002.013.005.02.008l.016-.014v.001l.621-.617.188.087c.116.059.179.051.23.027l.07-.042c.208-.149.425-.561.572-1.096l.01-.037.028-.027 1.091-1.088.066.243zm-9.541 10.9c-.348.225-.72.448-1.11.666l-.073.04-.002.082c-.014.55.258.892.343.985.13.142.261.213.399.213.108 0 .22-.044.337-.132.288-.217.321-.52.088-.834-.008-.012-.198-.259.228-.82l-.21-.2zm-7.053-1.916l.166-.193a56.6 56.6 0 01.637-.725l.054-.061-.024-.077c-.553-1.842-.607-3.6-.158-5.222.505-1.828 1.35-3.047 2.512-3.623 1.561-.772 3.22-.129 3.235-.123a.557.557 0 10.42-1.036c-.079-.03-1.81-.722-3.667-.048.271-.41.718-.901 1.447-1.343.53-.321 1.068-.624 1.594-.922 1.649-.93 2.681-1.513 2.832-2.206.068.001.162.012.276.046.21.064.598.245.833.738.243.51-.537 1.326-1.112 1.926-.495.518-.853.893-.894 1.321-.03.31.196.586.502.615.295.024.58-.194.603-.47.006-.02.045-.1.296-.375.462.313.677.716.776 1.007l.006.017-.16.027c-1.615.262-2.21.941-2.615 1.403a3.85 3.85 0 01-.118.13l-.004-.001a2.255 2.255 0 00-2.492.143.558.558 0 00.7.868c.022-.016.552-.418 1.253-.033.788.436 1.241-.075 1.512-.384.135-.153.286-.326.511-.49l2.355-2.319-.046-.094a3.042 3.042 0 00-.906-1.098c.698-.785 1.303-1.706.84-2.674C14.723.174 13.42-.164 12.712.068c-.48.159-.632.53-.617.822-.213.297-1.547 1.05-2.276 1.461-.497.28-1.062.598-1.624.939-2.003 1.214-2.36 2.803-2.422 3.234-.907.814-1.587 2.024-2.022 3.596-.546 1.974-.439 4.105.32 6.335l.081.241zm9.987 1.742a.437.437 0 00.341.084.436.436 0 00.36-.509c-.059-.342-.272-.87-.652-1.614l-.093-.181-.273.287c-.097.099-.198.198-.303.302l-.076.074.047.095c.35.694.454 1.029.481 1.188.02.11.08.21.168.274zm9.839-15.52a.547.547 0 01-.16.385l-8.354 8.353c.011 1.114-.565 6.023-11.04 9.384l-2.861.803h-.02a.518.518 0 01-.246-.064l-.056-.035a.531.531 0 01-.14-.139l-.03-.034a.194.194 0 01-.016-.045A.51.51 0 011 21.3l.018-.106a.577.577 0 01.098-.229v-.005l.043-.044L21.296.78a.557.557 0 01.77 0l1.753 1.752a.551.551 0 01.159.386zM13.155 10.46l-9.766 9.765c4.41-1.33 7.572-3.06 9.403-5.147 1.414-1.61 1.573-2.946 1.582-3.4l-1.219-1.218zm7.317-7.316L13.925 9.69l.984.983 6.546-6.546-.983-.984zm1.208-1.21l-.439.44.984.985.438-.44-.983-.985z" fill="#000"/></g><defs><clipPath id="clip0_11_43"><path fill="#fff" d="M0 0h25v25H0z"/></clipPath></defs></svg>