<svg width="25" height="25" fill="none" xmlns="http://www.w3.org/2000/svg"><g clip-path="url(#clip0_11_21)"><path fill-rule="evenodd" clip-rule="evenodd" d="M12.466 0a.569.569 0 01.373.117c2.645 1.973 5.98 3.741 9.79 5.024a.567.567 0 01.392.541c0 6.012-.73 9.82-2.414 12.65-1.686 2.83-4.277 4.595-7.804 6.596a.575.575 0 01-.284.072h-.017a.582.582 0 01-.285-.072c-3.526-2-6.118-3.766-7.802-6.595C2.73 15.503 2 11.693 2 5.682a.568.568 0 01.39-.541C6.202 3.858 9.517 2.09 12.164.117a.57.57 0 01.302-.116zm.036 1.253C9.908 3.134 6.75 4.818 3.153 6.073c.036 5.665.746 9.167 2.238 11.674 1.486 2.495 3.795 4.125 7.12 6.028 3.325-1.903 5.633-3.532 7.12-6.028 1.491-2.507 2.202-6.009 2.236-11.674-3.597-1.255-6.77-2.938-9.365-4.82zm5.767 7.5a3.813 3.813 0 011.141 2.75 3.848 3.848 0 01-1.127 2.735l-4.36 4.359c-.288.289-.66.44-1.044.44-.325 0-.66-.116-.932-.338l-.113-.102-4.359-4.359-.014-.013a3.86 3.86 0 01-1.113-2.723c0-1.031.412-2.021 1.14-2.75a3.883 3.883 0 015.39-.11 3.883 3.883 0 015.39.11zm-4.617.596l-.14.132-.014.014-.014.019-.014.008-.234.234a.485.485 0 01-.289.158l-.082.007-.082-.007a.537.537 0 01-.227-.092l-.062-.052-.275-.275-.141-.132a2.84 2.84 0 00-3.86.132 2.818 2.818 0 00-.825 2.007c0 .756.288 1.458.825 1.994l.013.014.014.013.014.014 4.317 4.304a.432.432 0 00.539.054l.066-.054 4.345-4.345a2.74 2.74 0 00.811-1.994 2.82 2.82 0 00-.684-1.857l-.14-.15-.142-.134a2.827 2.827 0 00-3.719-.012zm1.908.31c.257 0 .47.185.514.43l.009.093v.743h.742c.289 0 .523.247.523.522 0 .257-.185.47-.429.514l-.094.009h-.742v.742a.522.522 0 01-1.037.094l-.008-.094v-.742h-.743a.522.522 0 01-.094-1.037l.094-.008h.743v-.743c0-.289.233-.522.522-.522z" fill="#000"/></g><defs><clipPath id="clip0_11_21"><path fill="#fff" d="M0 0h25v25H0z"/></clipPath></defs></svg>