<svg width="25" height="25" fill="none" xmlns="http://www.w3.org/2000/svg"><path fill-rule="evenodd" clip-rule="evenodd" d="M8.433 10.506c.62.638.945 1.426.945 2.279-.001.758-.271 1.533-.761 2.18-.651.86-1.543 1.334-2.652 1.41a4.678 4.678 0 01-.353.012c-1.785 0-3.257-.959-4.38-2.854-.542-.914-.882-2-1.07-3.42-.057-.424-.088-.849-.118-1.26l-.04-.544L0 8.272l.001-.038C.04 6.998.137 5.57.837 4.247 2.03 1.992 3.833.902 6.193 1.007c.938.042 1.7.28 2.328.727 1.178.838 1.79 2.118 1.822 3.804a4.013 4.013 0 01-.294 1.63c-.125.3-.446.43-.718.293-.272-.137-.39-.49-.266-.79a2.69 2.69 0 00.196-1.108c-.024-1.286-.458-2.211-1.328-2.83-.468-.333-1.035-.504-1.784-.537-1.955-.088-3.387.78-4.377 2.65-.511.964-.646 2.054-.688 3.39l.04.522c.03.41.057.797.108 1.182.165 1.243.453 2.178.906 2.942.921 1.555 2.061 2.315 3.477 2.315.093 0 .187-.003.283-.01.81-.055 1.428-.377 1.887-.984.562-.742.832-1.875-.093-2.829a.638.638 0 01-.024-.841.507.507 0 01.765-.027zm-.909-2.908a4.548 4.548 0 00-.443-.851c.222-.197.365-.465.469-.66l.47-.884a.42.42 0 00-.129-.542c-.172-.11-.393-.048-.493.141l-.47.884a1.964 1.964 0 01-.262.407c-.157-.266-.284-.536-.339-.835-.039-.214-.229-.354-.425-.31-.195.043-.322.252-.282.467.114.624.426 1.103.727 1.566.197.303.386.592.504.903a1.665 1.665 0 01.126.665 1.68 1.68 0 01-.196.745c-.187.363-.488.69-.84.965l-1.383-.704-.474-.149c-.192-.06-.392.062-.446.273-.055.21.056.43.248.49l.42.132.874.444a4.687 4.687 0 01-.887.355c-.193.054-.31.27-.26.482.04.18.187.3.348.3.03 0 .06-.004.09-.013a5.56 5.56 0 001.605-.757l.002-.001a.365.365 0 00.21-.152c.464-.351.868-.782 1.121-1.275a2.6 2.6 0 00.264-.804c.772.344 1.61.835 2.178 1.61 1.035 1.413.965 3.454.724 4.918-.115.703-.283 1.42-.446 2.112-.26 1.112-.53 2.262-.612 3.45a11.182 11.182 0 00.2 3.003c.053.265.268.445.505.445a.467.467 0 00.114-.014c.28-.07.455-.375.392-.682a9.954 9.954 0 01-.177-2.667c.075-1.087.321-2.138.582-3.25.167-.713.34-1.45.463-2.194.28-1.698.344-4.088-.937-5.838-.854-1.166-2.12-1.776-3.135-2.175zM25 8.234c-.038-1.236-.136-2.665-.836-3.987-1.194-2.255-2.996-3.345-5.356-3.24-.938.042-1.7.28-2.328.727-1.178.838-1.79 2.118-1.822 3.805-.01.587.088 1.135.294 1.63.125.298.446.429.718.292.272-.137.39-.49.266-.79a2.69 2.69 0 01-.196-1.108c.024-1.286.459-2.211 1.328-2.83.468-.333 1.035-.504 1.784-.537 1.955-.088 3.387.78 4.378 2.65.51.964.645 2.054.687 3.39l-.04.522c-.03.41-.057.797-.108 1.182-.166 1.243-.454 2.177-.907 2.942-.92 1.555-2.06 2.314-3.476 2.314a3.88 3.88 0 01-.283-.01c-.81-.055-1.428-.377-1.887-.983-.562-.742-.833-1.876.092-2.829a.638.638 0 00.025-.841.507.507 0 00-.765-.027c-.62.637-.946 1.426-.945 2.279 0 .758.271 1.533.761 2.18.65.86 1.543 1.334 2.651 1.41.12.009.238.013.354.013 1.785 0 3.257-.96 4.38-2.855.542-.914.882-2 1.071-3.42.056-.423.087-.848.117-1.26l.04-.543.004-.038L25 8.234zm-7.672.646c.04.273.129.541.264.804.253.493.657.924 1.12 1.276h.002a.36.36 0 00.21.15l.001.002c.52.356 1.094.615 1.606.757a.31.31 0 00.089.013.37.37 0 00.349-.3c.05-.212-.068-.428-.261-.482a4.696 4.696 0 01-.887-.354l.874-.445.42-.131c.192-.06.303-.28.248-.49-.054-.211-.254-.333-.445-.273l-.475.148-1.384.704c-.351-.276-.652-.602-.839-.965a1.668 1.668 0 01-.196-.744 1.659 1.659 0 01.062-.475 2.04 2.04 0 01.063-.19c.12-.312.308-.6.505-.904.301-.463.613-.942.727-1.566.04-.215-.088-.424-.283-.467-.195-.044-.385.096-.425.31-.054.299-.181.569-.338.835a1.968 1.968 0 01-.261-.407l-.47-.884c-.102-.189-.323-.252-.494-.141a.42.42 0 00-.13.542l.471.884c.104.195.247.463.47.66-.168.264-.329.54-.444.85-1.016.4-2.281 1.01-3.135 2.177-1.281 1.749-1.217 4.14-.937 5.837.123.745.296 1.481.463 2.194.26 1.113.508 2.163.582 3.25a9.957 9.957 0 01-.177 2.667c-.063.307.113.612.392.682a.45.45 0 00.114.014c.238 0 .452-.18.506-.445a11.19 11.19 0 00.2-3.003c-.082-1.188-.352-2.338-.613-3.45a31.82 31.82 0 01-.446-2.112c-.241-1.464-.311-3.505.724-4.919.568-.774 1.406-1.265 2.178-1.609z" fill="#000"/></svg>