<svg width="25" height="25" fill="none" xmlns="http://www.w3.org/2000/svg"><g clip-path="url(#clip0_11_23)"><path fill-rule="evenodd" clip-rule="evenodd" d="M.009 9.859c-.24-4.245 4.465-7.28 7.721-7.995a17.68 17.68 0 013.005-.318l.566-.007.579.007c1.215 0 2.391.306 3.527.602l.272.07c.506.117.976.234 1.448.352.316.069.646.165.976.284l.231.085-1.087 1.06-.086-.023a6.677 6.677 0 00-.342-.087c-.369-.056-.744-.157-1.107-.253-.132-.035-.26-.07-.385-.1-1.276-.341-2.418-.625-3.494-.662-1.414-.042-2.707.067-3.841.31-2.938.649-6.928 3.324-6.774 6.66.077 1.078.193 2.7 1.141 3.283.284.177.643.252 1.084.332.84.133 1.694.361 2.215 1.123.083.138.13.253.17.354.024.058.046.114.074.17l.048.097-.073.078c-.24.26-.472.514-.695.761l-.145.16-.105-.189a2.648 2.648 0 01-.091-.184.701.701 0 01-.044-.113c-.009-.022-.016-.046-.031-.076-.033-.094-.075-.166-.11-.226a1.938 1.938 0 01-.047-.088c-.256-.348-.734-.462-1.38-.583l-.24-.054c-.432-.095-.876-.192-1.264-.439C.202 13.345.085 11.247.01 9.86zm11.85-1.928c.374-.314.953-.41 1.58-.272l.084.018.974-.969-.225-.084c-1.2-.453-2.456-.315-3.274.363-.263.21-.312.61-.11.912l.042.042a.81.81 0 00.453.142c.162 0 .324-.05.477-.152zm-4.952-.01l.078-.023c.372-.11.794-.237 1.18-.506.766-.525.945-1.336 1.103-2.05l.017-.078c.039-.159.079-.318.116-.504a.637.637 0 00-.073-.523.567.567 0 00-.4-.258l-.119-.022-.13.004a.58.58 0 00-.517.483c-.04.16-.08.358-.119.557-.105.526-.214 1.07-.604 1.354-.208.148-.446.224-.72.312l-.19.061c-.69.204-1.55.456-1.962 1.532-.126.282-.174.617-.144.997-.605.138-1.088.417-1.403.81-.33.412-.469.909-.424 1.532.054.319.321.56.623.56l.115-.004.129-.034a.635.635 0 00.418-.687c-.035-.245.003-.424.113-.534l.036-.055c.088-.237.451-.412.913-.449h.21l.353.118.182-.002a.449.449 0 00.128-.028c.382.106.784.25 1.256.447.383.174.786.328 1.356.518.32.087.654.119 1.02.13h.063l.044-.044c.44-.43.9-.872 1.376-1.327l-.188-.242c-.542.338-1.329.437-1.956.246-.385-.116-.78-.274-1.158-.425-.61-.267-1.261-.534-1.946-.627a.745.745 0 01.071-.472c.164-.46.454-.561 1.153-.767zm12.503 4.272l-.008-.01c-.21-.266-.614-.311-.917-.106a4.215 4.215 0 00-.225.183 3.69 3.69 0 01-.214.175l-.096.081c-.409.343-.796.666-1.214.666-.098 0-.2-.012-.301-.038l-.154-.039-.034.155c-.065.29-.163.596-.293.91l-.066.164.17.044c.24.062.461.092.67.092h.002c.032.002.064.003.097.003.946 0 1.605-.612 2.093-1.066.113-.112.219-.218.38-.302.262-.21.31-.61.11-.912zm4.473-2.968a17.247 17.247 0 00-.256-.433l-.26-.438a1.094 1.094 0 01-.096-.209c-.027-.066-.054-.136-.078-.174a1.554 1.554 0 00-.207-.462 6.27 6.27 0 00-.554-.884l-.107-.145-.956.949.076.106c.141.2.263.397.355.562.021.065.055.13.086.196.027.052.053.104.079.177.076.153.153.345.235.548.16.32.361.641.557.956.443.68.917 1.483.917 2.383 0 .234-.03.467-.065.739l-.014.104c-.04.33-.078.685-.078 1.04.036 1.537-.384 2.525-1.215 2.863a.93.93 0 00-.066.013c-.052.01-.113.024-.192.024l-.055.008c-.336.04-1.039.122-1.212.86-.042.212-.042.415-.042.58l-.008.29a.69.69 0 01-.218.42c-.495.459-1.672.625-2.56.546-.37 0-.66.274-.66.624 0 .372.272.663.61.663h.001c.087.006.253.015.472.015.78 0 2.22-.117 3.05-.916.407-.365.64-.907.64-1.486v-.351c.035-.003.072-.005.102-.005.185-.009.41-.042.622-.126 1.406-.538 2.098-1.919 2.057-4.102 0-.265.04-.579.079-.883.039-.312.078-.636.078-.998 0-1.198-.553-2.169-1.117-3.054zM4.041 21.838l-2.92.82h-.022a.55.55 0 01-.254-.065l-.052-.033a.568.568 0 01-.15-.15l-.035-.04a.167.167 0 01-.015-.042.524.524 0 01-.055-.229l.02-.112a.582.582 0 01.1-.232v-.006l.045-.046L21.248 1.159a.576.576 0 01.795 0l1.789 1.788c.105.106.164.25.164.397 0 .149-.06.293-.167.397l-8.521 8.52c.01 1.142-.585 6.147-11.267 9.577zm8.905-10.791L3.004 20.99c4.487-1.357 7.704-3.12 9.569-5.243 1.438-1.64 1.601-2.999 1.61-3.463l-1.237-1.237zM22.2 3.784l.44-.44-.996-.996-.44.441.996.995zm-1.79-.202l-6.67 6.671.995.995 6.672-6.67-.996-.996zm-7.825 15.075l-.153-.202-.12.092-.036-.048-.935.65.098.129c.897 1.184 1.744 2.303 2.294 3.872.098.245.345.41.613.41.047 0 .15 0 .23-.055a.6.6 0 00.355-.312.711.711 0 00.032-.505c-.565-1.618-1.443-2.797-2.378-4.031zm1.464-1.693l-.082.086.063.103c.134.214.316.496.548.787.703.878 1.87 1.467 2.903 1.467a2.76 2.76 0 001.126-.25.666.666 0 00.304-.874.66.66 0 00-.866-.307c-.828.366-1.934-.163-2.485-.86-.228-.261-.398-.548-.596-.88l-.093-.157-.265.158.036.063-.134.163c-.142.165-.294.331-.459.501zm6.674-7.777a.594.594 0 00-.258-.688l-.104-.067-2.297 2.283.336.024c.086.007.172.01.255.01.446 0 .82-.097 1.132-.293.469-.255.81-.72.936-1.269z" fill="#000"/></g><defs><clipPath id="clip0_11_23"><path fill="#fff" d="M0 0h25v25H0z"/></clipPath></defs></svg>