<svg width="25" height="25" fill="none" xmlns="http://www.w3.org/2000/svg"><g clip-path="url(#clip0_11_4)"><path fill-rule="evenodd" clip-rule="evenodd" d="M2.506 19.946l.113.057.072-.105c.069-.1.138-.195.206-.284.09-.118.184-.238.28-.358l.115-.143-.167-.08a4.89 4.89 0 01-1.539-1.14c2.85-.875 3.273-3.995 3.682-7.017l.007-.057a15.04 15.04 0 01.891-3.874 6.553 6.553 0 015.431-3.779c.332-.019.669-.02 1.016.001a6.982 6.982 0 014.654 1.556l.1.082.786-.76-.123-.104a8.182 8.182 0 00-5.463-1.924 8.67 8.67 0 00-1.08 0A7.78 7.78 0 005.17 6.484a15.695 15.695 0 00-.97 4.402l-.006.04c-.423 2.922-.823 5.68-3.76 6.008a.692.692 0 00-.354.281.553.553 0 00.003.578 6.308 6.308 0 002.423 2.153zM9.162 9.302a3.41 3.41 0 011.553-.378h.007a4.628 4.628 0 011.855.461l.107.03.812-.809-.175-.091a5.847 5.847 0 00-2.575-.669 4.592 4.592 0 00-2.095.439A4.163 4.163 0 006.37 12.25c.008.938.09 1.883.245 2.809l.047.282.2-.205c.238-.243.482-.493.734-.748l.05-.052-.01-.07a17.488 17.488 0 01-.145-2.043 2.989 2.989 0 011.671-2.921zm9.339 2.897a.547.547 0 00-.383-.155h-.029a.537.537 0 00-.54.561 12.262 12.262 0 01-1.725 6.97 4.004 4.004 0 01-3.285 1.842 4.06 4.06 0 01-2.368-.842l-.077-.06-.085.05c-.257.15-.525.297-.807.445l-.182.095.15.14a5.104 5.104 0 003.369 1.366 5.037 5.037 0 004.186-2.43 13.085 13.085 0 001.945-7.583.543.543 0 00-.169-.399zm6.428 5.042c-.128-.195-.279-.297-.416-.297h-.005l-.272-.043c-2.606-.486-3.008-3.423-3.394-6.242v-.32l-.002-.023a.593.593 0 00-.654-.484l-.098.021a.58.58 0 00-.38.616v.336l.005.054c.402 2.875.856 6.125 3.726 7.033a4.912 4.912 0 01-3.636 1.602h-.037a6.696 6.696 0 01-1.102-.102c-.008-.002-.017-.002-.025-.002a.535.535 0 00-.533.463.561.561 0 00.081.436.563.563 0 00.372.235c.392.066.792.1 1.194.104a6.323 6.323 0 005.184-2.848.577.577 0 00-.008-.54zM3.875 22.645l-2.759.775h-.02a.518.518 0 01-.239-.061l-.049-.032a.524.524 0 01-.142-.14.497.497 0 01-.099-.295l.019-.105a.53.53 0 01.136-.269L20.128 3.114c.201-.2.55-.2.748 0l1.69 1.69a.527.527 0 01-.002.748L14.517 13.6c.01 1.079-.553 5.807-10.642 9.045zm8.411-10.192l-9.393 9.391c4.239-1.28 7.278-2.945 9.04-4.951 1.358-1.549 1.514-2.833 1.523-3.271l-1.17-1.17zm8.74-6.858l.416-.417-.94-.94-.417.416.941.94zm-1.689-.192l-6.301 6.301.94.94 6.302-6.3-.94-.941zm-3.232 9.322c-.004 0-.01 0-.016.002h-.143l-.051.008c-.152.059-.308.1-.466.124l-.119.038-.021.07a6.32 6.32 0 01-.246.63l-.032.07.04.066a.577.577 0 00.455.274.51.51 0 00.26-.033l.57-.158a.682.682 0 00.282-.286.533.533 0 00.004-.448.558.558 0 00-.517-.357z" fill="#000"/></g><defs><clipPath id="clip0_11_4"><path fill="#fff" d="M0 0h25v25H0z"/></clipPath></defs></svg>