<svg width="25" height="25" fill="none" xmlns="http://www.w3.org/2000/svg"><path fill-rule="evenodd" clip-rule="evenodd" d="M3.51 18.738a3.505 3.505 0 01-2.998-1.692 3.507 3.507 0 010-3.648 3.493 3.493 0 013.235-1.684h.393l-.058-.066a3.512 3.512 0 01-.646-3.817 3.511 3.511 0 013.215-2.095h3.405L10 5.666a3.42 3.42 0 01-.902-2.335V1.548a.565.565 0 01.555-.482c.272 0 .505.194.554.462l.002 1.804a2.407 2.407 0 002.404 2.404l4.1-.002-.189.188-.904.892-.031.032-8.896.001a2.406 2.406 0 00-2.404 2.404 2.407 2.407 0 002.404 2.404h3.976l-.193.189c-.31.302-.612.6-.905.89l-.032.033H3.74a2.4 2.4 0 00-2.243 1.141 2.397 2.397 0 000 2.51 2.393 2.393 0 002.234 1.142h1.336l-.147.18c-.242.294-.467.577-.675.848l-.104.138-.4.004a4.052 4.052 0 01-.231.008zm2.7-9.48c0 .272.195.505.482.556l5.9-.002 1.125-1.11-7.045.003a.563.563 0 00-.462.554zm-3.02 6.23a.557.557 0 00.458.254.49.49 0 00.092-.01l2.934.002.033-.035c.265-.29.542-.585.832-.891l.176-.186H3.749a.58.58 0 00-.56.246.559.559 0 000 .62zM13.869 3.895l4.727-.002.032-.031c.294-.288.569-.553.824-.798l.143-.137-.192-.049a3.545 3.545 0 00-.872-.11h-4.664l-.014.001a.697.697 0 01-.693-.694v-.527a.55.55 0 00-1.097 0v.526a1.82 1.82 0 00.524 1.286c.336.34.804.535 1.282.535zm-8.626 17.72l-2.76.777h-.015a.469.469 0 01-.268-.087.494.494 0 01-.135-.132c.002.005-.009-.003-.02-.018l-.022-.029v-.024a.48.48 0 01-.05-.204l.019-.099a.48.48 0 01.127-.25L21.577 2.09a.503.503 0 01.7 0l1.695 1.694a.488.488 0 01-.003.7l-8.08 8.08c.014 1.046-.504 5.794-10.646 9.05zm8.445-10.237l-9.544 9.546c4.328-1.293 7.428-2.98 9.217-5.018 1.388-1.58 1.53-2.89 1.536-3.319l-1.209-1.209zm8.764-6.774l.468-.469-.995-.996-.466.47.993.995zm-1.694-.296l-6.37 6.37.995.995 6.37-6.37-.995-.995zM9.206 20.72l-.06.026-.005.064c-.01.107-.015.216-.015.324v2.926a.567.567 0 00.448.533l.1.011.103-.014a.56.56 0 00.43-.591v-2.923c0-.232.034-.457.098-.668l.075-.244-.228.112c-.306.152-.624.301-.946.444zm3.667-2.05l8.026.002a.55.55 0 00.548-.55.56.56 0 00-.545-.562h-6.656l-.031.028c-.335.306-.697.603-1.076.884l-.266.198zm9.01-6.07a.553.553 0 00-.4-.946h-3.438l-1.115 1.11 4.555.002c.148 0 .29-.058.398-.165zm1.548 2.598l-.052-.036.05-.031a3.504 3.504 0 001.418-3.939 3.548 3.548 0 00-3.377-2.504h-.03l-.41-.002-1.133 1.126 1.588.002a2.406 2.406 0 012.403 2.404 2.406 2.406 0 01-2.403 2.405l-5.009-.002-.03.064a7.2 7.2 0 01-.487.877l-.108.17h5.634a2.406 2.406 0 010 4.809h-5.921c-.923 0-1.828.376-2.48 1.031a3.479 3.479 0 00-1.02 2.485.547.547 0 101.097-.012 2.406 2.406 0 012.403-2.363h5.922a3.547 3.547 0 003.361-2.548 3.5 3.5 0 00-1.416-3.936z" fill="#000"/></svg>