<svg width="25" height="25" fill="none" xmlns="http://www.w3.org/2000/svg"><g clip-path="url(#clip0_11_60)"><path fill-rule="evenodd" clip-rule="evenodd" d="M9.057 8.721a3.97 3.97 0 002.766-4.284A3.972 3.972 0 007.984 1C5.871 1 3.137 1.633.733 6.58a9.698 9.698 0 00.36 8.17 4.053 4.053 0 003.456 1.994h.033A3.965 3.965 0 007.37 15.59a3.977 3.977 0 001.156-2.825 5.534 5.534 0 00-.597-2.284c.031-.027.066-.053.104-.08a.837.837 0 01.238-.14c.883.056 1.58.787 1.594 1.672v10.482a.525.525 0 00.152.415c.104.103.25.168.391.154a.517.517 0 00.448-.12.502.502 0 00.165-.436V11.932a2.849 2.849 0 00-2.19-2.739c.05-.09.094-.184.152-.311l.074-.16zm-2.383 1.24a.612.612 0 00-.268.365l-.005.036c0 .155 0 .33.158.424.508.527.786 1.22.781 1.955a2.912 2.912 0 01-2.786 2.936 2.99 2.99 0 01-2.516-1.506 8.548 8.548 0 01-.292-7.092c2.353-4.98 4.976-4.98 6.238-4.98.75.013 1.473.336 1.985.885a2.81 2.81 0 01.747 2.054A2.788 2.788 0 018.443 7.83a.679.679 0 00-.438.4 2.683 2.683 0 01-1.33 1.73zm17.6-3.39C21.872 1.632 19.139 1 17.024 1a3.97 3.97 0 00-3.93 3.976 4.116 4.116 0 002.864 3.903c.016.042.036.085.06.131.048.087.085.18.106.257a2.806 2.806 0 00-2.195 2.724l.001 10.483a.511.511 0 00.512.553l.038-.001a.513.513 0 00.49-.541V11.943a1.708 1.708 0 011.698-1.582h.044c.094.099.199.187.312.263a3.845 3.845 0 00-.599 2.144 3.977 3.977 0 001.134 2.8 3.972 3.972 0 002.782 1.176l.037.002a4.048 4.048 0 003.483-2.002 9.542 9.542 0 00.413-8.174zm-3.814 9.032h-.006a2.8 2.8 0 01-1.998-.846 2.824 2.824 0 01-.788-2.033 2.793 2.793 0 01.788-1.96.643.643 0 00.152-.438c-.009-.183-.132-.342-.281-.385a2.89 2.89 0 01-1.392-1.713c-.01-.248-.212-.451-.438-.459a2.88 2.88 0 01-2.262-2.797 2.806 2.806 0 01.787-2.027 2.805 2.805 0 012-.846h.004c1.256 0 3.87 0 6.248 4.973a8.55 8.55 0 01-.24 7.048 2.988 2.988 0 01-2.574 1.483z" fill="#000"/></g><defs><clipPath id="clip0_11_60"><path fill="#fff" d="M0 0h25v25H0z"/></clipPath></defs></svg>