<svg width="25" height="25" fill="none" xmlns="http://www.w3.org/2000/svg"><path fill-rule="evenodd" clip-rule="evenodd" d="M16.65 5.814c-.9-1.131-1.045-2.243-1.057-5.23V0h1.237l.005 1.306c.026 2.02.138 2.877.726 3.667l.076.102-.888.865-.1-.126zM4.852 12.44c0 .52.219.997.65 1.42-.538.678-.724 1.679-.475 2.592.057.227.139.448.242.66l.094.193.144-.16c.227-.25.465-.508.712-.771l.056-.062-.05-.177c-.169-.615-.006-1.309.39-1.654.347-.318.843-.373 1.47-.154l.087.03.064-.066c.236-.237.477-.476.725-.72l.138-.137-.275-.151c-.928-.391-1.78-.425-2.476-.1-.226-.23-.336-.475-.336-.743 0-.219.093-.447.274-.673.354.18.725.268 1.133.268.427 0 .91-.11 1.36-.306.122-.054.243-.117.415-.21l.767-.421c1.198-.65 1.902-.924 2.51-.976l.052-.005.198-.197.726-.726.191-.191-.265-.054a3.58 3.58 0 00-.7-.073c-1.07 0-2.064.443-3.634 1.316l-.565.309-.195.095c-.286.125-.608.2-.86.2-.306 0-.571-.095-.827-.294-.383-.334-.535-1.005-.37-1.63.169-.59.54-1.11 1.32-1.86C9.36 5.327 9.72 4.677 9.752.996L9.757 0H8.52l-.002.558C8.51 4.02 8.371 4.51 7.035 5.79l-.342.32c-.959.92-1.426 1.601-1.664 2.434-.236.893-.076 1.846.416 2.52l-.05.055c-.36.422-.542.867-.542 1.32zm15.605-3.094l-2.73 2.71.382-.02c.278-.016.54-.073.78-.173.144.218.228.444.228.62 0 .216-.085.425-.252.625-.664-.26-1.457-.205-2.296.166l-.058.027-.635.596.003.062c.003.11-.003.412-.125.882l-.085.326.295-.162c.115-.063.232-.129.35-.196l.56-.306.193-.097c.639-.284 1.155-.296 1.529-.046l.048.028c.036.027.071.055.107.086.407.355.567 1.022.4 1.657-.17.59-.541 1.111-1.322 1.86-1.767 1.637-2.152 2.302-2.204 5.627L15.617 25h1.238l.01-1.642c.05-2.53.324-3.045 1.474-4.146l.342-.321c.96-.92 1.426-1.601 1.663-2.433.264-.996.046-2.033-.576-2.719.333-.381.508-.813.508-1.257 0-.406-.182-.87-.493-1.266.332-.384.551-.895.622-1.452l.053-.419zm-10.862 12l-.03-.198-.18.09c-.284.144-.58.287-.892.429l-.095.044.012.105c.062.545.095 1.238.105 2.243l.004.941h1.238l-.002-.582c-.007-1.448-.055-2.366-.16-3.072zM23.094 5.334a.52.52 0 01-.158.374l-8.025 8.024v.127c-.037 1.303-.915 5.78-10.612 8.892l-2.75.774h-.02a.52.52 0 01-.24-.06l-.049-.032a.534.534 0 01-.142-.14l-.033-.04a.155.155 0 01-.013-.039A.494.494 0 011 23l.018-.106c.023-.11.07-.2.137-.268l19.35-19.35c.2-.2.547-.199.749.001l1.685 1.684c.1.1.155.236.155.374zM12.686 12.59l-9.364 9.365c4.226-1.278 7.256-2.939 9.012-4.939 1.355-1.544 1.51-2.824 1.518-3.26l-1.166-1.166zm8.716-6.84l.414-.415-.938-.938-.413.415.937.938zm-1.685-.191l-6.283 6.284.937.936 6.284-6.282-.938-.938z" fill="#000"/></svg>