<svg width="25" height="25" fill="none" xmlns="http://www.w3.org/2000/svg"><g clip-path="url(#clip0_11_12)"><path fill-rule="evenodd" clip-rule="evenodd" d="M16.494 14.18a.566.566 0 01.096-.764.593.593 0 01.434-.225l.013-.001c.174 0 .338.077.444.208a7.18 7.18 0 01.105 8.263l-.042.04c-.061.04-.27.163-.414.163h-.053a.574.574 0 01-.277-.005l-.042-.017a.578.578 0 01-.26-.374.534.534 0 01.094-.44 5.856 5.856 0 00-.098-6.847zM24.97 3.867a2.37 2.37 0 01-.973 1.612l-3.86 2.889c.187.445.055.976-.332 1.278l-.052.025-.126.035a1.034 1.034 0 01-.647.21c-.341 0-.657-.17-.848-.459l-.116-.157-2.483 1.888a.622.622 0 01.066-.005l.167.01a16.78 16.78 0 017.676 5.92c.003 0 .127.13.164.275a.603.603 0 01-.128.478c-4.659 6.305-10.396 6.696-11.498 6.71h-.11v.07h-.145c-.67 0-6.675-.186-11.47-6.63a.424.424 0 01-.214-.296.475.475 0 01.01-.405l.351-.47a15.3 15.3 0 0110.135-6.235c.274-.03.49.116.594.332.066-.24.217-.452.43-.591a.176.176 0 00.076-.178 1.246 1.246 0 01.495-1.308l3.503-2.63-.132-.226a1.058 1.058 0 01-.2-.783c.041-.288.19-.54.422-.712l.163-.105c.174-.13.4-.205.629-.205h.011c.239.016.458.094.647.228l3.87-2.937a2.512 2.512 0 011.49-.493c.015-.002.024 0 .037 0 .77 0 1.492.373 1.938 1.003.397.527.566 1.206.46 1.862zm-13.066 9.815a2.916 2.916 0 00-.668 1.42.655.655 0 001.312-.024 3.176 3.176 0 00-.644-1.396zm1.91-2.602l3.478-2.63-.975-1.286-3.509 2.597a.148.148 0 00-.045.153c.1.404-.003.821-.266 1.125.158-.068.33-.106.504-.108.214.005.42.06.604.157-.01-.006.013-.006.034-.012l.034-.009.035.008a.337.337 0 00.105.005zm9.437-6.537c.297-.21.5-.534.56-.889a1.371 1.371 0 00-.24-1.017 1.368 1.368 0 00-1.875-.248l-3.788 2.889.493.67a.583.583 0 01-.094.787.788.788 0 01-.366.119h-.027a.53.53 0 01-.44-.233l-.558-.768-.12-.103-.319-.426-.03.042.42.693.025-.02 2.034 2.716.021-.008a1.067 1.067 0 01.084-.98l.119-.123 4.1-3.101zM11.113 11.44a.575.575 0 01-.42.298 14.39 14.39 0 00-9.35 5.849c4.418 5.718 9.781 5.884 10.38 5.884h.253c.588 0 5.848-.168 10.309-5.94a15.124 15.124 0 00-6.89-5.267.564.564 0 01-.324-.719l.004-.01-.581.442a1.28 1.28 0 01-1.377.115h-.171l-.036-.023a1.25 1.25 0 01-.653.26h-.02l.12.115a4.79 4.79 0 011.019 1.351.547.547 0 01.436-.24.594.594 0 01.5.116 4.629 4.629 0 012.134 3.876 4.557 4.557 0 01-1.29 3.278 4.577 4.577 0 01-3.365 1.362h-.07a4.596 4.596 0 01-4.349-3.38 4.598 4.598 0 011.97-5.144.626.626 0 01.316-.093h.016c.185 0 .356.091.458.248l.016.033a.635.635 0 010 .401.543.543 0 01-.241.344 3.492 3.492 0 00-1.506 3.91 3.495 3.495 0 003.344 2.52 3.498 3.498 0 003.344-2.52 3.496 3.496 0 00-1.37-3.82c.033.119.062.24.086.363.003.52-.202.996-.558 1.335-.358.34-.851.513-1.335.494l-.02-.144v.144a1.798 1.798 0 01-1.261-.533 1.78 1.78 0 01-.514-1.27 4.786 4.786 0 011.452-2.632l.2-.19a1.062 1.062 0 01-.474-.38 1.12 1.12 0 01-.182-.433zm-4.241 2.867a.52.52 0 00.008-.403.619.619 0 00-.268-.366l-.168-.07-.055-.011h-.003a.57.57 0 00-.47.246 7.153 7.153 0 00-1.246 3.858 6.972 6.972 0 001.132 3.871.564.564 0 00.47.264l.009.002.29-.03.056-.019a.507.507 0 00.245-.306.58.58 0 00-.011-.476 6.041 6.041 0 01.01-6.56z" fill="#000"/></g><defs><clipPath id="clip0_11_12"><path fill="#fff" d="M0 0h25v25H0z"/></clipPath></defs></svg>