<svg width="25" height="25" fill="none" xmlns="http://www.w3.org/2000/svg"><g clip-path="url(#clip0_11_53)"><path fill-rule="evenodd" clip-rule="evenodd" d="M1.95 5.912a.512.512 0 00-.411.221C1.476 6.223 0 8.378 0 10.03c0 1.082.879 1.96 1.96 1.96s1.96-.879 1.96-1.96c0-1.77-1.392-3.699-1.552-3.914a.495.495 0 00-.418-.204zm-.93 4.119c0-.871.602-2.049.953-2.66.388.647.927 1.717.927 2.66a.946.946 0 01-.946.939.944.944 0 01-.934-.94zm23.835 5.301L22.547 12.9c-.016-.59-.123-2.333-.821-3.195a26.4 26.4 0 01-1.636-2.46c-.176-.284-.347-.562-.512-.822a10.622 10.622 0 00-1.323-1.596 11.223 11.223 0 01-1.142-1.332 9.52 9.52 0 01-.808-1.574c-.267-.609-.498-1.134-.833-1.489a1.336 1.336 0 00-1.418-.36c-.677.233-1.136.94-1.227 1.89-.14 1.415.192 2.702.937 3.624l.035.043c-.87-.43-1.858-.927-2.184-1.128-.349-.207-2.45-1.244-4.498-2.218C2.97.317 2.825.36 2.606.416c-.309.08-1.02.455-1.246 1.103-.15.43-.062.913.224 1.257.303.412 1.66 1.323 4.146 2.782-.461.545-.822 1.373-.87 1.828-.044.413.152.843.585 1.28-.482.485-1.136 1.356-.83 2.292.175.535 1.013 1.069 1.733 1.442a3 3 0 00-.438 1.345c-.018.71.397 1.04.805 1.27.14.08.285.153.44.23l.138.071c.215.11.438.224.695.377.388.232.956.64 1.718 1.193 1.264.917 2.838 2.057 3.97 2.552 1.495.65 3.774 1.085 4.496 1.212l4.226 4.073c.091.089.214.14.345.144a.51.51 0 00.367-.155.503.503 0 00.149-.36.504.504 0 00-.15-.362l-4.34-4.183a.547.547 0 00-.287-.14l-.21-.036a22.325 22.325 0 01-.402-.074l-.357-.073c-.829-.17-2.375-.525-3.434-.984-.99-.422-2.458-1.485-3.637-2.34l-.53-.383c.279.039.561.063.842.072a2.25 2.25 0 00.4-.039c.495-.12.903-.477 1.09-.95a1.672 1.672 0 00-.143-1.512l-.012-.018c.257-.121.467-.322.602-.581.281-.563.325-1.087.133-1.558a1.719 1.719 0 00-.101-.206c.356-.161.636-.455.78-.828.111-.315.195-.954-.493-1.71-.666-.732-2.385-1.364-2.703-1.475l-.108-.06a946.341 946.341 0 00-3.188-1.787c-3.697-2.15-4.474-2.773-4.619-2.966a.303.303 0 01-.084-.282.977.977 0 01.457-.434C3.805 1.8 10.441 5 11.094 5.386c.57.345 2.884 1.471 3.644 1.842l.007.003c.049.112.087.22.116.317.077.45.077.908.001 1.357a.514.514 0 00.682.578.517.517 0 00.325-.416l.007-.048c.098-.711.094-1.288-.01-1.71a3.402 3.402 0 00-.292-.807 14.045 14.045 0 00-1.006-1.566c-.332-.407-.866-1.321-.713-2.876.063-.64.333-.953.542-1.026a.315.315 0 01.33.086c.217.227.433.724.642 1.202.244.601.543 1.182.893 1.731.374.518.795 1.014 1.252 1.474.445.44.849.924 1.198 1.438.153.24.313.5.475.766l.025.038a27.216 27.216 0 001.71 2.566c.493.61.602 2.202.602 2.764 0 .13.05.253.14.35l2.441 2.582a.51.51 0 00.876-.199.519.519 0 00-.126-.5zM7.3 12.81c.761.263 2.125.678 3.296.734.034.003.07.002.086 0 .23.015.434.143.55.35a.649.649 0 01.055.588.56.56 0 01-.394.34c-.394.093-2.24-.298-3.733-.722-.23-.14-.228-.198-.226-.32.042-.348.168-.682.366-.97zm.015-1.075c-.912-.409-1.676-.94-1.725-1.085-.137-.424.274-.988.726-1.393 1.056.46 3.396 1.467 4.024 1.622.236.06.565.13.913.192.266.08.49.268.606.5a.88.88 0 01-.091.728c-.086.172-.432.258-.982.235h-.076c-.896-.05-2.23-.364-3.395-.8zm3.28-1.85c-.539-.13-2.93-1.161-4.1-1.678-.327-.22-.631-.572-.614-.714.04-.387.505-1.206.752-1.414 1.226.703 2.354 1.328 2.965 1.667l.132.073.183.093c.46.16 1.874.726 2.327 1.224.246.265.353.514.3.67a.579.579 0 01-.47.319c-.16.016-.72-.056-1.475-.24z" fill="#000"/></g><defs><clipPath id="clip0_11_53"><path fill="#fff" d="M0 0h25v25H0z"/></clipPath></defs></svg>