<svg width="25" height="25" fill="none" xmlns="http://www.w3.org/2000/svg"><path fill-rule="evenodd" clip-rule="evenodd" d="M19.988 10.538c.778-.694 1.135-2.365.974-2.858l-.011-.036c-.253-.822-1.025-1.767-4.79-1.784-.07.002-.137 0-.203.002a3.127 3.127 0 00-1.119-1.765c.649-.747 1.273-1.702.82-2.673C15.075.176 13.803-.166 13.102.07c-.471.159-.621.531-.608.825-.208.295-1.51 1.046-2.223 1.456-.49.283-1.045.603-1.588.94C6.724 4.503 6.37 6.09 6.31 6.523c-.888.816-1.553 2.026-1.978 3.596-.71 2.622-.28 5.575 1.246 8.54 1.1 2.137 2.365 3.529 2.495 3.668a8.64 8.64 0 001.574 1.594c.93.715 1.852 1.078 2.744 1.078.05 0 .1-.002.15-.004 1.326-.06 2.491-.916 3.464-2.546l.007-.01c3.033-5.081 4.289-7.185 3.13-10.08a18.886 18.886 0 00-.74-1.645c.02.01.039.02.06.029a1.31 1.31 0 001.525-.206zM9.518 6.42c.828 0 1.452.244 1.494.26a.555.555 0 00.718-.31.57.57 0 00-.304-.736c-.078-.032-1.768-.716-3.576-.054.266-.407.7-.89 1.405-1.327.521-.322 1.05-.626 1.56-.92 1.61-.93 2.62-1.512 2.772-2.206a.99.99 0 01.264.047c.205.064.582.244.812.734.235.507-.528 1.322-1.088 1.919-.485.52-.836.894-.876 1.323a.577.577 0 00.126.42.54.54 0 00.37.202c.301.021.573-.19.596-.476.007-.019.045-.098.285-.366.453.314.662.722.759 1.012-1.695.243-2.323.974-2.703 1.417l-.122.139a2.173 2.173 0 00-2.445.142.575.575 0 00-.082.794c.19.24.538.277.776.084.023-.018.534-.416 1.217-.032.779.44 1.22-.076 1.487-.384.381-.445.957-1.115 3.144-1.115h.049c2.842.013 3.603.548 3.743.991.021.237-.237 1.42-.678 1.743-.077.058-.142.075-.273.008-1.814-.907-3.513-.773-5.504.434-.62.377-1.056.841-1.288 1.364a.676.676 0 00-.032.07c-.183.447-.671 1.503-1.204 2.287-.08.099-.152.2-.213.292a2.436 2.436 0 01-.47.484c-.467.325-.89.48-1.167.439a.441.441 0 00-.499.372.44.44 0 00.366.51c.317.05.665-.007 1.042-.163-.083.332-.101.55-.102.562-.011.154.053.3.172.393a.451.451 0 00.263.09.441.441 0 00.435-.409c.01-.091.11-.923.66-1.746.211-.274.431-.61.654-1.001.122.47.298.91.435 1.247l.06.152c.313.778-.385 1.593-1.124 2.457l-.031.035c-.11.129-.22.257-.324.384-1.177 1.43-.308 2.367-.275 2.4.227.258.464.286.728.085.285-.219.318-.524.087-.845-.002-.003-.216-.283.305-.915.089-.106.18-.214.274-.323l.067-.08c.487-.568 1.03-1.202 1.303-1.907.445.841.715 1.461.766 1.762a.435.435 0 00.504.365.447.447 0 00.355-.515c-.143-.857-1.228-2.742-1.677-3.492-.604-1.497-.896-2.54.494-3.384 1.043-.634 1.94-.9 2.815-.857.168.195.621.822 1.298 2.51.904 2.263-.015 3.982-3.057 9.077-.768 1.286-1.633 1.96-2.568 2.005-.034.002-.066.002-.099.002-1.79 0-3.435-2.213-3.45-2.233a.518.518 0 00-.047-.059c-.05-.053-5.046-5.462-3.504-11.159.495-1.826 1.321-3.042 2.455-3.617a3.666 3.666 0 011.667-.382z" fill="#000"/></svg>