<svg width="25" height="25" fill="none" xmlns="http://www.w3.org/2000/svg"><g clip-path="url(#clip0_11_58)"><path fill-rule="evenodd" clip-rule="evenodd" d="M8.26 19.366h1.994v1.96a.62.62 0 00.596.598h3.142a.62.62 0 00.597-.598v-1.96h1.961a.62.62 0 00.598-.598v-3.14a.62.62 0 00-.598-.598h-1.96v-1.96a.62.62 0 00-.598-.597h-3.134a.664.664 0 00-.113 0h-.006a.612.612 0 00-.485.596v1.961H8.26a.62.62 0 00-.597.598v3.14a.62.62 0 00.597.598zm5.732-3.14h1.96v1.946h-1.96a.62.62 0 00-.597.596v1.963h-1.948v-1.963a.62.62 0 00-.596-.596H8.857v-1.947h1.994a.62.62 0 00.596-.597v-1.962h1.948v1.962a.62.62 0 00.597.597zm7.851-6.816c0-1.128-.346-2.011-.999-2.555-.623-.515-1.402-.674-2.081-.762-.301-.039-.604-.066-.87-.09a9.657 9.657 0 01-.873-.102.884.884 0 01-.323-.115l-.003-.002V4.307h1.411a.62.62 0 00.596-.597V.601a.62.62 0 00-.596-.596H6.715a.608.608 0 00-.149 0l-.01.002A.615.615 0 006.109.6v3.11a.62.62 0 00.597.596h1.507v1.53l.001.012-.006.004a.748.748 0 01-.322.144c-.242.055-.585.085-.982.12-.24.02-.498.043-.758.073-.707.083-1.45.206-2.08.696C3.378 7.423 3 8.32 3 9.41v14.994a.62.62 0 00.597.596h17.649a.62.62 0 00.597-.596l-.002-14.295a.55.55 0 00.002-.278V9.41zm-1.193 1.115v13.281H4.194V10.525H20.65zm-3.142-9.326v1.914H7.302V1.2h10.206zm-8.516 5.55a1.29 1.29 0 00.416-.966V4.307H15.5v1.476c0 .354.172.713.45.936.228.183.505.305.844.372.33.065.687.084 1.035.102.26.014.528.028.784.061.632.08 1.12.26 1.448.533.283.234.572.602.587 1.544H4.194c.016-.91.304-1.258.585-1.477.32-.25.844-.424 1.515-.502.224-.027.457-.043.683-.058.392-.026.798-.054 1.171-.138.361-.082.621-.208.844-.407z" fill="#000"/></g><defs><clipPath id="clip0_11_58"><path fill="#fff" d="M0 0h25v25H0z"/></clipPath></defs></svg>