<svg width="25" height="25" fill="none" xmlns="http://www.w3.org/2000/svg"><g clip-path="url(#clip0_11_31)"><path fill-rule="evenodd" clip-rule="evenodd" d="M10.793 13.693l.001 7.887a2.285 2.285 0 01-2.088 2.26l-1.045.001H7.47v-.084a7.974 7.974 0 01-5.855-2.29C.028 19.724-.39 17.05.364 13.511 1.59 7.866 4.29 4.164 8.174 2.804c.215-.07.434-.104.657-.104.404 0 .803.136 1.126.383.498.375.8.973.806 1.597v2.507a.582.582 0 01-1.162 0V4.682a.775.775 0 00-.324-.652.77.77 0 00-.446-.09 1.211 1.211 0 00-.318 0c-1.94.584-5.475 2.65-7.012 9.838-.659 3.112-.357 5.455.894 6.962a6.761 6.761 0 005.22 1.845h.98a1.102 1.102 0 001.007-1.1v-7.779a.594.594 0 01.573-.597.63.63 0 01.618.584zm5.825 2.122a.596.596 0 00.597.574h.015l.015-.004a.572.572 0 00.49-.625v-1.848l1.955.661.058.01a.565.565 0 00.547-.366.482.482 0 00.008-.446.553.553 0 00-.33-.308l-2.48-.887-4.457-4.58V2.58a.582.582 0 00-1.164 0v5.507l-4.409 4.44-2.412.855a.585.585 0 00-.381.715c.013.16.135.392.72.392l1.893-.653v1.845a.582.582 0 001.162 0v-2.519l4.054-4.038 4.12 4.178v2.512zm8.02-2.383c-1.667-7.64-5.62-10.007-7.867-10.746a2.312 2.312 0 00-.566-.001h-.01a2.08 2.08 0 00-1.179.364 2 2 0 00-.81 1.617v2.6a.582.582 0 001.163 0V4.77a.767.767 0 01.326-.648.887.887 0 01.522-.168.884.884 0 01.207-.007c1.978.66 5.524 2.817 7.043 9.859.626 3.208.335 5.475-.876 6.917a6.88 6.88 0 01-5.2 1.847c-.333.018-.67.017-.997.002a1.15 1.15 0 01-1.024-1.087v-7.779a.582.582 0 00-1.163 0v7.78a2.291 2.291 0 002.106 2.262h1.011l.202-.021a7.993 7.993 0 005.917-2.349c1.537-1.76 1.938-4.433 1.194-7.946z" fill="#000"/></g><defs><clipPath id="clip0_11_31"><path fill="#fff" d="M0 0h25v25H0z"/></clipPath></defs></svg>