<svg width="25" height="25" fill="none" xmlns="http://www.w3.org/2000/svg"><path fill-rule="evenodd" clip-rule="evenodd" d="M12.972 6.557a.51.51 0 01-.09.622.509.509 0 01-.714-.02l-1.096-1.192a.506.506 0 01.07-.58l.285-.31-.752-.859a.51.51 0 01.107-.618.506.506 0 01.712.039l1.061 1.21a.508.508 0 01-.075.572l-.276.302.768.834zm-3.309-.774l.415-.41a.503.503 0 00.067-.637L8.985 3.61a.51.51 0 00-.249-.13l-.11-.012-.133.022a.508.508 0 00-.348.366.509.509 0 00.07.397l.783.765-.427.422a.507.507 0 00-.15.371.521.521 0 00.09.277l1.206 1.098a.504.504 0 00.75-.668l-.804-.736zm2.99 2.131a.484.484 0 00-.382.061l-1.124 1.167a.507.507 0 00-.08.58l.36.418-.686.763a.506.506 0 00.373.84c.098 0 .2-.029.293-.09l1.076-1.18a.506.506 0 00.07-.571l-.349-.408.7-.742a.505.505 0 00-.251-.838zm-2.442.01a.513.513 0 00-.385.03L8.588 9.04a.508.508 0 00-.09.645l.5.512-.712.677a.504.504 0 00.607.8l1.18-1.106a.512.512 0 00.156-.36.516.516 0 00-.079-.275l-.487-.5.728-.651a.508.508 0 00.158-.48.508.508 0 00-.338-.378zm-1.651-.11a.501.501 0 00.217-.32.51.51 0 00-.285-.559L7.263 6.67a.51.51 0 00-.546.257l-.176.69-.976-.237a.505.505 0 00-.345.942l1.58.397a.496.496 0 00.384-.061.513.513 0 00.189-.21l.172-.69.636.13c.129.026.267 0 .379-.073zm6.737-.685a.505.505 0 00-.062.383c.055.22.249.38.498.386l.557-.122.13.566a.507.507 0 00.5.39l1.586-.37a.503.503 0 00.246-.841.512.512 0 00-.372-.155l-1.089.25-.13-.566a.527.527 0 00-.244-.324l-.085-.038-.149-.029-1.075.243a.498.498 0 00-.311.227zm8.544 7.329l-1.928-3.508-.732-.886.009-.037c.476-2.44-.046-4.697-1.511-6.525C17.967 1.365 15.145.09 11.937.004L11.59 0C9.794 0 8.052.408 6.553 1.179 2.428 3.303.586 6.412 1.078 10.419c.28 2.28 1.31 4.731 2.979 7.086.443.626.7 1.625.76 2.97.044.927-.006 1.965-.15 3.085l-.061.446a15.1 15.1 0 01-.08.495l-.05.263L5.66 25l.108-.611c.03-.192.063-.418.096-.675.152-1.188.205-2.297.16-3.296-.075-1.6-.397-2.782-.983-3.61-1.554-2.194-2.51-4.454-2.766-6.536-.43-3.502 1.15-6.125 4.83-8.02 1.329-.684 2.88-1.046 4.485-1.046 2.938 0 5.514 1.08 7.07 2.963 1.288 1.56 1.753 3.499 1.348 5.606l-.134.604 1.043 1.244 1.379 2.522-1.417 1.127.069 2.21-.676.97.12.479a7.721 7.721 0 01.171 1.288c.02.72-.144.97-.232 1-.828.289-1.824.436-2.956.436-.246 0-.485-.007-.706-.019l-.458-.035-.913-.125-.165 3.378 1.205.06.103-2.085.934.033c1.266 0 2.395-.17 3.353-.502.732-.257 1.074-.967 1.04-2.174a7.735 7.735 0 00-.128-1.165l-.066-.33.477-.68.109-.341-.056-1.832 1.737-1.38zm-8.102-2.87a.51.51 0 00.056-.624l-.785-.767.428-.421a.505.505 0 00.06-.65L14.292 8.03a.51.51 0 00-.254-.122l-.11-.009-.132.025a.512.512 0 00-.338.378c-.027.13 0 .269.084.395l.803.736-.417.41a.515.515 0 00-.15.364c.002.091.027.18.084.273l1.16 1.126a.505.505 0 00.716-.017zm-2.28-4.672a.51.51 0 00.49.4.557.557 0 00.251-.065l1.22-1.074a.5.5 0 00.167-.365.514.514 0 00-.077-.281l-.5-.512.713-.677a.505.505 0 00-.59-.81l-1.198 1.116a.513.513 0 00-.156.36c0 .09.023.18.08.275l.487.5-.729.652a.507.507 0 00-.157.48z" fill="#000"/></svg>