<svg width="25" height="25" fill="none" xmlns="http://www.w3.org/2000/svg"><g clip-path="url(#clip0_11_51)"><path fill-rule="evenodd" clip-rule="evenodd" d="M24.82 10.68l-.296-.236a8.267 8.267 0 01-1.863-2.074l-1.255-1.845c-.755-1.194-2.242-1.936-3.881-1.936-1.445 0-2.793.583-3.607 1.56l-.988 1.186V3.903l.178-.064A1.977 1.977 0 0012.45 0c-1.09 0-1.976.887-1.976 1.976 0 .834.53 1.583 1.318 1.863l.178.063v3.434l-.988-1.188c-.815-.977-2.164-1.56-3.607-1.56-1.648 0-3.137.747-3.888 1.948l-1.158 1.85C1.611 9.536.784 10.196.18 10.68a.48.48 0 00.301.854h4.01v1.017c0 1.09.886 1.976 1.975 1.976h5.505v2.035H9.457c-1.09 0-1.976.886-1.976 1.975 0 1.09.887 1.974 1.976 1.974h2.513v2.035h-1.016a.48.48 0 100 .957h1.016v1.017a.48.48 0 00.96 0v-1.017h1.016a1.977 1.977 0 001.975-1.975c0-1.09-.886-1.975-1.975-1.975H12.93v-2.035h4.008a1.977 1.977 0 000-3.951H12.93v-2.033h11.59c.203 0 .385-.13.453-.32a.482.482 0 00-.153-.534zM12.93 22.545V20.51h1.016a1.02 1.02 0 011.018 1.017 1.02 1.02 0 01-1.018 1.018H12.93zm0-5.985v-2.035h4.008a1.018 1.018 0 010 2.035H12.93zm-.96-5.986H8.627l.537-1.615a.48.48 0 00-.909-.303l-.64 1.918h-1.98l.537-1.615a.48.48 0 00-.026-.364c-.068-.137-.184-.212-.43-.266a.477.477 0 00-.453.327l-.64 1.918H1.805l.406-.449c.349-.385.662-.8.933-1.231L4.3 7.045c.568-.91 1.775-1.496 3.075-1.496 1.164 0 2.237.454 2.87 1.214l.591.71c.237.283.563.492.943.608l.19.057v2.437zm0 .958v2.033H6.465a1.017 1.017 0 01-1.017-1.016v-1.017h6.522zm0 5.984v2.035H9.457a1.017 1.017 0 010-2.035h2.513zm1.496-15.541c0 .561-.456 1.017-1.016 1.017a1.017 1.017 0 010-2.033c.56 0 1.016.456 1.016 1.016zm.597 5.497l.593-.71c.634-.76 1.706-1.214 2.869-1.214 1.3 0 2.51.59 3.084 1.51l1.254 1.847c.26.415.572.826.926 1.22l.406.449h-2.918l-.639-1.915a.474.474 0 00-.453-.33l-.152.025a.482.482 0 00-.305.607l.537 1.613h-1.98l-.64-1.916c-.037-.116-.154-.313-.503-.313-.023 0-.044 0-.069.002l-.035.007a.483.483 0 00-.303.607l.538 1.613H12.93V8.138l.19-.057c.381-.115.706-.325.943-.608z" fill="#000"/></g><defs><clipPath id="clip0_11_51"><path fill="#fff" d="M0 0h25v25H0z"/></clipPath></defs></svg>