<svg width="25" height="25" fill="none" xmlns="http://www.w3.org/2000/svg"><g clip-path="url(#clip0_11_72)"><path fill-rule="evenodd" clip-rule="evenodd" d="M9.561 9.162a.586.586 0 00.847.142c1.234-.826 2.965-.82 4.212.016.13.087.293.119.443.089a.6.6 0 00.376-.251L19.6 2.92a.59.59 0 00-.163-.817A12.407 12.407 0 0012.5 0c-2.487 0-4.886.727-6.937 2.103a.592.592 0 00-.162.817l4.16 6.242zM6.718 2.768A11.268 11.268 0 0112.5 1.18c2.047 0 4.043.549 5.782 1.588L14.765 8.04c-1.398-.709-3.147-.709-4.533.001L6.718 2.768zm18.11 9.36a.595.595 0 00-.416-.174l-7.5-.026h-.001a.592.592 0 00-.59.584 3.834 3.834 0 01-2.322 3.503.592.592 0 00-.364.785l2.859 6.934a.583.583 0 00.545.366.61.61 0 00.225-.045 12.524 12.524 0 005.545-4.484l.057-.089A12.422 12.422 0 0025 12.545a.59.59 0 00-.172-.417zm-1.025 1.004a11.275 11.275 0 01-1.926 5.708l-.051.083a11.349 11.349 0 01-4.472 3.803l-2.416-5.86a4.999 4.999 0 002.524-3.757l6.34.023zm-8.067-.632a3.226 3.226 0 00-1.437-2.691c-1.066-.716-2.539-.712-3.594-.001A3.225 3.225 0 009.264 12.5a3.228 3.228 0 003.23 3.236c.422 0 .845-.08 1.242-.243a3.24 3.24 0 002-2.993zm-1.179.006a2.055 2.055 0 01-1.27 1.896 2.09 2.09 0 01-1.58-.002 2.056 2.056 0 01-1.264-1.9 2.044 2.044 0 012.056-2.05c.403 0 .806.113 1.143.34.573.38.915 1.022.915 1.716zm-3.494 3.54l-.043-.02A3.804 3.804 0 018.679 12.5a.59.59 0 00-.59-.59h-7.5A.59.59 0 000 12.5c0 2.495.73 4.898 2.109 6.943l.039.061a12.501 12.501 0 005.543 4.539.616.616 0 00.449 0 .58.58 0 00.321-.32l2.885-6.92a.592.592 0 00-.283-.756zm-1.02.816l-2.438 5.85a11.338 11.338 0 01-4.472-3.857l-.038-.058a11.243 11.243 0 01-1.9-5.707h6.338a4.961 4.961 0 002.51 3.772z" fill="#000"/></g><defs><clipPath id="clip0_11_72"><path fill="#fff" d="M0 0h25v25H0z"/></clipPath></defs></svg>