<svg width="25" height="25" fill="none" xmlns="http://www.w3.org/2000/svg"><g clip-path="url(#clip0_11_39)"><path fill-rule="evenodd" clip-rule="evenodd" d="M24.571 3.937a3.722 3.722 0 00-1.98-1.59 6.273 6.273 0 00-2.36-.34 11.805 11.805 0 00-4.107.854 8.077 8.077 0 00-3.605-.854h-.07a7.317 7.317 0 00-3.51.84 13.476 13.476 0 00-4.234-.84 6.963 6.963 0 00-2.36.34 3.73 3.73 0 00-1.986 1.6 3.465 3.465 0 00-.095 2.861c.13.42.377.785.713 1.063l-.008.147c-.002.378.099.748.291 1.074a3.118 3.118 0 002.293 1.51c.118.017.239.018.345.002a4.83 4.83 0 002.295-.71c.368.12.764.184 1.132.175.287.015.58.005.867-.029.158.71.396 1.404.707 2.062v.14l.023.034c.177.269.292.578.333.896a2.224 2.224 0 00-.38 2.01l1.067 4.295c.033.216.223.446.655.446h.028l.123-.053a.616.616 0 00.246-.253.442.442 0 00.01-.383L9.917 14.89a.99.99 0 01.043-.732 2.617 2.617 0 00.898.232.555.555 0 00.554-.524.597.597 0 00-.493-.6 2.785 2.785 0 01-.465-.118 6.886 6.886 0 00-.088-.028c-.041-.5-.2-.983-.455-1.396l-.113-.24a11.147 11.147 0 01-.856-3.724.55.55 0 00-.18-.385.55.55 0 00-.782.053.55.55 0 00-.135.403c.012.188.038.373.063.556.028.2.055.39.064.58a4.64 4.64 0 01-.645-.01 3.21 3.21 0 01-.988-.114.878.878 0 00-.271 0l-.051.019c-.64.392-1.374.63-2.111.688l-.173.001a1.899 1.899 0 01-1.448-.953.828.828 0 01-.112-.695l.006-.097.038-.038a.651.651 0 01.478-.156c.5.043.975.228 1.372.534l.426.338.178.122c.123.104.257.196.384.267a.53.53 0 00.3.098.649.649 0 00.488-.253.582.582 0 00-.15-.774l-.575-.43-.363-.292a3.644 3.644 0 00-2.042-.75 1.811 1.811 0 00-1.163.354l-.044-.034a1.068 1.068 0 01-.265-.37 2.09 2.09 0 01.123-1.94A2.513 2.513 0 012.736 3.4a4.801 4.801 0 011.704-.253h.26a12.42 12.42 0 014.216.786l.206.009.408-.186a6.647 6.647 0 012.959-.609 7.233 7.233 0 013.257.798.4.4 0 00.28.011h.135l.05-.009a12.135 12.135 0 014.024-.814h.258a4.94 4.94 0 011.722.31c.572.186 1.06.57 1.367 1.074.301.596.33 1.292.082 1.907-.06.14-.148.267-.257.37l-.06-.046a1.925 1.925 0 00-1.096-.305 3.57 3.57 0 00-2.026.75l-.238.18a1.714 1.714 0 01-.218.16 4.357 4.357 0 01-.499.384.578.578 0 00-.213.325.53.53 0 00.016.472c.04.054.088.1.143.136a4.4 4.4 0 01-.21-.12l-.034-.014a.546.546 0 00-.256-.004h-.142l-.048.008a2.61 2.61 0 01-.925.166h-.007a4.75 4.75 0 01-.61.009c.064-.373.109-.749.136-1.113a.573.573 0 00-.122-.427.58.58 0 00-.425-.19.539.539 0 00-.563.519c-.026.429-.074.857-.141 1.26l-.104.403a9.278 9.278 0 01-.607 2.123l-.065.12c-.101.15-.183.31-.243.472l-.104.284.282-.11a5.863 5.863 0 011.049-.3l.07-.013.03-.065c.258-.58.455-1.189.585-1.812.272.015.548.013.816-.006a4.678 4.678 0 001.092-.136 5.698 5.698 0 002.39.684h.302a3.03 3.03 0 002.33-1.51c.212-.35.314-.75.298-1.159a.197.197 0 00.044-.048c.358-.288.623-.67.766-1.101a3.473 3.473 0 00-.229-2.833zm-5.032 5.02h.011a.45.45 0 00.303-.113l.574-.413.471-.415c.395-.31.87-.496 1.364-.534.184-.01.35.051.47.14.206.242.206.593-.015.857a1.837 1.837 0 01-1.427.94l-.161.001a4.98 4.98 0 01-1.782-.502.61.61 0 00.192.038zm-.205 9.226l.456-.574a2.33 2.33 0 00.213-2.396l-.614-1.146c-.41-.7-1.247-1.146-2.144-1.146-.954-.003-1.816.425-2.282 1.164l-.538 1.318c-.33.796-.199 1.69.358 2.394l.333.38-2.788 3.446a.435.435 0 00.22.575l2.025 1.238.032.02h.165l.018.002a.55.55 0 00.428-.196l1.98-2.464 2.158 2.452.041.045h.491l2.078-1.275.026-.021a.437.437 0 00.007-.615l-2.663-3.2zm1.443 3.495l-1.048.644-1.886-2.319.78-.983 2.154 2.658zm-1.984-4.507l-4.09 5.152-1.097-.633 5.207-6.461.22.472c.206.493.117 1.042-.24 1.47zm-.744-2.718l-.93 1.15-1.011-1.326a1.63 1.63 0 011.084-.407h.011c.416 0 .81.157 1.08.42a.555.555 0 00-.234.163zM15.5 17.067a1.462 1.462 0 01-.124-1.466l.183-.338.962 1.167-.764.948-.257-.31z" fill="#000"/></g><defs><clipPath id="clip0_11_39"><path fill="#fff" d="M0 0h25v25H0z"/></clipPath></defs></svg>