<svg width="25" height="25" fill="none" xmlns="http://www.w3.org/2000/svg"><path fill-rule="evenodd" clip-rule="evenodd" d="M22.376 15.292l.054 1.768-.106.328-.46.659.064.317c.072.402.115.78.123 1.124.033 1.166-.297 1.852-1.004 2.1-.925.32-2.015.484-3.237.484l-.902-.031-.1 2.012-1.162-.057.159-3.262.881.12.443.035c.214.013.443.02.68.02 1.091 0 2.053-.142 2.855-.422.092-.032.241-.272.224-.966a7.81 7.81 0 00-.165-1.245l-.045-.174-.55-.078c-5.88-.785-7.536-.316-8.001.035-.583.437-1.36 1.892-1.754 6.335l-.05.606-1.16-.091.01-.145c.34-4.311 1.055-6.737 2.255-7.637 1.15-.863 4.13-.926 9.367-.186l.384.053.08-.113-.066-2.135 1.368-1.089-1.331-2.435-1.007-1.2.13-.584c.39-2.034-.059-3.906-1.301-5.412-1.502-1.818-3.99-2.86-6.827-2.86-1.55 0-3.047.349-4.33 1.009-3.553 1.828-5.078 4.362-4.664 7.743.247 2.01 1.17 4.191 2.67 6.31.567.799.877 1.94.95 3.485a18.7 18.7 0 01-.155 3.182 20.38 20.38 0 01-.093.652l-.102.59-1.145-.226.048-.255c.022-.122.049-.284.077-.479l.06-.43c.137-1.08.186-2.083.145-2.978-.06-1.3-.308-2.264-.735-2.868-1.635-2.307-2.602-4.609-2.876-6.841C1.6 6.19 3.38 3.189 7.362 1.139 8.808.394 10.489 0 12.224 0l.336.004c3.098.083 5.821 1.315 7.474 3.377 1.415 1.766 1.918 3.944 1.459 6.3l-.009.036.707.856 1.861 3.387-1.676 1.332z" fill="#000"/></svg>