<svg width="25" height="25" fill="none" xmlns="http://www.w3.org/2000/svg"><path fill-rule="evenodd" clip-rule="evenodd" d="M22.291 6.54c-2.879-.438-4.576-.46-5.942-.479-1.595-.02-2.747-.036-4.95-.674C10.522 5.134 9.468 5 8.352 5 4.195 5 0 6.814 0 10.866c0 2.856.23 3.713.383 4.283.112.413.168.622.062 1.55-.133 1.164.025 2.755.685 3.496.273.303.614.464.99.464a.49.49 0 00.122-.01c.532.053 1.043.08 1.517.08 3.055 0 4.396-1.055 5.388-1.834.291-.23.542-.426.778-.537.297-.142.982-.257 1.707-.38 2.028-.344 5.084-.863 6.313-2.96 1.068-.462 1.803-1.007 2.519-1.539.708-.526 1.318-.981 2.186-1.271 1.011-.337 2.47-1.995 2.342-3.509-.07-.808-.596-1.838-2.701-2.159zM11.47 17.025l-.03-.168c-.875.149-1.565.265-2.004.472-.352.169-.665.415-1.007.683-.881.691-1.973 1.549-4.532 1.578a7.863 7.863 0 00.202-.237l.038-.045c.075-.093.15-.19.223-.29l.06-.08c.077-.105.156-.216.235-.333.725-1.059 3.348-2.298 8.54-2.597.29-.016.566-.04.832-.066.066-.005.127-.014.203-.023.208-.021.407-.045.602-.072l.186-.03c.175-.026.345-.054.512-.085-1.197.634-2.772.902-4.087 1.125h-.002l.029.168zm-9.99-2.172l-.165.043.165-.044c-.137-.509-.343-1.279-.343-3.986 0-3.732 4.535-4.728 7.214-4.728.997 0 1.966.122 2.73.342.464.134.896.245 1.319.339 1.738 1.66 1.852 4.892.286 8.083-.442.03-.874.066-1.289.112-3.946.425-6.674 1.474-7.681 2.95l-.173.246-.297.39.133.107-.176-.056-.463.5c-.311.285-.5.35-.622.37-.023 0-.066 0-.14-.083-.385-.431-.51-1.691-.404-2.61.124-1.09.05-1.444-.094-1.975zm14.6-.408c-.117.03-.24.058-.363.086-.051.011-.1.023-.154.033a13.425 13.425 0 01-.942.162l-.2.028c-.14.018-.285.034-.434.048 1.24-2.877 1.266-5.709.074-7.707.784.085 1.482.094 2.272.105 1.33.017 2.983.038 5.787.465 1.102.168 1.686.549 1.735 1.131.08.927-1.015 2.149-1.565 2.332-1.037.346-1.747.874-2.51 1.44-.749.558-1.523 1.133-2.77 1.59a8.87 8.87 0 01-.37.126l-.08.025a10.8 10.8 0 01-.358.103l-.123.033z" fill="#000"/></svg>