<svg width="25" height="25" fill="none" xmlns="http://www.w3.org/2000/svg"><g clip-path="url(#clip0_11_64)"><path fill-rule="evenodd" clip-rule="evenodd" d="M18.582 0H6.414A6.432 6.432 0 000 6.418v12.167A6.429 6.429 0 006.414 25h12.168c3.533-.003 6.412-2.882 6.418-6.415V6.418C24.994 2.883 22.117.004 18.582 0zm5.163 6.418v12.167a5.18 5.18 0 01-5.163 5.164H6.414a5.182 5.182 0 01-5.165-5.164V6.418a5.178 5.178 0 015.165-5.165h12.168a5.175 5.175 0 015.163 5.165zm-8.33-3.674l-.463-.139a9.39 9.39 0 00-2.451-.331h-.033a9.301 9.301 0 00-4.265 1.04l-.427.237c-.279.16-.552.337-.81.526a1.914 1.914 0 00-.656 2.229l1.067 2.73a1.87 1.87 0 001.74 1.203h6.726a1.857 1.857 0 001.768-1.201l1.068-2.73a1.913 1.913 0 00-.656-2.222 9.153 9.153 0 00-2.606-1.342zm-2.55 2.41a.646.646 0 00-.735 0 .64.64 0 00-.257.657v1.95a1.96 1.96 0 00-1.23 1.232h-1.5a.643.643 0 01-.596-.41L7.48 5.86a.662.662 0 01.236-.762l.1-.07a.623.623 0 00.655.107.641.641 0 00.363-.72c.281-.145.571-.274.866-.385l.006.034a.623.623 0 00.634.498l.13-.006a.641.641 0 00.485-.728l-.024-.127a8.21 8.21 0 01.963-.127v.165l.007.06a.64.64 0 001.234.001l.008-.226c.322.022.644.065.962.127l-.025.134c-.051.329.162.646.537.727h.084a.645.645 0 00.61-.507l.004-.021c.294.109.583.236.868.38a.647.647 0 00.358.715.71.71 0 00.233.042.64.64 0 00.403-.153c.035.023.069.047.105.074a.654.654 0 01.23.763l-1.069 2.73a.635.635 0 01-.593.408h-1.496a1.944 1.944 0 00-1.232-1.232v-1.95a.64.64 0 00-.257-.657zm-.026 3.84h-.68a.722.722 0 01.68 0z" fill="#000"/></g><defs><clipPath id="clip0_11_64"><path fill="#fff" d="M0 0h25v25H0z"/></clipPath></defs></svg>