<svg width="25" height="25" fill="none" xmlns="http://www.w3.org/2000/svg"><g clip-path="url(#clip0_11_10)"><path fill-rule="evenodd" clip-rule="evenodd" d="M24.572 5.937a3.72 3.72 0 00-1.98-1.59 6.256 6.256 0 00-2.36-.34 11.805 11.805 0 00-4.108.854 8.077 8.077 0 00-3.605-.854h-.07a7.319 7.319 0 00-3.51.84 13.476 13.476 0 00-4.234-.84 6.963 6.963 0 00-2.36.34 3.73 3.73 0 00-1.986 1.6A3.465 3.465 0 00.264 8.81c.13.417.375.782.71 1.06-.031.425.07.856.286 1.223a3.118 3.118 0 002.293 1.51c.118.017.239.018.345.002a4.83 4.83 0 002.295-.71c.368.12.764.185 1.132.175.288.015.58.005.867-.028.158.71.396 1.403.707 2.062v.14l.023.033c.177.27.292.579.333.896a2.224 2.224 0 00-.38 2.01l1.067 4.295c.033.216.223.447.655.447l.041-.006a.614.614 0 00.356-.3.443.443 0 00.01-.384L9.917 16.89a.99.99 0 01.043-.732 2.619 2.619 0 00.898.232.555.555 0 00.554-.524.597.597 0 00-.493-.6 2.782 2.782 0 01-.465-.118 6.863 6.863 0 00-.088-.028 3.16 3.16 0 00-.455-1.396l-.113-.24a11.147 11.147 0 01-.856-3.724.55.55 0 00-.18-.385.55.55 0 00-.782.053.55.55 0 00-.135.403c.012.188.038.373.064.556.027.2.054.39.063.58a4.644 4.644 0 01-.645-.01c-.33.01-.657-.027-.988-.114a.875.875 0 00-.271 0l-.051.019a4.79 4.79 0 01-2.111.689h-.173a1.899 1.899 0 01-1.448-.953.828.828 0 01-.112-.695l.006-.096.038-.04a.651.651 0 01.478-.155c.5.043.975.228 1.372.534l.426.338.178.123c.124.104.257.196.384.266a.53.53 0 00.3.098.649.649 0 00.488-.253.582.582 0 00-.15-.773l-.574-.431-.364-.291a3.644 3.644 0 00-2.042-.751 1.88 1.88 0 00-1.165.356 1.072 1.072 0 01-.307-.405 2.09 2.09 0 01.123-1.94A2.513 2.513 0 012.736 5.4a4.8 4.8 0 011.705-.253h.258c1.445.017 2.864.281 4.217.786l.207.009.063-.016a6.804 6.804 0 013.303-.779 7.234 7.234 0 013.257.798.4.4 0 00.28.012h.135l.05-.01a12.135 12.135 0 014.024-.814h.256c.59 0 1.167.104 1.724.311a2.51 2.51 0 011.367 1.073c.301.596.33 1.292.082 1.908-.06.139-.146.265-.254.368a1.822 1.822 0 00-1.078-.351l-.08.001a3.57 3.57 0 00-2.027.75l-.238.18a1.69 1.69 0 01-.218.16 4.348 4.348 0 01-.5.384.578.578 0 00-.212.325.53.53 0 00.016.472c.04.054.088.1.142.136a4.322 4.322 0 01-.209-.119l-.035-.014a.544.544 0 00-.256-.005h-.141l-.048.008a2.61 2.61 0 01-.925.166h-.007c-.203.016-.405.02-.61.01.063-.374.109-.75.135-1.113a.573.573 0 00-.121-.428.58.58 0 00-.425-.19.539.539 0 00-.563.519c-.027.43-.075.857-.141 1.26l-.104.403a9.283 9.283 0 01-.607 2.123l-.065.12a2.24 2.24 0 00-.387 1.282c-.203.102-.42.17-.637.205a.538.538 0 00-.408.236.613.613 0 00-.093.41c.04.29.291.5.6.463.26-.03.515-.098.76-.204.113.248.13.532.045.802L13.88 21.1a.583.583 0 00-.002.432c.064.17.204.3.376.353l.09.054.038-.002a.602.602 0 00.566-.42l1.078-4.324a2.053 2.053 0 00-.375-2.026c.04-.327.154-.644.334-.922a.942.942 0 00.046-.09c.018-.039.042-.094.093-.187.284-.614.497-1.26.637-1.922.272.015.548.012.816-.007a4.68 4.68 0 001.092-.135 5.71 5.71 0 002.39.684h.302a3.029 3.029 0 002.33-1.51c.211-.351.314-.75.298-1.16a.196.196 0 00.044-.048c.357-.288.623-.669.765-1.1a3.47 3.47 0 00-.227-2.834zm-5.032 5.02h.01a.45.45 0 00.303-.113l.574-.413.471-.414c.395-.312.87-.497 1.364-.534.184-.011.35.05.47.14.206.241.206.592-.015.856a1.837 1.837 0 01-1.427.94l-.161.002a4.978 4.978 0 01-1.781-.503c.06.023.125.036.192.039z" fill="#000"/></g><defs><clipPath id="clip0_11_10"><path fill="#fff" d="M0 0h25v25H0z"/></clipPath></defs></svg>