<svg width="56" height="72" fill="none" xmlns="http://www.w3.org/2000/svg"><path fill-rule="evenodd" clip-rule="evenodd" d="M24.969.16c-1.969.374-4.22 1.296-5.745 2.35-1.16.803-2.973 2.667-3.787 3.896-.978 1.477-1.76 3.368-2.106 5.09l-.267 1.326-.617.16a6.352 6.352 0 00-4.746 6.163c0 1.909.714 3.525 2.12 4.794.747.676 1.961 1.322 2.715 1.445.319.052.601.246.897.616.487.609 1.078.831 2.213.832.404 0 .735.06.735.132 0 .071.066.625.147 1.23.35 2.632 1.435 4.782 3.371 6.682l1.243 1.22v2.979h-4.754c-5.726 0-5.937.031-6.946 1.045-.834.838-1.041 1.484-1.041 3.243v1.038l-1.123.435c-1.653.64-2.974 1.49-4.178 2.69-1.131 1.125-1.788 2.106-2.354 3.513-.718 1.787-.741 2.127-.744 10.958L0 70.216l.348.597a2.2 2.2 0 00.954.892c.601.293.71.295 12.54.295h11.933l.344-.345c.438-.44.438-.98 0-1.42l-.344-.346h-8.1c-6.112 0-8.14-.04-8.266-.168-.204-.205-.23-2.753-.031-3.068.117-.186 2.34-.21 18.624-.21 16.285 0 18.508.024 18.625.21.198.315.172 2.863-.031 3.068-.127.127-2.186.168-8.407.168h-8.24l-.343.346c-.189.19-.344.51-.344.71 0 .2.155.52.344.71l.344.345h24.175l.624-.317c.411-.208.731-.508.938-.879l.313-.563V62.01c0-8.846-.023-9.182-.742-10.97-.565-1.407-1.222-2.388-2.353-3.513-1.205-1.2-2.525-2.05-4.178-2.69l-1.123-.435v-1.038c0-1.76-.207-2.405-1.041-3.242-1.01-1.015-1.22-1.047-6.947-1.047h-4.753V35.83l.892-.84c.49-.46 1.105-1.15 1.365-1.531.451-.661.51-.698 1.27-.788 1.66-.196 3.258-1.356 3.935-2.857.234-.52.313-1.04.373-2.469l.075-1.81.77-.24c1.092-.342 1.625-.649 2.425-1.396.865-.807 1.496-1.776 1.496-2.299 0-.583-.465-.982-1.082-.93-.433.037-.601.166-1.157.888-.606.787-1.898 1.759-2.34 1.759-.145 0-.181-.85-.181-4.16v-4.161l.315.092c.693.203 1.586.885 2.204 1.686.557.72.726.85 1.159.887.364.031.587-.038.794-.246.568-.571.294-1.401-.873-2.641-.828-.88-1.853-1.505-2.911-1.776-.68-.174-.763-.237-.802-.601-.025-.224-.164-.896-.31-1.493C41.025 5.763 36.937 1.683 31.713.359c-1.462-.371-5.26-.483-6.744-.2zm6.51 2.326c2.726.783 5.035 2.356 6.692 4.558.7.93 1.608 2.71 1.922 3.767l.192.65-.88.072c-1.492.12-2.162.858-2.162 2.378v.735l-.974-1.062c-.535-.584-1.166-1.143-1.402-1.24-.66-.275-1.55-.104-2.507.48-2.211 1.35-5.024 2.488-7.45 3.015-1.673.364-4.113.617-5.378.558l-.98-.045-.072-1.76c-.04-1.006-.145-1.89-.244-2.065-.328-.579-.985-.919-1.92-.994l-.886-.072.335-.988c1.41-4.167 5.083-7.367 9.4-8.19 1.576-.3 4.94-.192 6.313.203zM16.38 19.166v5.558h-1.26V13.608h1.26v5.558zm24.222 0v5.558h-1.26V13.608h1.26v5.558zM35.69 16.07l1.55 1.689.002 4.863c.001 4.995-.07 5.893-.581 7.265l-.278.746h-2.37c-1.356 0-2.37-.055-2.37-.13 0-.26-.749-1.015-1.273-1.283-.768-.394-2.988-.394-3.756 0a2.74 2.74 0 00.053 4.928c.571.278.813.31 2.008.257 1.58-.069 2.096-.282 2.659-1.1l.379-.55 1.67-.006 1.669-.005-.34.367c-.63.682-1.948 1.62-2.862 2.036-3.885 1.77-8.679.656-11.273-2.62a11.116 11.116 0 01-1.128-1.806c-.845-1.815-.867-1.985-.93-7.299l-.06-4.89h1.187c4.712 0 9.998-1.482 13.747-3.857.308-.195.602-.34.653-.324.052.017.791.79 1.644 1.72zm-22.669 3.096c0 3.227-.039 4.15-.175 4.15-.327-.003-1.605-.825-1.982-1.276-.8-.955-.991-1.51-.991-2.874 0-1.39.21-1.974 1.055-2.942.37-.423 1.657-1.209 1.98-1.209.062 0 .113 1.868.113 4.15zm27.582 8.518c0 1.245-.634 2.325-1.525 2.597-.303.093-.326.07-.238-.23.166-.567.493-2.423.498-2.83.005-.364.042-.387.635-.387h.63v.85zm-10.949 3.54c.233.234.21.613-.052.876-.153.155-.487.222-1.11.222-1.16 0-1.543-.322-1.185-.995.123-.23.3-.272 1.162-.272.605 0 1.086.069 1.185.17zm3.109 6.866v.985h-9.521v-.914c0-.503.03-.915.068-.915.037 0 .62.163 1.295.362 2.332.689 5.213.61 7.249-.197.384-.152.746-.283.804-.291.057-.008.105.429.105.97zm12.352 3.487l.319.32.04 10.584c.02 5.822.004 10.728-.04 10.904a1.539 1.539 0 01-.354.598c-.272.274-.535.278-16.996.278-9.196 0-16.822-.04-16.947-.087-.636-.245-.636-.256-.634-11.408.002-11.256-.011-11.036.7-11.4.276-.14 3.814-.17 16.97-.144l16.623.034.319.32zM8.589 64.26c.08.293.02.399-.352.633-.246.155-.594.56-.772.902-.288.551-.324.813-.324 2.36v1.74l-2.486-.038-2.485-.039V53.357l.332-1.019c.759-2.326 2.686-4.366 5.028-5.323l.8-.327.082 8.61c.045 4.737.124 8.77.177 8.963zm41.107-16.627c1.77 1.078 3.2 2.842 3.802 4.692l.336 1.03V69.82l-2.485.038-2.485.039v-1.74c0-1.547-.036-1.809-.324-2.36-.179-.341-.525-.747-.77-.902-.346-.218-.424-.344-.348-.562.054-.155.12-4.187.146-8.96l.048-8.678.616.211c.338.116.997.444 1.464.728zm-22.464 2.505c-1.338.334-2.285 1.084-2.82 2.233-.871 1.872.078 4.257 2.03 5.102.745.323 2.188.291 2.96-.064 3.529-1.621 2.667-6.885-1.19-7.27-.385-.039-.826-.039-.98 0zm1.325 2.23c1.381.718 1.3 2.572-.14 3.17-.972.406-2.235-.5-2.235-1.602 0-.62.321-1.157.904-1.514.515-.316.938-.331 1.47-.054z" fill="#000"/></svg>