<svg width="48" height="41" fill="none" xmlns="http://www.w3.org/2000/svg"><path fill-rule="evenodd" clip-rule="evenodd" d="M27.934.203l-.24.24v4.42l-1.412-.026-1.41-.026-.213-.524C23.819 2.22 21.726.832 19.44.828c-2.354-.005-4.61 1.626-5.33 3.855l-.11.34-.864.157c-.475.086-1.37.324-1.99.53C5.448 7.6 1.332 12.315.205 18.246c-.177.931-.208 1.404-.204 3.158.008 3.323.483 6.022 1.667 9.474 1.051 3.065 3.319 7.47 4.587 8.912.69.784.854.828 3.182.863 2.496.036 2.851-.037 3.542-.728.538-.538.747-1.125.747-2.096 0-.634.005-.648.21-.577.117.04 2.332.09 4.923.111l4.71.039v.538c0 .862.228 1.465.748 1.985.697.698 1.029.763 3.681.727l2.181-.03.508-.28c.836-.463 1.081-.915 1.457-2.683l.151-.713.723-.208c4.237-1.22 7.939-4.341 9.997-8.428l.338-.672 1.616-.002c1.751-.002 2.125-.085 2.571-.572.386-.42.405-.619.405-4.3 0-3.684-.02-3.884-.405-4.299-.396-.425-.705-.514-1.972-.57l-1.205-.054-.218-.843c-1.18-4.554-4.36-8.395-8.703-10.512l-.832-.405-.27-.802c-.452-1.346-1.026-2.299-1.929-3.202-.977-.977-2.647-1.879-3.797-2.05-.392-.058-.465-.04-.68.175zm2.4 2.155c.995.655 1.617 1.366 2.191 2.506.432.858.687 1.889.797 3.223.077.943.124 1.153.295 1.336.251.267.72.286 1.024.04.182-.148.223-.285.255-.844.02-.367.065-.667.097-.666.033.001.493.265 1.021.586 1.888 1.148 3.47 2.658 4.641 4.428 1.004 1.518 1.571 2.789 2.04 4.568.45 1.712.758 1.942 2.6 1.946l1.149.002v6.562h-2.527l.093-.244c.161-.423.545-2.489.612-3.29.064-.768.063-.77-.222-1.055-.321-.321-.472-.347-.86-.146-.324.167-.346.229-.47 1.333-.388 3.473-1.814 6.448-4.26 8.891-1.233 1.23-2.31 2.012-3.8 2.758-.868.435-2.246.98-2.312.914-.018-.018.199-1.106.481-2.417.283-1.311.515-2.517.515-2.679 0-.644-.693-.985-1.17-.575-.247.213-.312.462-1.185 4.532-.508 2.368-.974 4.428-1.035 4.576-.189.457-.524.527-2.516.527-1.901 0-2.321-.075-2.524-.454-.062-.116-.102-.844-.102-1.86 0-1.92-.074-2.31-.472-2.516-.623-.322-1.121.125-1.121 1.008v.559l-4.57-.05c-2.514-.028-4.729-.079-4.922-.113l-.352-.063v-5.806l-.285-.285c-.24-.24-.333-.276-.586-.225a1.12 1.12 0 00-.488.248c-.181.18-.19.343-.235 4.646l-.047 4.46-.217.175c-.32.26-.661.296-2.48.26-1.973-.037-1.797.066-2.877-1.671-2.94-4.73-4.618-9.718-4.98-14.81-.21-2.938.248-5.502 1.415-7.924 1.872-3.887 5.45-6.81 9.643-7.878 1.221-.311 1.194-.316 1.26.213.03.245.083.583.118.75.06.285.047.305-.19.305-.331 0-.801.465-.801.794 0 .136.103.349.23.476l.23.23h12.089l.194-.247c.399-.507.161-1.117-.474-1.219-.33-.053-.37-.085-.317-.258.033-.109.084-.483.114-.83l.053-.633h2.6v.93c0 1.085.028 1.187.382 1.37.38.197.535.172.844-.137l.274-.274v-6.58l.32.134c.175.074.544.282.82.463zm-9.463.247a4.308 4.308 0 012.457 2.44c.255.647.3 1.757.103 2.486l-.164.608h-7.578l-.1-.258c-.38-.98-.297-2.284.212-3.301.498-.997 1.708-1.925 2.815-2.159.607-.128 1.65-.043 2.255.184zm-1.708 11.747c-.13.064-.312.275-.407.467-.12.248-.232.351-.378.351-.372 0-1.313.28-1.887.56-.76.373-1.22.772-1.55 1.349-.235.409-.277.582-.276 1.138.003 1.493.987 2.503 3.138 3.225l.844.283.025 1.939.026 1.939-.435-.06c-.988-.135-2.1-.882-2.1-1.41 0-.29-.314-.677-.61-.751-.272-.068-.745.142-.832.37-.118.307-.053.932.136 1.324.243.5.97 1.164 1.628 1.486.274.134.883.336 1.354.448.687.165.855.238.855.374 0 .274.424.63.75.63.33 0 .75-.357.75-.637 0-.147.131-.203.772-.33 1.405-.276 2.603-1.036 3.088-1.959.156-.298.21-.56.21-1.011-.002-1.5-1.023-2.523-3.273-3.28l-.75-.253-.026-1.945-.025-1.946.4.067c1.162.193 2.072.8 2.183 1.454.152.906 1.291.998 1.511.122.102-.407-.207-1.187-.68-1.712-.517-.576-1.66-1.167-2.566-1.329-.336-.06-.657-.12-.714-.135-.057-.015-.13-.156-.16-.313a.604.604 0 00-.338-.43c-.335-.173-.364-.174-.663-.025zm16.587 2.072c-.945.254-1.886 1.061-2.202 1.886-.133.35-.137.442-.027.67.288.6.988.614 1.361.027.444-.697.698-.926 1.183-1.07.503-.15.958-.117 1.388.1.293.149.794.702.88.972.065.204.494.474.754.474.084 0 .281-.129.438-.286.246-.246.278-.333.23-.628-.08-.491-.653-1.27-1.216-1.651-.847-.573-1.843-.75-2.79-.494zm-17.056 1.98v1.733l-.633-.236c-1.253-.468-1.898-1.043-1.898-1.69 0-.56.688-1.106 1.77-1.405.822-.226.76-.354.76 1.598zm2.45 4.09c.517.199.886.416 1.168.686.376.36.413.436.413.846 0 .393-.042.49-.327.76-.357.335-1.15.672-1.796.76l-.408.056v-1.7c0-1.107.034-1.7.097-1.7.053 0 .437.13.852.291zm2.71 7.096c-.284.283-.285.29-.285 1.33 0 1.031.004 1.05.274 1.32.33.33.657.351.992.063.212-.182.252-.307.299-.924.1-1.32-.1-1.902-.694-2.016-.252-.049-.348-.012-.586.227z" fill="#000"/></svg>