<svg width="38" height="45" fill="none" xmlns="http://www.w3.org/2000/svg"><path fill-rule="evenodd" clip-rule="evenodd" d="M17.794.202c-1.095.286-1.7.604-2.443 1.286-.506.465-.632.535-.958.535-.524 0-1.71.313-2.31.61-1.928.953-3.111 2.95-3.103 5.238a9.77 9.77 0 001.124 4.498l.367.705-.323.308c-.483.46-.709 1-.767 1.833-.1 1.426.454 2.494 1.534 2.96l.4.174c.012.006.13.381.264.833.48 1.63 1.186 2.852 2.242 3.882l.638.622-.142.82c-.172.988-.504 1.969-.703 2.072-.08.042-1.103.355-2.273.697-2.137.624-2.459.776-2.459 1.16 0 .133-.164.175-1.016.264-3.668.38-6.513 2.725-7.605 6.27-.202.656-.21.853-.244 5.165-.034 4.425-.032 4.485.16 4.674L.372 45h37.256l.195-.192c.192-.189.194-.249.16-4.674-.033-4.312-.042-4.509-.244-5.164-1.116-3.623-4.149-6.05-7.888-6.312-.771-.054-.828-.072-.828-.262a.536.536 0 00-.165-.35c-.134-.117-1.4-.52-4.487-1.427-.19-.056-.503-.837-.695-1.734-.233-1.09-.223-1.126.564-1.936 1.057-1.088 1.914-2.689 2.24-4.187.085-.39.13-.444.444-.537.503-.15 1.027-.613 1.317-1.165.207-.395.258-.636.29-1.376.026-.573-.002-1.027-.078-1.256-.18-.544-.637-1.142-1.004-1.314-.22-.103-.312-.201-.28-.297.026-.079.196-.562.376-1.074 1.029-2.924.907-5.799-.33-7.822C25.873 1.727 22.82.118 19.804.013c-.986-.034-1.25-.01-2.01.189zm3.43 1.27c2.979.767 4.883 2.348 5.486 4.555.328 1.201.267 2.907-.161 4.488l-.196.725-.37-.748c-.436-.88-1.265-1.803-1.948-2.169-.754-.403-1.43-.535-2.427-.47-2.049.132-4.069-.476-5.776-1.74-.416-.308-.847-.583-.959-.612-.289-.073-.695.162-1.402.813-1.279 1.176-2.045 2.6-2.353 4.376l-.119.682-.208-.606c-.478-1.395-.627-3.16-.353-4.173.521-1.927 1.865-3.028 4.023-3.298l.993-.125.582-.562c.954-.923 1.996-1.313 3.537-1.323a6.184 6.184 0 011.651.186zM15.24 7.325c1.605 1.202 4.285 1.968 6.378 1.824.752-.052.94-.033 1.412.14.685.252 1.333.873 1.738 1.661.326.636.663 1.805.663 2.302 0 .328.14.673.322.792.057.037.266.069.464.07.739.002 1.01.378 1.01 1.396 0 1.006-.28 1.406-1.139 1.63-.273.07-.534.166-.58.212-.048.046-.165.456-.26.912-.738 3.497-3.043 5.517-6.303 5.524-1.672.003-3.093-.568-4.255-1.711-1.085-1.068-1.764-2.381-2.032-3.935-.119-.684-.288-.956-.598-.96-.109 0-.38-.083-.603-.182-.513-.23-.772-.736-.775-1.516-.004-.95.312-1.369 1.03-1.369.509 0 .607-.245.586-1.465-.03-1.78.34-3.166 1.176-4.403.345-.51 1.096-1.295 1.24-1.295.015 0 .252.168.526.373zm1.693 17.487c1.442.397 3.084.344 4.55-.147.82-.274.827-.274.829-.015.002.353.367 1.661.608 2.178l.228.489-.318 2.06c-.175 1.133-.345 2.086-.377 2.118-.25.245-6.74.254-6.989.01-.027-.028-.193-.969-.369-2.092-.296-1.895-.309-2.065-.177-2.368.243-.554.574-1.602.683-2.162l.104-.534.265.136c.146.074.58.221.963.327zm-3.249 3.931c.128.914.356 2.405 1.245 8.156.366 2.375.656 4.328.644 4.34-.033.031-4.462-7.028-4.495-7.163-.015-.062.23-.398.544-.748.314-.35.57-.711.57-.803 0-.092-.39-.944-.867-1.892-.478-.949-.85-1.738-.828-1.753.058-.041 2.856-.88 2.979-.893.057-.007.148.324.208.756zm12.338-.29c.767.223 1.394.438 1.394.477 0 .039-.385.83-.857 1.757-.59 1.16-.842 1.75-.806 1.89.028.111.304.484.612.828l.56.624-2.28 3.62c-1.253 1.992-2.287 3.613-2.297 3.602-.022-.024 1.926-12.765 1.999-13.073.028-.118.102-.197.166-.174.063.022.742.224 1.509.448zm-15.931 2.64c.324.64.589 1.209.589 1.265 0 .055-.259.379-.575.718-.485.52-.57.662-.54.898.021.162 1.285 2.264 2.987 4.968 1.623 2.577 2.95 4.702 2.95 4.72 0 .02-3.191.035-7.092.035H1.318v-3.753c0-3.462.014-3.81.19-4.488.49-1.886 1.687-3.484 3.317-4.433.327-.19.608-.332.625-.316.017.017-.062.236-.175.487-.345.767-.552 1.708-.616 2.805-.033.575-.094 1.046-.136 1.046-.04 0-.332.235-.647.522a3.66 3.66 0 00-.874 1.14c-.572 1.171-.451 2.787.294 3.94.351.545.576.608 1.242.35.667-.258.846-.425.846-.789 0-.43-.276-.642-.756-.58-.446.06-.492.005-.655-.774-.22-1.049.264-2.109 1.217-2.668 1.235-.726 2.826-.162 3.462 1.225.301.658.331 1.017.088 1.061a.614.614 0 00-.52.62c0 .398.246.595.861.69.534.084.82.026 1.015-.206.152-.18.16-1.49.013-2.034-.435-1.61-1.894-2.84-3.486-2.943l-.698-.045.058-.754c.113-1.46.558-2.58 1.344-3.383l.479-.488H9.5l.59 1.164zm20.08-.769c.609.815 1.142 2.412 1.271 3.81l.063.68-.349.124c-.767.273-1.399 1.117-1.523 2.035-.192 1.424 1.074 2.817 2.559 2.817 1.491 0 2.742-1.383 2.558-2.828-.112-.888-.742-1.704-1.579-2.048l-.334-.138-.114-.924c-.122-.989-.422-2.175-.751-2.97-.132-.318-.165-.488-.093-.488.271 0 1.548.72 2.129 1.2 1.242 1.025 2.103 2.363 2.487 3.862.173.674.188 1.047.188 4.488v3.753H22.39l.216-.35 2.986-4.76c1.82-2.9 2.77-4.497 2.77-4.66 0-.172-.175-.445-.567-.882-.312-.347-.567-.667-.567-.71 0-.043.265-.602.589-1.242l.59-1.164h1.467l.296.395zm-7.913 2.814a487.27 487.27 0 00-.8 5.163 430.21 430.21 0 01-.804 5.186c-.049.208-.066.21-1.702.21-.91 0-1.654-.01-1.656-.024a7345.3 7345.3 0 00-.828-5.372l-.825-5.349h3.33c3.28 0 3.329.003 3.285.186zm10.61 3.071c.127.082.314.283.416.446.492.795-.126 1.832-1.092 1.832-1 0-1.607-1.068-1.062-1.87.413-.608 1.157-.783 1.738-.408z" fill="#000"/></svg>