<svg width="32" height="32" fill="none" xmlns="http://www.w3.org/2000/svg"><circle cx="16" cy="16" r="16" fill="#D9D9D9"/><path d="M14.977 17.727v-.068c.008-.723.084-1.3.227-1.727.144-.428.349-.775.614-1.04s.583-.51.955-.733a2.97 2.97 0 00.602-.483 2.15 2.15 0 00.58-1.472c0-.37-.088-.693-.262-.965a1.755 1.755 0 00-.699-.631 2.118 2.118 0 00-.971-.222c-.31 0-.61.065-.898.194a1.738 1.738 0 00-.722.607c-.193.277-.305.639-.335 1.086h-1.432c.03-.644.197-1.195.5-1.654.307-.458.71-.808 1.21-1.05a3.815 3.815 0 011.677-.364c.666 0 1.246.132 1.738.397.497.265.88.63 1.148 1.091.273.462.41.989.41 1.58 0 .416-.065.793-.194 1.13a2.784 2.784 0 01-.546.904c-.234.265-.518.5-.852.704-.333.209-.6.428-.8.66a2.054 2.054 0 00-.438.812c-.091.314-.14.706-.148 1.176v.068h-1.364zm.727 3.364c-.28 0-.52-.1-.721-.301a.984.984 0 01-.301-.722c0-.28.1-.52.301-.721a.982.982 0 01.721-.302c.28 0 .521.1.722.302.2.2.301.44.301.721a.963.963 0 01-.142.511c-.09.156-.214.28-.37.375a.974.974 0 01-.51.137z" fill="#000"/></svg>