<svg width="77" height="80" fill="none" xmlns="http://www.w3.org/2000/svg"><path fill-rule="evenodd" clip-rule="evenodd" d="M47.583.148c-.188.076-.443.336-.566.576-.172.336-3.157 8.702-6.22 17.432-.15.425-.166.43-1.529.43H37.89l-.049-2.774c-.04-2.324-.095-2.868-.339-3.359-.36-.726-1.233-1.59-1.963-1.941-1.33-.641-1.055-.7-18.461 3.91C6.647 17.185.738 18.82.475 19.017l-.409.306-.042 28.736C-.024 80.321-.125 77.55 1.152 78.83 2.398 80.08.933 80 22.537 80c18.83 0 19.236-.006 20.051-.312.941-.353 1.634-1.002 2.167-2.032.36-.696.365-.77.442-7.206l.078-6.503 5.223 1.856c2.872 1.02 5.455 1.867 5.739 1.88.361.016.626-.09.884-.354C57.568 66.87 77 11.832 77 11.025c0-.329-.125-.626-.35-.835C76.31 9.876 48.625-.021 48.146 0a2.193 2.193 0 00-.564.148zM61.57 7.492c6.801 2.407 12.387 4.397 12.412 4.423.048.047-18.447 52.617-18.547 52.717-.032.032-2.33-.745-5.109-1.726l-5.05-1.784-.042-5.319-.04-5.32.586-.049c.567-.048.654.02 2.613 2.026 1.765 1.807 2.09 2.075 2.52 2.071.712-.005.97-.14 1.228-.641.407-.79 1.472-3.96 1.473-4.388.001-.228-.322-1.12-.718-1.981l-.72-1.567.828-2.356c.457-1.297.879-2.437.94-2.535.069-.113.87.488 2.186 1.642 1.826 1.602 2.144 1.821 2.638 1.821.83 0 1.13-.432 1.97-2.85.633-1.822.72-2.208.579-2.58-.091-.242-1.087-1.922-2.213-3.733l-2.048-3.293.778-2.171c.428-1.194.785-2.382.793-2.64.018-.577-1.551-3.956-2.057-4.428-.2-.186-.544-.338-.766-.338-.445 0-3.793 1.548-4.301 1.988-.176.153-.59 1.051-.919 1.996-1.12 3.216-.837 2.884-3.137 3.681-1.102.382-2.053.716-2.114.743-.06.026-.134-2.013-.162-4.532-.058-5.149-.114-5.434-1.274-6.531-.314-.297-.57-.609-.57-.694 0-.115 4.673-13.497 5.475-15.677.071-.193.19-.351.265-.351.075 0 5.701 1.97 12.503 4.376zM48.131 12.64l-.408 1.248.803.298c1.582.587 1.425.646 1.878-.704.223-.665.353-1.256.289-1.314-.065-.058-.503-.23-.975-.382-.471-.152-.93-.303-1.018-.335-.088-.033-.344.502-.569 1.189zm-13.367.622l.456.457v4.868l-11.575-.012c-6.366-.007-11.49-.047-11.386-.09.586-.238 21.242-5.654 21.61-5.666.29-.01.594.14.895.443zm18.069.604c-.618 1.655-.627 1.624.55 2.044.576.205 1.093.31 1.161.234.156-.17.838-2.245.764-2.32-.03-.03-.526-.232-1.1-.449l-1.045-.394-.33.885zm4.54 1.667c-.616 1.65-.635 1.572.478 1.943.543.181 1.048.347 1.123.368.074.022.329-.51.566-1.182l.43-1.222-.41-.162c-.834-.327-1.622-.598-1.744-.598-.068 0-.268.384-.443.853zm4.454 1.905c-.233.662-.37 1.253-.303 1.313.132.118 2.11.794 2.146.733.221-.372.83-2.392.743-2.47-.065-.06-.504-.232-.976-.384a53.988 53.988 0 01-1.022-.337c-.09-.033-.355.482-.588 1.145zm4.896.735l-.457 1.238-.333.903.428.168c.833.327 1.638.605 1.752.605.129 0 1.008-2.325.914-2.419-.033-.032-.537-.233-1.12-.445l-1.06-.386-.124.336zm-24.632 3.63l.378.403.047 26.748c.032 18.882-.004 26.92-.123 27.334-.327 1.129 1.054 1.055-19.878 1.055-20.011 0-19.501.019-19.78-.71-.053-.139-.097-12.623-.097-27.743V21.4h39.075l.378.403zm13.43 4.658l.413.842-3.264 9.254c-1.795 5.09-3.263 9.38-3.263 9.534 0 .153.337 1.007.75 1.897.724 1.562.743 1.637.535 2.176l-.215.558-1.536-1.558-1.536-1.558-1.104.102-1.104.103v-1.83l.62-.28c.34-.153.725-.397.855-.541.13-.145 1.696-4.407 3.48-9.472l3.242-9.21.774-.426c.425-.234.81-.427.857-.43.047-.001.27.376.497.839zm-36.34.484C12.455 28.47 7.984 34.674 8.737 41.43c.647 5.81 4.829 10.402 10.59 11.629 1.43.304 4.592.213 5.993-.174 1.461-.403 3.635-1.508 4.843-2.462 2.097-1.656 3.715-4.071 4.528-6.757.379-1.254.425-1.653.425-3.672 0-2.02-.046-2.42-.425-3.673-.81-2.677-2.33-4.961-4.434-6.66-1.246-1.007-3.462-2.157-4.937-2.563-1.315-.361-4.84-.45-6.14-.155zm4.303 2.62c.157.205.988 3.903.982 4.375-.002.25-.23.274-2.575.274-1.955 0-2.571-.047-2.57-.196.005-.312.909-4.326 1.013-4.495.144-.233 2.968-.196 3.15.042zM17.292 30.6c0 .076-.102.62-.228 1.211a121.44 121.44 0 00-.4 1.973c-.13.669-.24.898-.435.898-.144 0-1.02.148-1.946.33-.926.182-1.722.293-1.767.247-.336-.336 2.174-3.215 3.683-4.224.879-.587 1.093-.673 1.093-.435zm10.388.479c1.13.76 2.503 2.153 3.242 3.287.306.471.557.898.557.95 0 .051-.93-.091-2.066-.317l-2.066-.41-.335-1.633-.424-2.063c-.05-.236-.03-.43.044-.43s.546.277 1.048.616zm20.192 3.07l-.452 1.237-1.112.078-1.111.078v-1.768l1.287-.462c1.756-.63 1.748-.628 1.797-.506.024.06-.16.664-.409 1.344zm9.452 3.398c.704 1.145 1.28 2.132 1.28 2.192 0 .06-.103.358-.23.662l-.23.55-1.562-1.373c-.86-.756-1.564-1.446-1.565-1.533-.002-.254.845-2.581.94-2.581.047 0 .662.937 1.367 2.083zm-32.455-.479c.131.132.143 5.712.012 5.843-.16.16-3.571.258-4.836.14l-1.194-.113v-5.894l.585-.07c.876-.105 5.31-.029 5.433.093zm-8.668 2.918v2.646l-.507-.082a70.947 70.947 0 01-2.377-.503l-1.87-.42-.083-.816a9.852 9.852 0 010-1.633l.082-.817.936-.21c1.658-.372 3.582-.788 3.702-.8.064-.007.117 1.18.117 2.635zm14.134-2.08l2.051.437.103.826a8.039 8.039 0 010 1.653l-.103.827-2.051.437c-1.129.24-2.194.47-2.367.51-.307.07-.315 0-.315-2.6 0-2.601.008-2.67.315-2.6.173.04 1.238.268 2.367.51zm16.043.488c-.048.15-.33.941-.626 1.758l-.539 1.484-.008-1.668c-.008-1.8-.016-1.784.9-1.83.277-.013.34.046.273.256zm-31.765 6.625c1.002.186 1.838.35 1.858.363.085.058.824 4.04.761 4.102-.168.169-1.983-1.188-2.98-2.229-1.152-1.203-2.228-2.868-1.728-2.676.147.056 1.087.255 2.09.44zm16.454.395c-.573.985-2.737 3.168-3.688 3.719-.41.238-.772.407-.802.375-.072-.077.68-3.925.788-4.036.093-.094 4.005-.907 4.088-.849.03.02-.144.376-.386.79zm-6.6.637c.005.472-.826 4.17-.983 4.375-.167.218-2.704.278-3.027.072-.154-.099-1.138-4.043-1.138-4.563 0-.1.949-.157 2.572-.157 2.345 0 2.573.024 2.576.273zm-9.201 13.947v1.406h2.65V58.59h-2.65v1.407zm5.366-1.197c-.044.116-.06.731-.034 1.368l.046 1.157 1.286.045 1.286.046V58.59h-1.252c-.904 0-1.274.059-1.332.21zm5.3 0c-.044.116-.06.731-.034 1.368l.047 1.157 1.286.045 1.286.046V58.59h-1.252c-.905 0-1.275.059-1.333.21zM11.245 65.35l.045 1.29 10.64.04 10.64.04v-2.66H11.2l.045 1.29zm2.65 5.313l.046 1.29 7.99.04 7.989.04v-2.66H13.85l.045 1.29z" fill="#000"/></svg>