<svg width="80" height="80" fill="none" xmlns="http://www.w3.org/2000/svg"><path fill-rule="evenodd" clip-rule="evenodd" d="M25.905.035c-3.088.366-5.074.804-7.462 1.646-7.55 2.66-14.135 9.238-16.799 16.78C.442 21.864.004 24.43 0 28.105c-.004 3.647.426 6.226 1.58 9.466 2.415 6.78 7.448 12.446 13.956 15.708 6.608 3.313 14.421 3.877 21.538 1.555.878-.287 2.617-1.033 3.863-1.657l2.267-1.136.334.353c.184.195 5.559 6.068 11.944 13.052C61.867 72.43 67.3 78.293 67.556 78.475c.892.635 2.517 1.287 3.61 1.449 2.911.431 6.096-1.005 7.674-3.462.841-1.31 1.149-2.411 1.16-4.157.011-1.859-.363-3.166-1.283-4.482-.374-.535-5.205-5.046-13.38-12.494C58.298 48.92 52.432 43.564 52.3 43.43c-.218-.218-.13-.464.9-2.503 1.936-3.833 2.86-7.335 3.035-11.492.203-4.838-.68-9.164-2.746-13.455-1.543-3.205-3.082-5.361-5.607-7.856C43.55 3.846 38.359 1.246 32.17.255 31.07.08 26.8-.07 25.906.035zm4.722 3.2c5.753.579 10.987 3.062 15.134 7.181 4.606 4.575 7.125 10.33 7.353 16.8.25 7.058-2.109 13.232-6.994 18.313-4.723 4.911-11.113 7.61-18.022 7.61-7.774 0-15.17-3.668-19.901-9.87-6.828-8.95-6.828-21.378 0-30.327 5.26-6.894 13.772-10.578 22.43-9.707zm-4.252 3.136c-9.584.731-17.71 7.872-19.658 17.275-1.47 7.1.662 14.479 5.679 19.657 3.566 3.68 7.767 5.796 13.019 6.558 1.654.24 5.463.107 7.066-.247 4.375-.965 8.027-2.93 11.044-5.942 2.565-2.562 4.23-5.185 5.309-8.37.748-2.207 1.033-3.749 1.145-6.194.218-4.793-.983-9.122-3.648-13.15-1.504-2.271-2.52-2.789-3.521-1.79-.619.619-.612 1.31.022 2.219 1.987 2.853 2.847 4.592 3.54 7.164.543 2.015.682 5.521.305 7.727-1.155 6.772-6.053 12.472-12.596 14.662-5.479 1.833-11.575.984-16.522-2.301-1.561-1.037-3.945-3.45-5.031-5.091-4.891-7.394-3.968-17.168 2.22-23.49 2.649-2.708 5.896-4.468 9.748-5.285 2.099-.445 5.288-.434 7.494.027 1.77.37 2.303.298 2.771-.37.332-.472.287-1.393-.091-1.872-.677-.86-4.817-1.452-8.295-1.187zm12.296 3.258c-.585.25-.933.791-.933 1.451 0 .512.095.714.508 1.083.706.63 1.322.605 2.007-.079.677-.676.71-1.303.102-1.97-.458-.501-1.168-.706-1.684-.485zM22.61 16.175c-.453.405-.568.775-1.93 6.22l-1.45 5.789-2.845.078-2.846.078-.43.43c-.64.64-.608 1.556.077 2.168l.508.453h3.515c2.193 0 3.654-.064 3.887-.17.592-.269.804-.808 1.613-4.093.419-1.7.801-3.09.85-3.09.048 0 .436 1.425.862 3.168.694 2.835.827 3.222 1.271 3.677.479.49.542.508 1.752.508H28.7l1.434 4.299c1.233 3.695 1.5 4.354 1.905 4.693.535.45 1.044.5 1.695.163.52-.268.532-.3 2.267-5.517l1.21-3.638h5.641l.533-.532c.686-.685.71-1.3.076-2.008l-.457-.51-3.673-.048-3.672-.047-.483.405c-.398.335-.625.837-1.31 2.903-.455 1.373-.866 2.497-.913 2.497-.047 0-.456-1.116-.907-2.48-1.025-3.089-1.122-3.2-2.894-3.31l-1.271-.077-1.43-5.711c-.787-3.141-1.528-5.864-1.646-6.052-.483-.765-1.488-.878-2.197-.245zm29.28 31.127c.914.835 1.714 1.558 1.777 1.609.063.05-.96 1.16-2.271 2.464l-2.386 2.373-1.62-1.793-1.62-1.793.837-.73c.989-.863 2.875-2.795 3.216-3.295.133-.194.277-.352.322-.352.045 0 .83.683 1.744 1.517zM66.002 60.16c5.126 4.655 9.586 8.798 9.91 9.209 1.486 1.876 1.336 4.455-.355 6.144-.959.958-1.864 1.323-3.29 1.327-2.237.006-1.735.457-12.04-10.835l-9.101-9.97 2.46-2.46c2.434-2.436 2.462-2.458 2.778-2.17.175.161 4.513 4.101 9.639 8.755z" fill="#000"/></svg>