<svg width="80" height="80" fill="none" xmlns="http://www.w3.org/2000/svg"><path fill-rule="evenodd" clip-rule="evenodd" d="M6.4 17.148l-.01 17.149-3.195 2.541L0 39.38V80h30.948c30.416 0 30.947-.005 30.947-.3 0-.212.15-.332.508-.41 1.054-.228 3.524-1.142 4.737-1.753 3.668-1.849 7.107-4.952 9.322-8.41 1.061-1.657 2.243-4.376 2.779-6.393 1.801-6.781.353-14.184-3.88-19.843-.802-1.072-5.477-5.86-5.721-5.86-.09 0-1.868 1.705-3.953 3.788l-3.792 3.788-.008-2.655-.009-2.655-3.195-2.541-3.196-2.542V0H6.408L6.4 17.148zm46.586 6.102v20.594l-7.196 5.07c-3.957 2.789-7.316 5.066-7.463 5.061-.147-.005-1.64-1.026-3.316-2.27a420.46 420.46 0 00-3.553-2.616l-.505-.357-3.602 2.665c-1.98 1.466-3.668 2.666-3.749 2.666-.08 0-3.367-2.274-7.303-5.053l-7.155-5.052-.04-20.65-.04-20.652h43.922V23.25zm-41.382-6.492l.04 11.601 19.343.04 19.342.04V5.157H11.564l.04 11.6zm36.224.039v8.984H14.223V7.812h33.605v8.985zM11.6 32.227l.045 1.289 19.343.04 19.342.039v-2.657H11.554l.045 1.289zm-.033 5.195v1.328H50.33v-2.656H11.566v1.328zm-5.19 3.497l-.046 1.075-1.336-.958c-.736-.527-1.355-1.015-1.376-1.085-.021-.07.58-.622 1.337-1.227l1.375-1.1.046 1.11c.025.61.025 1.594 0 2.185zm50.691-2.155c.764.609 1.39 1.13 1.39 1.156 0 .047-2.363 1.758-2.775 2.01-.152.094-.195-.36-.195-2.077 0-1.208.043-2.197.095-2.197.053 0 .721.499 1.485 1.108zm13.702 2.84l.97.98-3.592 3.588-3.591 3.588-1.02-1.01-1.019-1.01 3.556-3.558c1.956-1.956 3.594-3.557 3.64-3.557.047 0 .521.44 1.056.98zm-59.203.974v1.328h28.446V41.25H11.566v1.328zm31.104 0v1.328h2.501V41.25h-2.5v1.328zm5.158 0v1.328h2.501V41.25h-2.5v1.328zm11.336 4.761c-.3.332-.302.54-.004.786.203.169.234 1.325.234 8.656v8.462l-1.012 1.004c-1.65 1.634-1.34 1.79-6.302-3.169-2.297-2.294-4.25-4.172-4.34-4.172-.09 0-.402.246-.693.547-.292.3-.595.547-.673.547-.206 0-5.658-4.068-5.658-4.22 0-.071 4.185-3.081 9.3-6.69l9.3-6.562.044 2.274c.035 1.863 0 2.32-.196 2.537zm-47.127 1.825c5.07 3.58 9.22 6.56 9.22 6.622 0 .113-18.37 13.745-18.522 13.745-.043 0-.078-6.047-.078-13.437s.036-13.438.08-13.438c.044 0 4.229 2.929 9.3 6.508zm62.023-3.578c1.254 1.847 2.21 4.074 2.862 6.665.469 1.861.576 5.778.218 7.921-.711 4.25-2.698 8.084-5.783 11.156-2.96 2.949-6.316 4.772-10.405 5.653-1.899.409-6.595.404-8.357-.008-1.815-.425-3.422-.99-4.845-1.702-1.327-.664-3.048-1.77-3.048-1.958 0-.062 1.544-1.655 3.431-3.54l3.431-3.427 1.494 1.445c1.655 1.6 2.437 2.045 3.601 2.048 1.717.006 1.596.099 7.318-5.595 2.908-2.893 5.398-5.47 5.533-5.727.136-.257.28-.93.321-1.497.105-1.46-.241-2.143-2.016-3.977l-1.447-1.495 3.428-3.43c1.886-1.887 3.48-3.43 3.541-3.43.062 0 .387.404.723.898zm-6.788 11.21c0 .52-.206.768-2.688 3.25l-2.689 2.687V50.861l2.689 2.687c2.482 2.482 2.688 2.73 2.688 3.249zm-29.44.195l6.714 4.96-3.751 3.752c-2.063 2.064-3.752 3.825-3.752 3.914 0 .198 4.673 4.82 5.573 5.511.356.274 1.264.885 2.016 1.357l1.368.859H2.657v-4.489l14.094-10.412c7.75-5.726 14.154-10.412 14.23-10.412.074 0 3.157 2.232 6.85 4.96zm8.355 11.134l-3.592 3.594-1.016-1.016-1.016-1.016 3.592-3.593 3.592-3.594 1.016 1.016 1.016 1.015-3.592 3.594z" fill="#000"/></svg>