<svg width="87" height="80" fill="none" xmlns="http://www.w3.org/2000/svg"><path fill-rule="evenodd" clip-rule="evenodd" d="M5.116.26C3.015.826 1.551 2.043.628 3.99L.071 5.165l-.05 8.527c-.048 8.227-.038 8.541.292 8.948l.341.422 5.806.051 5.806.05v3.655c0 3.431.022 3.682.364 4.117.456.579 1.395.634 1.917.111.344-.344.351-.585.351-12.264 0-11.45-.013-11.957-.354-13.058-.194-.63-.623-1.547-.953-2.037l-.6-.89H60.7l.788.37c.814.383 1.548 1.117 1.901 1.9.143.319.228 3.935.29 12.406.084 11.445.102 11.973.422 12.327.505.557 1.55.505 2.027-.1.369-.47.37-.499.32-12.502l-.05-12.033-.556-1.175C64.89 1.985 63.204.637 61.08.186 60.414.045 52.5-.007 33.094.001 10.357.01 5.89.05 5.116.26zm3.528 2.818c1.126.384 2.592 1.756 3.117 2.917.413.915.418.996.47 7.636l.05 6.712H2.617V13.44c0-7.461.052-7.971.945-9.142 1.013-1.327 3.215-1.856 5.083-1.22zm12.184 3.746c-.841.265-1.508.871-1.8 1.635-.244.639-.278 1.48-.233 5.864.049 4.875.069 5.141.418 5.613.202.272.628.672.947.89.568.385.69.394 5.442.394 4.752 0 4.874-.009 5.44-.395.32-.217.746-.617.948-.89.35-.471.37-.736.419-5.675.049-4.97.036-5.211-.32-5.946-.22-.456-.633-.93-1.016-1.168-.625-.389-.79-.403-5.208-.437-2.51-.02-4.776.032-5.037.115zm8.81 7.202v4.562h-2.43c-1.336 0-3.152-.051-4.036-.114l-1.606-.114V9.464h8.071v4.562zm5.443-1.057c-.787.787-.5 2.017.538 2.308.69.193 2.697.168 3.296-.041 1.007-.351 1.252-1.61.437-2.25-.397-.312-.708-.364-2.193-.364-1.49 0-1.78.049-2.078.347zm7.796.084c-.824.824-.367 2.068.84 2.29.315.059 3.63.082 7.366.053 6.727-.053 6.8-.058 7.18-.439.553-.553.512-1.404-.093-1.924l-.478-.41H43.308l-.43.43zm-22.545 11.37a2.75 2.75 0 00-1.179 1.096c-.39.691-.396.781-.352 5.997.043 5.037.063 5.319.407 5.78.2.266.58.646.846.845.463.346.708.362 5.517.362 5.03 0 5.032 0 5.622-.421 1.164-.83 1.244-1.263 1.248-6.78.004-4.756-.01-4.945-.39-5.702-.29-.572-.607-.89-1.179-1.178-.75-.378-.965-.394-5.27-.394s-4.52.016-5.27.394zm57.734 1.388c-.481.135-2.933 2.488-11.32 10.863l-10.707 10.69H35.278l-.378.48a1.314 1.314 0 00.197 1.845c.341.283 1.054.307 9.334.307h8.964l-2.104 2.15-2.103 2.149-1.747 5.132-1.746 5.132-4.827.018c-2.654.01-5.016.07-5.249.136-1.038.29-1.325 1.52-.538 2.307.331.331.605.347 6.052.347h5.706l5.64-1.93c3.103-1.062 5.682-1.93 5.732-1.93.05 0 1.3-1.201 2.778-2.669l2.689-2.668v19.023h-48.78V40.359l-.384-.358c-.558-.52-1.43-.471-1.884.105-.363.461-.364.503-.364 19.747V79.14l.431.43.43.431h26.057c18.723 0 26.177-.055 26.484-.195.235-.107.515-.387.623-.622.136-.3.194-3.928.194-12.132V55.346l9.932-9.913c6.7-6.687 10.039-10.141 10.261-10.614.433-.924.429-2.244-.01-3.152-.457-.942-4.987-5.435-5.84-5.79-.719-.301-1.832-.327-2.762-.066zm-48.429 5.498v4.474h-8.071v-8.948h8.071v4.474zm52.414-.738c1.33 1.33 2.332 2.473 2.332 2.66 0 .183-.855 1.191-1.927 2.274L80.53 37.45l-2.677-2.674-2.677-2.675 1.752-1.77c1.6-1.616 2.146-2.05 2.623-2.081.093-.006 1.218 1.038 2.5 2.32zm-46.954-.27a1.314 1.314 0 00-.197 1.845l.378.48H46.48c6.161 0 11.336-.052 11.5-.115.78-.3.833-1.94.075-2.346-.2-.107-4.528-.172-11.455-.172-10.346 0-11.16.022-11.504.307zm33.056 19.518l-10.44 10.44-2.676-2.675-2.675-2.675L62.8 44.469l10.438-10.438 2.678 2.673 2.678 2.674-10.44 10.44zm-47.728-8.177c-.647.293-1.231.911-1.48 1.566-.116.309-.185 2.38-.184 5.527.003 4.883.015 5.054.396 5.735.259.463.66.837 1.175 1.097.75.379.965.395 5.27.395s4.52-.017 5.27-.395c.572-.289.89-.606 1.178-1.178.382-.757.395-.946.391-5.702-.004-5.517-.084-5.95-1.248-6.78-.585-.417-.634-.421-5.416-.462-3.758-.032-4.942.012-5.352.197zm9.212 7.038v4.474h-8.071v-8.948h8.071v4.474zm23.507 10.873c1.104 1.106 1.97 2.042 1.927 2.08-.194.168-5.974 2.09-6.051 2.013-.101-.101 1.892-6.105 2.027-6.105.05 0 .994.905 2.097 2.012zm-32.983-.39a4.705 4.705 0 00-.948.89c-.35.472-.37.739-.418 5.614-.06 5.918.004 6.286 1.24 7.105l.716.473h4.838c4.736 0 4.852-.009 5.484-.402.383-.238.796-.712 1.016-1.167.356-.736.369-.976.32-5.947-.05-4.939-.069-5.203-.419-5.675a4.705 4.705 0 00-.947-.89c-.567-.386-.689-.395-5.441-.395-4.753 0-4.874.009-5.442.395zm9.476 6.8v4.562h-8.071v-9.124h8.071v4.562z" fill="#000"/></svg>