<svg width="78" height="80" fill="none" xmlns="http://www.w3.org/2000/svg"><path fill-rule="evenodd" clip-rule="evenodd" d="M34.354.384l-.386.383V8.75h-18.1l-.385.384-.386.383v17.216l.386.383c.356.354.503.384 1.887.384h1.501v.866c0 .712.069.936.386 1.25.212.211.551.384.754.384.202 0 1.777-.563 3.5-1.25l3.13-1.25h7.327v2.116c0 2.04.014 2.131.386 2.5l.386.384h19.128l3.767 1.25c2.072.688 3.931 1.25 4.132 1.25.2 0 .538-.173.75-.384.317-.314.386-.538.386-1.25V32.5h1.501c1.384 0 1.532-.03 1.887-.384l.386-.383V.767l-.386-.383L65.905 0H34.74l-.386.384zM64.16 16.25V30h-1.5c-1.385 0-1.532.03-1.888.384-.28.278-.386.553-.386 1.004v.62l-3.023-1.004L54.342 30H36.484V2.5H64.16v13.75zM48.2 6.48c-6.397 1.392-9.78 8.428-6.842 14.23 3.075 6.072 11.146 7.414 15.954 2.652 1.275-1.262 2.149-2.655 2.647-4.221.494-1.551.494-4.23 0-5.782C58.386 8.42 53.21 5.39 48.2 6.48zm3.924 2.51c4.028 1.042 6.53 5.141 5.512 9.027a7.652 7.652 0 01-5.512 5.494c-3.928 1.017-8.059-1.464-9.109-5.47-1.4-5.343 3.733-10.443 9.11-9.052zm-18.156 9.135V25h-7.802l-2.341.938c-1.288.515-2.363.937-2.39.937-.026 0-.048-.25-.048-.554 0-.38-.121-.674-.386-.937-.356-.354-.503-.384-1.887-.384h-1.501V11.25h16.355v6.875zm15.483-6.491c-.356.353-.386.5-.386 1.875V15h-1.502c-1.384 0-1.53.03-1.887.384-.51.507-.51 1.225 0 1.732.356.354.503.384 1.887.384h1.502v1.491c0 1.376.03 1.522.386 1.875.243.242.565.384.872.384.306 0 .628-.142.872-.384.356-.353.386-.5.386-1.875V17.5h1.5c1.385 0 1.532-.03 1.888-.384.243-.241.386-.562.386-.866 0-.304-.143-.625-.386-.866-.356-.354-.503-.384-1.887-.384H51.58v-1.491c0-1.376-.03-1.522-.386-1.875a1.27 1.27 0 00-.872-.384 1.27 1.27 0 00-.872.384zM15.96 33.91c-2.61.4-5.295 1.586-7.113 3.14-.28.24-.81.517-1.179.615-1.548.414-2.634 1.278-3.384 2.69l-.432.816-.05 7.266c-.055 7.747.004 8.654.694 10.67.766 2.237 2.707 4.768 4.708 6.137l.86.588v2.917H8.367c-2.808 0-4.642.688-6.22 2.332C.547 72.749 0 74.334 0 77.306c0 1.838.018 1.945.386 2.31a1.234 1.234 0 001.68.086c.35-.281.377-.428.463-2.54.08-1.925.145-2.35.469-3.021.476-.991 1.42-1.931 2.427-2.421.705-.342 1.022-.387 3.067-.428l2.28-.046 2.431 3.054c2.492 3.13 2.795 3.395 3.569 3.105.205-.077 1.451-1.475 2.77-3.108l2.395-2.969 1.957-.044c1.468-.033 2.16.02 2.769.21 1.218.38 2.233 1.227 2.881 2.404.545.99.556 1.05.642 3.257.081 2.123.107 2.265.457 2.547.517.415 1.212.38 1.68-.086.369-.365.387-.472.387-2.31 0-2.972-.547-4.557-2.148-6.224-1.578-1.644-3.412-2.332-6.22-2.332h-1.697v-2.917l.86-.588c1.135-.777 2.867-2.604 3.591-3.788 1.055-1.725 1.806-4.234 1.841-6.145l.013-.703.387.738c.483.923.857 2.321.857 3.209 0 1.292 1.27 1.915 2.14 1.05l.397-.394-.059-6.676c-.054-6.212-.081-6.759-.39-7.86-1.474-5.259-5.385-9.147-10.529-10.467-1.424-.366-4.365-.517-5.791-.298zm4.35 2.56c1.29.245 3.035.86 3.891 1.37 2.024 1.205 3.826 3.155 4.813 5.206.892 1.854 1.045 2.663 1.135 5.998l.082 3.03-.945-.782c-1.213-1.003-2.355-1.642-3.733-2.089-1.05-.34-1.39-.36-7.482-.444l-6.382-.088-.555-.421c-1.013-.768-1.07-1.052-1.07-5.262v-3.76l.825-.613c2.615-1.942 6.205-2.76 9.422-2.146zm31.291-.007c-.831.299-1.755 1.169-2.161 2.037l-.373.796-.002 8.385c-.002 8.89.04 9.513.78 11.613.74 2.105 2.713 4.625 4.668 5.963l.84.575v2.917h-1.696c-2.808 0-4.642.688-6.22 2.332-1.6 1.667-2.148 3.252-2.148 6.224 0 1.838.018 1.945.386 2.31a1.235 1.235 0 001.68.086c.35-.281.377-.428.464-2.54.105-2.565.356-3.318 1.477-4.431 1.112-1.106 1.896-1.371 4.277-1.449l2.072-.067.317 1.072c.174.59.71 2.444 1.19 4.12.93 3.252 1.12 3.593 2 3.593.544 0 1.234-.611 1.234-1.093 0-.179-.39-1.675-.865-3.324-.475-1.65-.865-3.046-.865-3.104 0-.058.141-.07.314-.025.18.047.816-.155 1.494-.475l1.18-.557 1.18.557c.679.32 1.315.522 1.495.475.172-.044.313-.033.313.025s-.39 1.455-.865 3.104c-.476 1.649-.865 3.145-.865 3.324 0 .482.69 1.093 1.234 1.093.88 0 1.07-.341 2-3.594.48-1.675 1.016-3.53 1.19-4.12l.318-1.072 2.072.063c1.997.06 2.107.082 3.062.59 1.106.59 1.585 1.083 2.19 2.257.37.716.422 1.027.503 3.038.085 2.113.112 2.258.462 2.54.517.415 1.212.38 1.68-.086.368-.365.386-.472.386-2.31 0-2.972-.547-4.557-2.147-6.224-1.579-1.644-3.413-2.332-6.22-2.332h-1.697v-2.917l.86-.588c1.14-.781 2.867-2.606 3.6-3.805.79-1.29 1.448-3.129 1.668-4.65.122-.844.164-3.929.131-9.602-.053-9.29.013-8.722-1.15-9.875-1.092-1.08-.923-1.064-11.467-1.051-7 .009-9.584.061-9.976.202zm19.722 2.67l.386.383v9.233H51.567l.046-4.702.046-4.701.372-.299c.356-.286.75-.298 9.639-.298h9.268l.386.384zm-10.55 1.25c-.318.314-.387.538-.387 1.25v.866h-.715c-.789 0-1.552.318-1.703.71-.197.508-.09 1.032.288 1.406.317.315.542.384 1.258.384h.872v.866c0 1.043.455 1.634 1.258 1.634.803 0 1.258-.59 1.258-1.634V45h.872c1.33 0 1.944-.74 1.47-1.772-.225-.49-.762-.728-1.642-.728h-.7v-.866c0-1.043-.455-1.634-1.258-1.634a1.27 1.27 0 00-.872.384zM7.517 43.802l-.048 3.333-.44.573c-.243.315-.512.573-.6.573-.101 0-.14-1.174-.109-3.333l.048-3.333.44-.573c.243-.315.512-.573.599-.573.102 0 .14 1.174.11 3.333zm1.828 6.187c.242.251.804.62 1.248.82.79.355.944.365 7.176.451 3.874.054 6.554.154 6.84.255.26.092.782.292 1.16.444l.686.277-.076 2.359c-.087 2.682-.34 3.712-1.333 5.401-.759 1.294-2.361 2.886-3.664 3.64-4.932 2.859-11.412.953-13.96-4.105-.9-1.788-1.127-2.981-1.13-5.972l-.003-2.456.768-.329c.422-.18.966-.534 1.21-.785.242-.252.484-.458.538-.458.055 0 .297.206.54.458zm62.326 4.113c-.06 2.35-.13 3.03-.406 3.867-1.357 4.124-5.33 7.026-9.62 7.026-3.707 0-7.282-2.187-8.933-5.464-.894-1.776-1.126-2.987-1.13-5.898l-.002-2.383h20.163l-.072 2.852zM16.355 67.389c1.414 0 2.398-.078 2.948-.234l.826-.234v2.646l-1.848 2.318c-1.016 1.275-1.883 2.318-1.926 2.318-.043 0-.91-1.043-1.927-2.318l-1.847-2.318V66.92l.825.234c.55.156 1.534.234 2.949.234zm45.29.003c1.398-.003 2.405-.084 2.949-.238l.825-.233v2.291l-.62.314-.619.315-1.145-.546c-.63-.3-1.255-.545-1.39-.545s-.76.245-1.39.545l-1.145.546-.62-.315-.619-.314v-2.291l.826.237c.561.162 1.503.237 2.948.234z" fill="#000"/></svg>