<svg width="32" height="32" fill="none" xmlns="http://www.w3.org/2000/svg"><path stroke="#000" d="M.5.5h31v31H.5z"/><path fill-rule="evenodd" clip-rule="evenodd" d="M19.351 8.128c.486.234.708.735.551 1.244-.056.184-.149.317-.35.504-.151.14-1.725 1.453-3.499 2.918-1.773 1.464-3.223 2.678-3.222 2.697.002.018 1.438 1.216 3.19 2.66 4.024 3.316 3.83 3.145 3.93 3.468.28.905-.695 1.697-1.544 1.255-.305-.159-8.024-6.555-8.2-6.796-.328-.446-.262-.979.172-1.387.137-.128 1.977-1.66 4.09-3.404 2.881-2.38 3.892-3.187 4.046-3.232.314-.09.535-.071.836.073z" fill="#000"/></svg>