<svg width="40" height="41" fill="none" xmlns="http://www.w3.org/2000/svg"><path fill-rule="evenodd" clip-rule="evenodd" d="M18.128.047c-3.892.377-7.75 1.963-10.775 4.43-.89.725-2.299 2.148-3.008 3.038C2.55 9.767 1.08 12.812.47 15.54.087 17.252 0 18.085 0 20.049c0 1.966.087 2.799.47 4.512.623 2.787 2.132 5.875 3.986 8.159.724.892 2.144 2.303 3.032 3.015 2.247 1.798 5.285 3.271 8.007 3.883 1.71.383 2.54.47 4.502.47 1.96 0 2.792-.087 4.501-.47 2.046-.46 4.722-1.606 6.48-2.775 3.05-2.029 5.391-4.698 6.99-7.967.98-2.003 1.536-3.796 1.887-6.08.194-1.264.194-4.228 0-5.492-.35-2.284-.907-4.078-1.887-6.08-1.045-2.137-2.21-3.763-3.892-5.431-1.651-1.638-3.164-2.715-5.272-3.752a19.657 19.657 0 00-5.99-1.877c-.982-.15-3.661-.216-4.686-.117zm4.374 1.928c3.976.579 7.57 2.373 10.367 5.176 2.805 2.811 4.544 6.312 5.178 10.428.093.602.133 1.348.133 2.47 0 2.968-.581 5.478-1.876 8.097-2.686 5.436-7.676 9.038-13.841 9.992-1.183.184-3.75.184-4.933 0-4.107-.636-7.6-2.378-10.406-5.19-2.805-2.81-4.544-6.311-5.178-10.427-.183-1.185-.183-3.758 0-4.942.322-2.093.87-3.86 1.743-5.626 2.638-5.338 7.592-8.972 13.565-9.95 1.51-.247 3.663-.259 5.248-.028zm1.409 10.834c-.757.083-1.557.489-2.163 1.096-.727.729-1.082 1.658-1.034 2.71l.028.629-.584-.053c-2.286-.208-4.571-1.287-6.328-2.989-.416-.402-.781-.715-.813-.696-.122.076-.39.95-.434 1.416-.097 1.036.272 2.048 1.034 2.833l.475.49-.238-.002c-.13 0-.476-.083-.766-.182l-.529-.18.001.28c.002.746.438 1.699 1.072 2.341.407.414 1.374.959 1.704.961.131.001.139.015.041.077-.064.042-.428.077-.807.078-.68 0-.69.004-.636.177.177.575.743 1.278 1.366 1.695.503.336 1.322.637 1.75.642l.245.003-.234.194c-.337.278-1.48.851-2.075 1.04-.827.264-1.397.35-2.297.348l-.849-.002.242.148c1.022.622 2.618 1.18 3.922 1.37 1.082.159 2.763.122 3.716-.082 3.984-.848 6.966-3.604 8.067-7.454.226-.79.328-1.427.397-2.471l.053-.824.597-.559c.682-.638 1.23-1.342.982-1.261-.465.152-1.579.446-1.688.447-.079 0 .09-.22.435-.569.45-.455.906-1.133.906-1.347 0-.02-.257.084-.573.23a9.058 9.058 0 01-1.142.423l-.57.159-.403-.302c-.915-.684-1.79-.933-2.87-.814z" fill="#000"/></svg>