<svg width="40" height="41" fill="none" xmlns="http://www.w3.org/2000/svg"><path fill-rule="evenodd" clip-rule="evenodd" d="M18.128.047c-3.892.377-7.75 1.963-10.775 4.43-.89.725-2.299 2.148-3.008 3.038C2.55 9.767 1.08 12.812.47 15.54.087 17.252 0 18.085 0 20.049c0 1.966.087 2.799.47 4.512.623 2.787 2.132 5.875 3.986 8.159.724.892 2.144 2.303 3.032 3.015 2.247 1.798 5.285 3.271 8.007 3.883 1.71.383 2.54.47 4.502.47 1.96 0 2.792-.087 4.501-.47 2.046-.46 4.722-1.606 6.48-2.775 3.05-2.029 5.391-4.698 6.99-7.967.98-2.003 1.536-3.796 1.887-6.08.194-1.264.194-4.228 0-5.492-.35-2.284-.907-4.078-1.887-6.08-1.045-2.137-2.21-3.763-3.892-5.431-1.651-1.638-3.164-2.715-5.272-3.752a19.657 19.657 0 00-5.99-1.877c-.982-.15-3.661-.216-4.686-.117zm4.374 1.928c3.976.579 7.57 2.373 10.367 5.176 2.805 2.811 4.544 6.312 5.178 10.428.093.602.133 1.348.133 2.47 0 2.968-.581 5.478-1.876 8.097-2.686 5.436-7.676 9.038-13.841 9.992-1.183.184-3.75.184-4.933 0-4.107-.636-7.6-2.378-10.406-5.19-2.805-2.81-4.544-6.311-5.178-10.427-.183-1.185-.183-3.758 0-4.942.322-2.093.87-3.86 1.743-5.626 2.638-5.338 7.592-8.972 13.565-9.95 1.51-.247 3.663-.259 5.248-.028zm-.94 9.89c-1.519.108-2.508.648-2.965 1.619-.329.7-.401 1.162-.401 2.566v1.25l-.92.022-.92.022-.021 1.354-.022 1.353h1.882v8.237h3.603V20.05h1.212c1.194 0 1.213-.002 1.25-.176.036-.173.278-2.34.278-2.491 0-.049-.522-.078-1.379-.078H21.78l.03-1.084c.036-1.313.095-1.448.694-1.576.219-.047.766-.086 1.216-.086h.818v-2.746l-1.311.014c-.721.008-1.47.025-1.664.039z" fill="#000"/></svg>