<svg width="16" height="16" fill="none" xmlns="http://www.w3.org/2000/svg"><path fill-rule="evenodd" clip-rule="evenodd" d="M3.375.033C2.843.238 1.85 1.217.925 2.447.559 2.935.272 3.378.12 3.69L0 3.94l.039.334c.306 2.654 2.513 6.12 5.475 8.597 2.088 1.746 4.343 2.875 6.2 3.105.306.038.324.036.517-.043.788-.322 2.647-1.819 3.351-2.696.447-.557.512-.825.305-1.246-.14-.286-.29-.417-1.081-.951-1.613-1.088-2.767-1.677-3.281-1.676-.385 0-.602.16-1.228.897-.22.26-.42.471-.443.471-.075 0-.613-.22-.937-.382a7.284 7.284 0 01-2.81-2.488c-.263-.395-.639-1.132-.76-1.488l-.08-.237.132-.117c.072-.064.288-.251.48-.416.596-.51.736-.707.761-1.072a1.076 1.076 0 00-.061-.444c-.103-.319-.464-1.05-.799-1.615C5.4 1.83 4.58.598 4.394.392 4.122.089 3.657-.075 3.375.033z" fill="#000"/></svg>