<svg width="10" height="16" fill="none" xmlns="http://www.w3.org/2000/svg"><path fill-rule="evenodd" clip-rule="evenodd" d="M.649.137C.163.387-.06.921.098 1.463c.056.197.149.338.35.539.151.149 1.725 1.55 3.499 3.111C5.72 6.675 7.17 7.97 7.169 7.99c-.002.02-1.438 1.297-3.19 2.838-4.024 3.536-3.83 3.354-3.93 3.699-.28.966.695 1.81 1.544 1.339.305-.17 8.023-6.993 8.2-7.25.329-.476.262-1.043-.172-1.479-.137-.136-1.977-1.77-4.09-3.631C2.65.968 1.64.106 1.486.059 1.171-.038.95-.018.65.137z" fill="#000"/></svg>