<svg width="40" height="41" fill="none" xmlns="http://www.w3.org/2000/svg"><path fill-rule="evenodd" clip-rule="evenodd" d="M18.128.729c-3.892.377-7.75 1.963-10.775 4.43-.89.725-2.299 2.148-3.008 3.038C2.55 10.448 1.08 13.493.47 16.22.087 17.933 0 18.766 0 20.732c0 1.965.087 2.797.47 4.51.623 2.787 2.132 5.876 3.986 8.16.724.891 2.144 2.303 3.032 3.014 2.247 1.799 5.285 3.272 8.007 3.883 1.71.384 2.54.47 4.502.47 1.96 0 2.792-.086 4.501-.47 2.046-.46 4.722-1.605 6.48-2.775 3.05-2.028 5.391-4.698 6.99-7.967.98-2.002 1.536-3.795 1.887-6.08.194-1.264.194-4.227 0-5.491-.35-2.285-.907-4.078-1.887-6.08-1.045-2.137-2.21-3.763-3.892-5.432-1.651-1.638-3.164-2.714-5.272-3.751a19.657 19.657 0 00-5.99-1.877c-.982-.15-3.661-.217-4.686-.117zm4.374 1.927c3.976.58 7.57 2.374 10.367 5.176 2.805 2.812 4.544 6.312 5.178 10.428.093.603.133 1.349.133 2.471 0 2.968-.581 5.477-1.876 8.097-2.686 5.436-7.676 9.037-13.841 9.992-1.183.183-3.75.183-4.933 0-4.107-.636-7.6-2.378-10.406-5.19-2.804-2.81-4.544-6.31-5.178-10.426-.183-1.185-.183-3.758 0-4.943.322-2.092.87-3.858 1.743-5.625 2.638-5.338 7.592-8.972 13.565-9.95 1.51-.248 3.663-.26 5.248-.029zm-.94 9.89c-1.519.109-2.508.649-2.965 1.62-.329.7-.401 1.161-.401 2.566v1.249l-.92.022-.92.022-.021 1.353-.022 1.354h1.882v8.237h3.603v-8.238h1.212c1.194 0 1.213-.002 1.25-.176.036-.173.278-2.34.278-2.492 0-.048-.522-.077-1.379-.077H21.78l.03-1.084c.036-1.313.095-1.448.694-1.577.219-.047.766-.085 1.216-.085h.818v-2.746l-1.311.014c-.721.007-1.47.025-1.664.038z" fill="#fff"/></svg>