<svg width="12" height="8" fill="none" xmlns="http://www.w3.org/2000/svg"><path fill-rule="evenodd" clip-rule="evenodd" d="M11.897.519a.81.81 0 00-.994-.44c-.148.045-.254.118-.404.28-.112.12-1.162 1.38-2.334 2.798-1.172 1.42-2.142 2.579-2.157 2.578-.016-.001-.973-1.15-2.129-2.552C1.227-.037 1.363.118 1.105.039.38-.184-.252.595.1 1.275c.127.244 5.244 6.418 5.437 6.56.357.262.782.209 1.109-.139.102-.109 1.328-1.58 2.724-3.27 1.903-2.306 2.55-3.115 2.585-3.238a.831.831 0 00-.059-.669z" fill="#fff"/></svg>