<svg width="18" height="14" fill="none" xmlns="http://www.w3.org/2000/svg"><path fill-rule="evenodd" clip-rule="evenodd" d="M.675.614a.947.947 0 00-.644.692C.004 1.42-.005 3.113.002 6.985l.01 5.516.106.201c.058.11.168.248.243.306.302.23-.286.215 8.645.215 8.932 0 8.343.015 8.645-.215.076-.058.185-.195.243-.306l.106-.2V1.282l-.106-.2a1.098 1.098 0 00-.243-.306c-.302-.23.29-.216-8.66-.213C2.374.566.794.575.675.614zm16.004.739c-.029.028-1.67 1.326-3.648 2.885C10.617 6.14 9.39 7.085 9.3 7.112c-.173.05-.415.05-.587 0-.09-.027-1.318-.972-3.732-2.874a682.938 682.938 0 01-3.647-2.885c-.044-.044 1.104-.051 7.672-.051s7.716.007 7.673.05zM4.5 4.763C6.543 6.374 8.282 7.72 8.365 7.755c.084.035.262.084.396.108.295.053.656 0 .931-.135.097-.047 1.848-1.405 3.89-3.018l3.714-2.932.009 2.539c.005 1.396.005 3.679 0 5.073l-.009 2.534-1.952-2.537c-1.074-1.396-1.98-2.553-2.013-2.572a.4.4 0 00-.363.024.398.398 0 00-.137.377c.012.05.915 1.252 2.006 2.67l1.983 2.578-3.907.01c-2.149.005-5.665.005-7.814 0l-3.907-.01 1.984-2.578c1.09-1.418 1.994-2.62 2.006-2.67.03-.127-.036-.307-.137-.377a.424.424 0 00-.35-.035c-.03.013-.93 1.158-1.996 2.546a937.67 937.67 0 01-1.97 2.557C.712 11.927.7 9.744.7 6.861c0-4.056.009-5.077.044-5.054.024.015 1.715 1.346 3.757 2.956z" fill="#000"/></svg>