<svg width="20" height="16" fill="none" xmlns="http://www.w3.org/2000/svg"><path fill-rule="evenodd" clip-rule="evenodd" d="M17.49.02c-.496.105-.204-.176-5.572 5.344l-4.991 5.13-1.878-1.933c-2.03-2.09-2.07-2.125-2.57-2.22a1.08 1.08 0 00-.486-.003c-.443.092-.62.211-1.198.805-.448.461-.558.6-.666.834-.119.258-.13.314-.129.664 0 .335.015.416.115.645.106.246.299.453 3.126 3.37 2.176 2.246 3.068 3.141 3.212 3.224.279.158.659.16.944.005.148-.08 1.692-1.65 6.286-6.385 5.796-5.975 6.095-6.29 6.203-6.54.099-.228.113-.31.114-.644.001-.554-.106-.77-.688-1.388C18.82.403 18.58.206 18.308.1c-.23-.09-.603-.126-.817-.08z" fill="#219653"/></svg>