<svg width="24" height="24" fill="none" xmlns="http://www.w3.org/2000/svg"><path fill-rule="evenodd" clip-rule="evenodd" d="M7.375 4.033c-.532.205-1.526 1.184-2.45 2.414-.366.488-.653.931-.804 1.243L4 7.94l.039.334c.306 2.654 2.513 6.12 5.475 8.597 2.088 1.746 4.343 2.875 6.2 3.105.306.038.324.036.517-.043.788-.323 2.647-1.819 3.351-2.696.447-.557.512-.825.305-1.246-.14-.286-.29-.417-1.081-.951-1.614-1.088-2.767-1.677-3.281-1.676-.385 0-.602.16-1.228.897-.22.26-.42.471-.443.471-.075 0-.613-.22-.937-.382a7.285 7.285 0 01-2.81-2.488c-.263-.395-.639-1.132-.76-1.488l-.08-.237.132-.117c.072-.064.288-.251.48-.416.596-.51.737-.707.761-1.072a1.076 1.076 0 00-.061-.444c-.103-.319-.464-1.05-.799-1.615-.38-.642-1.2-1.875-1.386-2.081-.272-.303-.737-.467-1.019-.359z" fill="#000"/></svg>