<svg width="22" height="28" fill="none" xmlns="http://www.w3.org/2000/svg"><path fill-rule="evenodd" clip-rule="evenodd" d="M5.516 2.362C2.628 3.658.205 4.778.132 4.851L0 4.983v4.692c0 3.899.015 4.797.09 5.315.335 2.331 1.332 4.455 2.874 6.128.652.707 7.65 6.809 7.877 6.868a.623.623 0 00.265 0c.227-.06 7.229-6.162 7.879-6.868a11.187 11.187 0 002.61-4.817c.366-1.425.368-1.47.394-6.503.022-4.333.018-4.61-.082-4.81-.102-.207-.272-.288-5.443-2.604C13.024.844 11.062-.004 10.947 0c-.098.003-2.542 1.067-5.43 2.362zm10.417 1l4.93 2.207v4.505c0 4.45-.002 4.513-.134 5.19-.382 1.957-1.232 3.673-2.503 5.056-.385.418-1.75 1.646-3.918 3.524l-3.327 2.881-3.217-2.78a303.627 303.627 0 01-3.568-3.113c-1.473-1.398-2.52-3.332-2.975-5.492-.133-.635-.134-.672-.135-5.204V5.57l4.93-2.208a659.978 659.978 0 014.958-2.21c.016 0 2.248.994 4.96 2.208zm-9.36.959C3.535 5.684 2.339 6.248 2.24 6.365l-.136.16.023 3.997c.023 3.869.027 4.015.155 4.605.386 1.79 1.146 3.298 2.28 4.517.25.27 1.748 1.604 3.328 2.965 2.667 2.297 2.89 2.475 3.095 2.475.207 0 .432-.182 3.229-2.604 3.188-2.76 3.494-3.064 4.194-4.168.6-.944.996-1.936 1.265-3.168.118-.537.125-.762.146-4.595l.023-4.03-.165-.18c-.214-.233-8.428-3.912-8.72-3.905-.111.002-1.925.783-4.385 1.887zm8.31.997l3.867 1.73v3.553c-.002 3.096-.015 3.623-.102 4.108-.274 1.514-.867 2.792-1.821 3.928-.249.295-1.355 1.297-3.09 2.799-1.488 1.286-2.73 2.339-2.763 2.339-.032 0-1.275-1.053-2.762-2.339-1.735-1.502-2.842-2.504-3.09-2.8-.955-1.135-1.547-2.413-1.821-3.927-.088-.485-.101-1.012-.102-4.108V7.05l2.728-1.221c1.501-.672 3.23-1.448 3.844-1.726.613-.278 1.145-.507 1.18-.51.037-.004 1.806.773 3.933 1.725zM9.327 8.576l-.171.178v2.323H8.043c-1.09 0-1.115.003-1.276.147l-.165.147v3.114l.163.169.162.168 1.114.02 1.114.02v2.254l.171.178.172.178h2.952l.172-.178.171-.178v-2.254l1.114-.02 1.114-.02.163-.168.162-.17v-3.113l-.164-.147c-.162-.144-.186-.147-1.277-.147h-1.112V8.754l-.171-.178-.172-.178H9.498l-.172.178zm2.398 2.116l.016 1.168.179.157c.178.156.185.156 1.26.156h1.082v1.516l-1.12.018-1.12.02-.142.17c-.14.168-.142.193-.142 1.325v1.153h-1.526v-1.153c0-1.132-.002-1.157-.141-1.325l-.142-.17-1.12-.02-1.12-.019v-1.515H8.77c1.078 0 1.082 0 1.262-.157l.18-.158v-1.141c0-.628.019-1.161.041-1.184.023-.024.36-.035.748-.026l.708.017.016 1.168z" fill="#fff"/></svg>