<svg width="28" height="31" fill="none" xmlns="http://www.w3.org/2000/svg"><circle cx="19" cy="9" r="9" fill="#F2C94C"/><path fill-rule="evenodd" clip-rule="evenodd" d="M13.68 7.046c-1.724.196-3.442.986-4.747 2.182-1.662 1.522-2.6 3.454-2.753 5.67-.075 1.088.214 2.61.695 3.664.077.169.14.324.14.345 0 .021-.123.076-.273.123-.377.116-.823.42-.955.651-.103.181-.107.23-.108 1.442 0 .69-.01 1.255-.022 1.255-.013 0-.136-.044-.275-.098-.419-.163-1.03-.276-1.67-.308-.52-.026-.622-.02-.727.048-.096.061-.122.117-.122.258 0 .298.097.346.79.388.92.057 1.695.273 1.942.543.08.086.079.095-.024.19-.248.227-.995.443-1.833.53-1.093.11-2.567-.165-2.935-.551l-.112-.118.14-.11c.077-.06.259-.154.405-.209a1.54 1.54 0 00.35-.175c.124-.11.107-.35-.034-.48-.146-.135-.332-.115-.758.082-.379.175-.596.358-.705.594-.083.178-.088.39-.089 3.51 0 3.203.002 3.325.092 3.499.17.326.536.557 1.22.767.21.064.542.146.74.18.456.081 1.825.084 2.266.004.517-.093 1.218-.319 1.463-.472l.223-.14.4.198c.97.478 2.498.623 3.8.36.555-.112 1.047-.28 1.303-.446l.174-.113.363.187c.425.22 1.054.387 1.752.466 1.31.15 2.965-.16 3.549-.666.375-.325.361-.237.361-2.246 0-2.002.002-1.987-.337-2.251-.94-.732-3.24-.925-4.822-.406l-.473.155v-1.163c0-.804.016-1.163.052-1.163.028 0 .216.04.417.09 1.052.262 2.48.322 3.501.148 2.383-.406 4.438-1.819 5.727-3.938 1.943-3.193 1.555-7.092-.972-9.783-.781-.831-.97-.941-1.21-.705-.214.21-.167.314.4.887.603.608 1 1.12 1.362 1.755 1.645 2.887 1.072 6.57-1.403 9.01-1.995 1.968-4.641 2.628-7.504 1.873l-.37-.098V21.26c0-.703-.021-1.277-.051-1.382-.152-.536-.98-.95-2.23-1.115-.258-.034-.726-.045-1.236-.03l-.82.027-.215-.5c-.748-1.75-.832-3.548-.247-5.288.161-.477.624-1.404.911-1.825a8.004 8.004 0 014.986-3.312c.723-.152 2.04-.154 2.792-.006.55.109 1.284.337 1.76.545.346.152.507.156.642.015a.34.34 0 00.074-.382c-.066-.17-1.141-.595-1.999-.791a8.548 8.548 0 00-2.761-.17zm-1.801 4.85c-.988.311-1.303 1.902-.55 2.777.196.227.603.405.929.404.83-.001 1.47-.95 1.297-1.925-.165-.933-.916-1.495-1.676-1.256zm4.67.031c-.2.18-4.427 6.35-4.427 6.462 0 .254.222.411.464.328.106-.036.59-.707 2.328-3.222 1.834-2.653 2.195-3.202 2.192-3.33-.005-.186-.09-.28-.288-.319-.113-.022-.174-.004-.269.081zm-4.064.692c.175.104.34.414.382.715.076.549-.333 1.14-.724 1.043-.315-.078-.587-.616-.527-1.043.06-.437.346-.804.625-.804a.62.62 0 01.244.089zm4.205 2.915c-.404.096-.713.369-.926.818-.12.252-.134.332-.134.774 0 .463.01.513.157.807.496.99 1.585 1.093 2.193.206.581-.849.28-2.19-.57-2.534a1.284 1.284 0 00-.72-.07zm.578.807c.431.389.384 1.312-.082 1.616-.203.133-.285.133-.483 0-.328-.218-.47-.78-.314-1.242.075-.22.254-.437.41-.496.122-.047.348.012.47.122zm-7.781 3.085c.774.084 1.406.267 1.72.499.153.114.155.12.07.211-.278.303-1.454.6-2.377.6-.84 0-1.836-.202-2.267-.46-.306-.185-.287-.276.096-.466.69-.341 1.763-.49 2.758-.384zM6.824 21.12c.62.217 1.128.29 2.029.29.936.002 1.513-.085 2.156-.322a5.36 5.36 0 01.331-.116c.01 0 .018.156.018.347 0 .328-.008.354-.142.466-.3.247-1.156.47-2.021.525-.868.055-1.95-.129-2.52-.43l-.257-.134-.014-.393c-.012-.362-.007-.39.072-.359.047.019.204.076.348.126zm-.157 1.534c.658.253 1.789.412 2.567.361.577-.038 1.29-.174 1.736-.332.18-.064.342-.117.358-.117.017 0 .03.158.03.35 0 .4-.042.462-.424.639-1.051.485-3.181.48-4.176-.012-.346-.17-.363-.2-.363-.609 0-.202.01-.368.022-.368.012 0 .125.04.25.088zm.897 1.86c.587.121 1.61.143 2.263.048a7.717 7.717 0 001.472-.385c.044-.018.06.069.06.348 0 .406-.02.442-.33.597-1.011.503-2.984.547-4.125.091-.458-.183-.51-.25-.51-.68v-.361l.394.132c.217.072.566.167.776.21zm-6.385-.167c.645.212 1.228.298 2.018.298.79 0 1.373-.086 2.017-.298a8.93 8.93 0 01.443-.14c.012 0 .022.158.022.35 0 .34-.005.352-.155.464-.602.444-2.331.644-3.517.407-.555-.112-1.018-.28-1.182-.432-.095-.088-.11-.147-.11-.445 0-.189.01-.343.021-.343.012 0 .211.062.443.139zm.527 1.742c.533.122 1.88.172 2.445.091.47-.067 1.009-.203 1.307-.328l.22-.093v.366c0 .421-.018.45-.43.634-.567.256-1.036.331-2.051.331-1.015 0-1.484-.075-2.051-.33-.411-.186-.431-.215-.431-.631v-.363l.287.114a6 6 0 00.704.21zm5.364-.082c.63.179 1.177.232 2.077.204.82-.026 1.223-.094 1.86-.314.152-.052.293-.095.314-.095.02 0 .037.148.037.328 0 .371-.043.44-.387.612-.646.325-2.103.468-3.092.306-.585-.096-1.107-.265-1.324-.427-.158-.119-.16-.125-.16-.494v-.374l.138.07c.077.039.318.122.537.184zm8.485-.13c.814.137 1.451.408 1.424.605-.018.13-.499.357-1.048.492-1.192.294-3.164.095-3.717-.376l-.164-.14.167-.142c.186-.158.716-.34 1.285-.441.505-.09 1.514-.09 2.053.002zM2.124 27.75c.366.06.663.071 1.288.052.867-.027 1.35-.11 1.946-.33l.324-.12-.013.383-.014.384-.215.128c-.269.162-.918.347-1.466.419-.471.062-1.515.034-1.923-.05-.416-.087-.983-.28-1.155-.393-.153-.101-.157-.113-.17-.48l-.015-.377.468.154c.257.084.682.188.945.23zm5.074-.123c.657.163 1.122.205 1.936.176.82-.03 1.326-.117 1.902-.33l.322-.12v.348c0 .319-.01.357-.131.467-.154.141-.497.274-1.062.413-.554.136-1.923.147-2.522.02-.475-.1-.847-.232-1.065-.377-.157-.103-.16-.112-.173-.49l-.014-.384.22.093c.122.051.386.134.587.184zm5.83.04c.46.115.582.125 1.48.126 1.05.001 1.37-.042 2.065-.28.19-.064.367-.123.393-.129.028-.007.054.126.062.31.012.28 0 .339-.09.432-.145.153-.47.293-.998.431-.403.106-.551.12-1.336.124-.685.003-.973-.015-1.282-.08-.474-.1-.846-.232-1.064-.377-.157-.103-.16-.112-.174-.49l-.014-.384.229.097c.126.053.454.152.73.22zm-11.752 1.46c.707.23 1.25.299 2.136.269.892-.03 1.462-.142 2.183-.43.075-.03.084.002.084.32 0 .415-.026.452-.455.65-.674.31-1.975.445-2.91.304-.582-.087-1.18-.268-1.42-.43l-.179-.12v-.377c0-.284.015-.372.06-.354.032.014.258.09.501.169zm5.596-.015c.638.218 1.064.277 2.004.276 1.041-.001 1.588-.097 2.399-.422.075-.03.083.002.083.316 0 .301-.014.361-.107.445-.361.325-1.392.572-2.398.574-.823.003-1.885-.226-2.28-.49l-.178-.121v-.379c0-.343.007-.375.083-.342.046.02.223.084.394.143zm6.395.192c.31.065.615.084 1.289.084.973-.001 1.383-.062 2.073-.31.209-.074.386-.135.394-.135.008 0 .015.155.015.344 0 .402-.05.47-.478.656-.75.324-1.91.44-2.911.292-.542-.08-1.164-.266-1.388-.414-.16-.106-.163-.113-.177-.488l-.014-.38.396.133c.218.073.578.171.801.218z" fill="#000"/></svg>