<svg width="30" height="32" fill="none" xmlns="http://www.w3.org/2000/svg"><circle cx="21" cy="9" r="9" fill="#F2C94C"/><path fill-rule="evenodd" clip-rule="evenodd" d="M11.68 8.074c-2.524.38-4.745 1.707-6.212 3.712-.404.551-1.038 1.776-1.25 2.414-.183.552-.35 1.298-.394 1.758l-.033.347-.412.031a3.652 3.652 0 00-1.452.39c-.34.163-.52.294-.87.635-.37.36-.476.503-.674.902-.364.736-.4 1.005-.378 2.802.019 1.482.022 1.519.155 1.91.308.901.938 1.633 1.75 2.032.665.327 1.086.411 2.047.411.895 0 1.105-.061 1.295-.378.1-.166.103-.287.13-4.583.033-4.915.015-4.664.403-5.807.84-2.474 2.995-4.345 5.665-4.92.594-.128 1.868-.177 2.49-.096 1.76.228 3.264.964 4.508 2.207 1.018 1.017 1.686 2.246 2.033 3.74.104.447.109.617.136 4.876.032 4.91.009 4.609.377 4.832.157.096.247.104 1.06.104.716 0 .963-.018 1.278-.098a3.557 3.557 0 002.508-2.32c.133-.391.136-.428.155-1.91.022-1.8-.014-2.067-.38-2.802-.196-.394-.309-.545-.672-.901-.654-.641-1.359-.953-2.322-1.026l-.412-.031-.033-.347c-.088-.93-.395-1.914-.922-2.955a8.262 8.262 0 00-1.54-2.177c-1.482-1.53-3.324-2.462-5.45-2.759-.663-.092-1.947-.089-2.585.007zm-8.215 18.48c.046.33.31 1.045.539 1.462a5.538 5.538 0 003.499 2.696c.373.096.672.133 1.231.153l.738.026.003-.455.003-.455h-.512c-.639-.001-1.055-.065-1.591-.246-1.386-.466-2.508-1.62-2.912-2.993l-.119-.401h-.909l.03.213zm8.11 2.346c-.72.196-1.194.83-1.184 1.585.008.59.364 1.13.923 1.4.232.112.276.115 1.686.115s1.454-.003 1.686-.115c.978-.473 1.236-1.715.518-2.499a1.95 1.95 0 00-.517-.388l-.29-.14-1.295-.01c-.92-.008-1.363.007-1.527.052z" fill="#000"/></svg>