<svg width="25" height="25" fill="none" xmlns="http://www.w3.org/2000/svg"><circle cx="12" cy="13" r="11" fill="#F6C443"/><path fill-rule="evenodd" clip-rule="evenodd" d="M22.866 2.017c-.42.092-.173-.153-4.736 4.676l-4.242 4.49-1.596-1.692c-1.725-1.828-1.76-1.86-2.186-1.942a.892.892 0 00-.412-.003c-.377.08-.528.185-1.018.704-.381.404-.475.525-.567.73-.1.225-.11.274-.109.581 0 .293.013.364.097.564.091.215.255.397 2.658 2.95 1.85 1.964 2.608 2.748 2.73 2.82.237.138.56.14.803.004.125-.07 1.438-1.443 5.342-5.586 4.927-5.228 5.181-5.505 5.273-5.723.084-.2.096-.271.097-.564 0-.484-.09-.674-.584-1.214-.42-.459-.624-.632-.855-.724a1.422 1.422 0 00-.695-.07z" fill="#333"/></svg>