<svg width="13" height="17" fill="none" xmlns="http://www.w3.org/2000/svg"><path fill-rule="evenodd" clip-rule="evenodd" d="M5.673.06C3.5.372 1.669 1.763.683 3.848c-.366.776-.575 1.57-.657 2.501-.039.44-.036.565.02.974.126.93.436 1.945.824 2.703.323.631 1.174 1.947 1.953 3.02 1.263 1.742 3.058 3.8 3.408 3.909a.85.85 0 00.546 0c.396-.123 2.347-2.404 3.702-4.327 1.704-2.417 2.25-3.583 2.482-5.296.17-1.253-.228-2.9-1.013-4.184C10.591.924 8.12-.292 5.673.06zm1.614 3.847c.434.147.752.355 1.088.713.476.508.732 1.095.779 1.788.074 1.12-.508 2.221-1.436 2.716-.452.241-.704.301-1.25.299-.419-.002-.493-.014-.787-.123-.452-.17-.701-.337-1.044-.701a2.725 2.725 0 01-.672-1.141c-.083-.269-.097-.388-.1-.807-.004-.584.051-.847.282-1.339.27-.578.864-1.14 1.435-1.36.52-.199 1.198-.217 1.705-.045z" fill="#143586"/></svg>