<svg width="46" height="46" fill="none" xmlns="http://www.w3.org/2000/svg"><path stroke="#000" d="M.5.5h45v45H.5z"/><path fill-rule="evenodd" clip-rule="evenodd" d="M28.092 11.188c.68.343.99 1.078.771 1.824-.08.27-.208.465-.49.74-.212.205-2.416 2.13-4.899 4.279-2.482 2.148-4.512 3.928-4.51 3.955.002.028 2.012 1.784 4.466 3.902 5.633 4.863 5.363 4.613 5.502 5.087.39 1.328-.973 2.488-2.162 1.84-.428-.233-11.233-9.614-11.481-9.968-.459-.654-.366-1.434.242-2.033.19-.188 2.767-2.435 5.725-4.994 4.034-3.49 5.45-4.674 5.665-4.739.44-.133.75-.105 1.17.107z" fill="#000"/></svg>