<svg width="16" height="16" fill="none" xmlns="http://www.w3.org/2000/svg"><path fill-rule="evenodd" clip-rule="evenodd" d="M5.56.034a6.39 6.39 0 00-3.698 1.819C-.024 3.74-.533 6.6.592 8.988c.93 1.973 2.785 3.338 4.916 3.618a6.32 6.32 0 004.49-1.127c.154-.11.29-.201.304-.201.014 0 1.059 1.034 2.323 2.297C15.047 15.997 15.05 16 15.329 16c.138 0 .408-.113.49-.206a.893.893 0 00.181-.466c0-.279-.002-.281-2.423-2.706a179.922 179.922 0 01-2.296-2.32c0-.012.091-.15.203-.309a6.213 6.213 0 001.172-3.648 6.268 6.268 0 00-1.867-4.504A6.336 6.336 0 007.311.064c-.424-.07-1.307-.086-1.75-.03zm1.501 1.345c1.426.23 2.643 1 3.415 2.164.575.866.839 1.731.842 2.762.002.496-.034.797-.147 1.252a5.007 5.007 0 01-3.609 3.61c-.455.114-.755.15-1.251.148-1.03-.004-1.895-.268-2.76-.843a4.972 4.972 0 01-2.21-4.144c0-.841.172-1.546.563-2.303A5.05 5.05 0 015.014 1.5c.57-.164 1.456-.217 2.047-.122z" fill="#383A43"/></svg>