<svg width="40" height="41" fill="none" xmlns="http://www.w3.org/2000/svg"><path fill-rule="evenodd" clip-rule="evenodd" d="M18.128.729c-3.892.377-7.75 1.963-10.775 4.43-.89.725-2.299 2.148-3.008 3.038C2.55 10.448 1.08 13.493.47 16.22.087 17.933 0 18.766 0 20.732c0 1.965.087 2.797.47 4.51.623 2.787 2.132 5.876 3.986 8.16.724.891 2.144 2.303 3.032 3.014 2.247 1.799 5.285 3.272 8.007 3.883 1.71.384 2.54.47 4.502.47 1.96 0 2.792-.086 4.501-.47 2.046-.46 4.722-1.605 6.48-2.775 3.05-2.028 5.391-4.698 6.99-7.967.98-2.002 1.536-3.795 1.887-6.08.194-1.264.194-4.227 0-5.491-.35-2.285-.907-4.078-1.887-6.08-1.045-2.137-2.21-3.763-3.892-5.432-1.651-1.638-3.164-2.714-5.272-3.751a19.657 19.657 0 00-5.99-1.877c-.982-.15-3.661-.217-4.686-.117zm4.374 1.927c3.976.58 7.57 2.374 10.367 5.176 2.805 2.812 4.544 6.312 5.178 10.428.093.603.133 1.349.133 2.471 0 2.968-.581 5.477-1.876 8.097-2.686 5.436-7.676 9.037-13.841 9.992-1.183.183-3.75.183-4.933 0-4.107-.636-7.6-2.378-10.406-5.19-2.804-2.81-4.544-6.31-5.178-10.426-.183-1.185-.183-3.758 0-4.943.322-2.092.87-3.858 1.743-5.625 2.638-5.338 7.592-8.972 13.565-9.95 1.51-.248 3.663-.26 5.248-.029zm1.409 10.835c-.757.083-1.557.488-2.163 1.096-.727.728-1.082 1.658-1.034 2.71l.028.628-.584-.053c-2.286-.207-4.571-1.286-6.328-2.988-.416-.402-.781-.716-.813-.696-.122.076-.39.95-.434 1.415-.097 1.037.272 2.048 1.034 2.834l.475.49-.238-.002c-.13-.001-.476-.083-.766-.183l-.529-.18.001.28c.002.747.438 1.7 1.072 2.342.407.413 1.374.958 1.704.96.131.002.139.015.041.078-.064.042-.428.077-.807.077-.68.002-.69.004-.636.178.177.575.743 1.278 1.366 1.695.503.336 1.322.637 1.75.642l.245.003-.234.194c-.337.278-1.48.851-2.075 1.04-.827.263-1.397.35-2.297.347l-.849-.002.242.148c1.022.623 2.618 1.18 3.922 1.371 1.082.158 2.763.121 3.716-.082 3.984-.848 6.966-3.604 8.067-7.455.226-.79.328-1.427.397-2.47l.053-.825.597-.558c.682-.639 1.23-1.342.982-1.261-.465.151-1.579.446-1.688.446-.079 0 .09-.22.435-.568.45-.455.906-1.133.906-1.348 0-.019-.257.085-.573.23a8.913 8.913 0 01-1.142.424l-.57.158-.403-.302c-.915-.684-1.79-.932-2.87-.813z" fill="#fff"/></svg>