<svg width="60" height="60" fill="none" xmlns="http://www.w3.org/2000/svg"><circle cx="19" cy="19" r="19" fill="#F2C94C"/><path fill-rule="evenodd" clip-rule="evenodd" d="M9.654 5.16c-1.77.478-3.075 1.819-3.492 3.588-.218.926-.215 20.442.003 21.37.38 1.615 1.484 2.827 3.15 3.46.553.21.61.211 9.218.241l8.661.03.028 8.67.028 8.67.22.578c.58 1.527 1.56 2.498 3.039 3.01l.645.223h20.892l.645-.223c1.628-.564 2.742-1.783 3.151-3.448.14-.57.158-1.774.158-10.696 0-11.071.019-10.7-.604-11.886-.37-.704-1.219-1.554-1.922-1.924-1.17-.616-.983-.605-10.245-.605h-8.414v-8.482c0-7.197-.022-8.567-.145-9.04a4.885 4.885 0 00-3.536-3.54c-.81-.211-20.695-.207-21.48.005zm29.531.003c-.325.177-.563.61-.563 1.025 0 .218.094.4.318.624.312.311.337.317 1.684.43 2.214.185 3.814.645 5.691 1.635 4.246 2.241 6.944 6.337 7.474 11.348l.043.408-1.967.032c-2.17.035-2.283.063-2.562.65-.307.65.052 1.313.806 1.488.427.1 4.282.122 4.848.029.227-.038.489-.179.671-.361l.299-.3-.054-1.519c-.236-6.708-4.64-12.58-11.056-14.747-1.352-.457-2.232-.648-3.642-.792-1.32-.134-1.667-.125-1.99.05zm-8.164 2.208c.552.25 1.112.816 1.366 1.379l.231.512.028 8.464.028 8.463-.77.065c-.975.081-1.63.276-2.339.694-1.39.821-2.21 2.209-2.337 3.953l-.06.822-8.478-.062c-8.383-.062-8.484-.065-8.965-.272-.535-.23-1.102-.795-1.352-1.346-.147-.323-.161-1.279-.161-10.568 0-11.332-.04-10.642.667-11.41.437-.475.75-.666 1.306-.799.21-.05 4.725-.081 10.425-.072 9.122.014 10.089.03 10.411.177zm-11.317 3.302c-.158.158-.315.427-.35.599-.034.17-.062 1.163-.062 2.204v1.894h-2.855c-1.657 0-3.008.043-3.218.102-.761.212-1.026 1.18-.473 1.734.342.343.635.412 1.758.412h.85l.12.806c.3 1.998 1.273 4.126 2.607 5.699.29.343.528.645.528.671 0 .026-.193.16-.429.3-1.008.59-2.595 1.057-4.013 1.178-1.011.087-1.372.239-1.574.663-.22.461-.116.958.267 1.28.258.218.388.25.997.25 1.95 0 4.588-.811 6.192-1.903.193-.13.397-.21.456-.177.058.033.216.137.352.231.51.353 2.029 1.056 2.812 1.303 1.012.318 2.387.546 3.298.547.784 0 1.09-.16 1.308-.686.163-.395-.01-1.01-.346-1.231-.14-.092-.694-.21-1.339-.286-1.728-.203-2.651-.472-3.894-1.135l-.581-.31.332-.35c1.461-1.542 2.66-4.118 2.946-6.325l.065-.501 1.115-.043c1.068-.04 1.128-.055 1.407-.322.368-.353.46-.803.254-1.239-.293-.617-.285-.616-3.645-.649l-3.051-.03v-1.888c0-1.038-.028-2.028-.062-2.2-.168-.84-1.187-1.183-1.772-.598zm3.493 7.222c0 .428-.344 1.678-.694 2.52-.354.85-1.263 2.264-1.771 2.753l-.334.321-.408-.443c-.586-.636-1.31-1.785-1.667-2.64-.334-.805-.686-2.092-.689-2.52l-.001-.268h5.564v.277zm29.11 10.747c.25.123.632.416.847.65.731.794.698.252.698 11.341 0 11.09.034 10.548-.698 11.342a3.505 3.505 0 01-.847.65l-.456.225H31.447l-.513-.232a2.612 2.612 0 01-1.31-1.345c-.175-.397-.18-.828-.156-10.763l.026-10.35.296-.477c.35-.569.929-1 1.576-1.176.377-.103 2.48-.124 10.478-.109l10.007.02.456.224zM41.094 32.63a1.16 1.16 0 00-.457.463c-.348.735-5.334 14.465-5.334 14.689 0 1.067 1.502 1.433 1.997.486.088-.168.433-1.031.766-1.918l.607-1.613h6.032l.693 1.849c.774 2.066.916 2.26 1.635 2.242a.988.988 0 00.988-1.03c-.005-.304-.746-2.385-2.645-7.426-1.452-3.852-2.71-7.138-2.794-7.303-.282-.546-.901-.729-1.488-.44zm1.639 7.162c.533 1.473.953 2.694.933 2.714-.02.02-.98.024-2.132.01l-2.095-.027 1.051-2.883a369.739 369.739 0 001.063-2.932c.017-.078.153.282 1.18 3.118zM6.445 37.594l-.332.332.001.963c.004 1.698.367 3.678.994 5.41 2.244 6.198 8.278 10.583 14.707 10.685L22.82 55l.286-.32c.418-.466.401-1.001-.046-1.449-.188-.188-.432-.333-.562-.333-.727-.003-2.592-.228-3.337-.403a14.198 14.198 0 01-10.744-11.42c-.087-.504-.157-1.084-.157-1.29v-.373h1.809c2.073 0 2.384-.073 2.644-.619.22-.461.117-.958-.266-1.281l-.297-.25H6.777l-.332.332z" fill="#000"/></svg>